<svg width="441" height="100" viewBox="0 0 441 100" fill="none" xmlns="http://www.w3.org/2000/svg">
<mask id="path-1-outside-1_365_70" maskUnits="userSpaceOnUse" x="0" y="7.5" width="441" height="93" fill="black">
<rect fill="white" y="7.5" width="441" height="93"/>
<path d="M7.10216 99.484C2.62216 99.484 0.446155 94.492 0.446155 90.716C0.446155 83.74 5.18216 77.212 11.5822 74.588C14.8462 73.244 18.6862 72.668 22.1422 72.476C22.7182 70.428 23.3582 68.444 23.8702 66.396C27.3262 53.212 29.4382 39.836 32.1262 26.524C32.5742 24.412 35.1342 11.676 36.8622 11.676C37.5662 11.676 37.6942 11.804 37.6942 12.444C37.6942 15.388 36.2222 18.908 35.6462 21.788C35.1342 24.54 34.4942 27.292 33.9822 30.044C31.2302 44.316 28.6062 58.588 24.6382 72.54C38.5262 73.884 50.0462 78.492 63.1662 82.78C80.3822 88.348 100.606 94.236 118.718 94.236C121.854 94.236 130.814 94.236 130.814 89.692C130.814 88.604 129.47 88.092 129.47 87.452C129.47 87.196 129.662 87.004 129.918 87.004C131.07 87.004 132.03 88.924 132.03 89.884C132.03 95.708 122.558 96.156 118.398 96.156C100.606 96.156 79.8062 90.076 62.7822 84.764C51.1342 81.18 39.6782 76.7 27.5182 75.164C26.3022 75.036 25.0862 74.908 23.9342 74.908C23.0382 77.468 22.2062 80.028 21.1822 82.46C19.1342 87.644 13.5662 99.484 7.10216 99.484ZM6.71816 97.372C7.80616 97.372 9.53416 96.732 10.3662 96.028C14.1422 92.892 16.9582 86.812 18.7502 82.396C19.7102 79.9 20.6062 77.276 21.5022 74.844C15.3582 75.42 9.02216 76.764 5.37416 82.14C3.64616 84.7 2.62216 87.644 2.62216 90.716C2.62216 93.084 3.77416 97.372 6.71816 97.372ZM39.7647 65.244C38.4847 65.244 37.8447 63.964 37.8447 62.812C37.8447 59.356 40.7247 52.508 44.8207 52.508C45.9727 52.508 47.9567 54.236 47.9567 55.388C47.9567 57.244 47.5727 62.108 50.5807 62.108C53.3967 62.108 58.6447 57.052 59.3487 57.052C59.4767 57.052 59.5407 57.116 59.6687 57.116C59.7327 57.244 59.8607 57.436 59.8607 57.564C59.8607 58.716 54.6767 62.3 53.5247 62.94C52.5647 63.452 51.3487 63.9 50.2607 63.9C47.6367 63.9 46.1007 61.404 45.7167 59.1C44.2447 60.828 42.3887 65.244 39.7647 65.244ZM40.3407 62.748C42.5807 60.7 44.1167 58.012 45.3967 55.324C45.2687 55.196 45.0127 54.876 44.8207 54.876C42.5167 54.876 40.6607 60.892 40.3407 62.748ZM60.6282 64.604C59.0282 64.604 59.0282 62.556 59.0282 61.468C59.0282 60.124 60.0522 54.428 60.6282 53.404C60.8842 53.02 61.2042 52.892 61.6522 52.892C62.1642 52.956 62.5482 53.404 62.5482 53.916C62.5482 56.476 61.0762 58.844 61.0762 61.468V61.852C62.1002 61.916 66.1962 53.852 67.4762 53.98C67.9242 53.98 68.3082 54.492 68.3082 54.94C68.3082 56.604 67.9242 58.204 67.9242 59.868C67.9242 60.316 67.9242 62.684 68.6922 62.684C70.8042 62.684 75.0282 56.86 75.9882 56.924C76.2442 56.924 76.5002 57.18 76.5002 57.436C75.4762 59.612 70.8682 64.668 68.3722 64.54C65.4282 64.284 65.9402 60.828 65.6202 59.1C64.8522 60.188 61.9082 64.604 60.6282 64.604ZM83.4897 71.004C81.4417 71.004 81.1857 68.508 81.1857 66.972C81.1857 64.54 81.8257 62.108 82.2097 59.74C80.4177 58.78 75.7457 59.548 75.7457 56.54C75.7457 55.324 76.7697 53.148 78.1777 53.148C79.0097 53.148 79.4577 53.852 79.4577 54.62C79.4577 55.452 78.9457 56.156 78.6257 56.86C79.3297 57.692 84.1937 56.668 84.1937 60.188C84.1937 62.94 83.1697 65.628 83.1697 68.38C83.1697 68.7 83.2337 69.02 83.4897 69.276C85.9857 68.7 94.0497 57.052 94.7537 57.052C95.0097 57.052 95.2017 57.308 95.2017 57.564C95.2017 59.356 85.5377 71.004 83.4897 71.004ZM110.716 67.932C109.244 67.932 108.988 66.332 109.116 65.244C109.5 62.044 109.18 60.828 109.948 58.332C109.692 58.46 109.5 58.716 109.308 58.908C106.492 62.044 102.396 66.716 97.8522 66.716C95.1002 66.716 93.9482 64.604 93.9482 62.108C93.9482 59.676 96.4442 52.38 99.3882 52.38C100.348 52.38 100.988 53.212 100.988 54.108C100.988 56.284 98.3002 60.252 96.1882 60.892C96.0602 61.404 95.9962 61.916 95.9962 62.428C95.9962 63.836 96.2522 65.052 97.9802 65.052C104.316 65.052 110.46 53.276 112.124 53.276C112.892 53.276 113.276 54.172 113.276 54.812C113.276 56.22 112.764 57.628 112.508 58.972C112.124 60.828 111.932 62.684 111.676 64.54L111.74 64.732C113.66 61.724 117.436 54.3 119.612 54.3C122.748 54.3 120.188 64.156 123.004 64.156C126.524 64.156 132.028 56.86 132.604 56.86C132.988 56.86 133.18 57.18 133.18 57.5C133.18 59.996 125.564 66.012 123.068 66.012C119.1 66.012 119.42 59.868 118.972 57.564C117.116 58.78 114.172 64.988 112.252 67.228C111.868 67.676 111.356 67.932 110.716 67.932ZM96.8922 58.652C97.6602 57.948 99.2602 55.708 99.2602 54.62V54.428C98.0442 55.388 97.2122 57.18 96.7002 58.588L96.8922 58.652ZM186.55 76.7C185.846 76.7 185.718 75.804 185.654 75.356C185.526 74.716 185.526 74.14 185.526 73.564C185.526 72.604 185.59 71.58 185.654 70.492C181.942 70.492 176.694 69.34 176.694 64.604C176.694 59.1 184.246 55.516 188.086 53.02C186.23 52.444 181.11 51.292 181.11 48.668C181.11 45.66 186.678 43.676 188.982 42.908C189.046 42.012 189.11 38.172 190.134 38.172C190.582 38.172 190.838 38.62 190.838 39.004C190.966 40.156 190.71 41.244 190.646 42.46C191.478 42.396 192.374 42.204 193.206 42.204C194.23 42.204 197.046 42.396 197.174 43.868V44.06C197.174 44.38 196.854 44.892 196.47 44.892C196.022 44.892 195.894 44.38 195.766 44.06C195.382 43.868 194.998 43.868 194.614 43.868C193.142 43.868 191.734 43.932 190.454 44.444C190.454 44.892 190.326 45.724 189.814 45.724C189.366 45.724 189.174 45.276 188.982 44.892C187.638 45.084 182.454 47.324 182.774 48.732C182.966 50.524 190.774 50.588 191.158 53.02C191.158 53.148 191.222 53.212 191.222 53.34C191.222 53.788 191.03 54.236 190.646 54.364C188.278 55.388 185.654 56.86 183.35 58.524C182.07 59.548 180.854 60.7 179.894 62.108C179.318 62.94 178.678 64.156 178.87 65.372C179.126 67.036 181.494 67.868 182.966 68.252C183.478 68.316 183.926 68.38 184.374 68.38C184.886 68.38 185.462 68.316 186.102 68.252C186.23 67.74 186.614 66.716 187.318 66.716C187.766 66.716 188.15 67.164 188.15 67.548V67.868C191.99 66.972 196.022 65.756 199.542 64.22C199.862 64.092 200.246 63.9 200.502 63.9C200.886 63.9 201.27 64.092 201.27 64.476C201.526 66.14 189.878 69.468 187.958 70.044C187.574 72.092 187.638 74.268 187.126 76.252C186.998 76.572 186.934 76.7 186.55 76.7ZM286.99 96.284C280.014 96.284 266.766 93.276 266.766 84.316C266.766 76.06 278.478 69.212 285.198 66.332C286.542 65.756 288.142 65.18 289.614 64.54C289.998 61.148 290.254 59.228 290.574 56.54C290.894 54.3 291.086 51.996 291.406 49.756C292.302 42.268 293.07 34.78 294.286 27.356C294.542 25.948 295.63 18.332 296.078 17.564C296.206 17.372 296.462 17.244 296.718 17.244C297.614 17.244 297.934 17.948 297.87 18.652C297.614 23.132 296.654 27.676 296.078 32.092C295.118 39.708 294.222 47.324 293.326 54.94C292.942 57.692 292.494 60.636 292.238 63.388C296.27 62.236 300.366 60.828 304.462 59.868C316.494 56.924 329.678 55.132 342.094 54.94C342.862 52.188 343.374 48.476 343.374 45.596C343.374 40.476 342.286 35.292 340.046 30.62C332.622 14.812 317.326 10.204 300.942 10.204C280.718 10.204 255.886 18.524 244.11 35.868C242.19 38.684 240.526 42.268 240.526 45.724C240.526 48.86 242.51 51.164 244.814 53.084L245.006 53.276C245.006 53.66 244.942 54.236 244.43 54.236C243.086 54.236 240.846 51.548 240.142 50.524C239.31 49.244 239.054 48.604 238.798 47.196C238.67 46.684 238.67 46.044 238.67 45.532C238.67 41.244 241.23 36.444 243.79 33.116C256.398 16.54 280.206 8.21999 300.558 8.21999C317.134 8.21999 332.878 12.316 341.198 27.996C344.014 33.244 345.678 39.26 345.678 45.148C345.678 46.812 345.55 48.604 345.294 50.268C345.166 51.804 344.974 53.468 344.59 54.94C346.766 54.94 360.078 55.004 360.078 57.692C360.078 57.884 359.886 58.204 359.63 58.204C358.99 58.204 358.478 57.82 357.902 57.692C355.342 56.988 352.526 57.116 349.838 56.924C348.878 56.86 347.918 56.86 346.958 56.86H344.078C342.35 61.468 340.302 66.204 337.422 70.236C326.35 85.788 306.062 96.284 286.99 96.284ZM287.374 94.364C300.494 94.364 315.854 88.028 325.966 79.836C329.742 76.764 333.07 73.052 335.758 68.956C337.166 66.844 340.878 59.036 341.518 56.732C338.638 56.86 335.758 57.052 332.878 57.244C320.974 58.268 309.39 60.316 297.934 63.708C296.846 64.028 293.966 64.796 292.046 65.564C291.726 67.676 291.534 70.364 291.278 72.54C290.894 76.444 290.318 80.412 290.318 84.316V84.892C290.318 85.404 290.254 85.852 289.422 85.852C288.27 85.852 288.142 84.508 288.142 83.484C288.142 79.644 288.462 75.804 288.846 72.092C289.038 70.3 289.23 68.38 289.358 66.588C287.502 67.42 285.198 68.38 283.342 69.276C278.222 71.836 268.622 77.724 268.622 84.188C268.622 92.252 281.294 94.364 287.374 94.364ZM359.952 65.244C358.672 65.244 358.032 63.964 358.032 62.812C358.032 59.356 360.912 52.508 365.008 52.508C366.16 52.508 368.144 54.236 368.144 55.388C368.144 57.244 367.76 62.108 370.768 62.108C373.584 62.108 378.832 57.052 379.536 57.052C379.664 57.052 379.728 57.116 379.856 57.116C379.92 57.244 380.048 57.436 380.048 57.564C380.048 58.716 374.864 62.3 373.712 62.94C372.752 63.452 371.536 63.9 370.448 63.9C367.824 63.9 366.288 61.404 365.904 59.1C364.432 60.828 362.576 65.244 359.952 65.244ZM360.528 62.748C362.768 60.7 364.304 58.012 365.584 55.324C365.456 55.196 365.2 54.876 365.008 54.876C362.704 54.876 360.848 60.892 360.528 62.748ZM383.247 67.612C380.303 67.612 379.791 63.772 379.791 61.532C379.791 60.188 380.303 53.02 381.903 53.02C382.287 53.02 382.671 53.276 382.671 53.724C382.671 56.284 381.903 58.716 381.903 61.276C381.903 62.172 381.903 65.564 383.247 65.564C384.079 65.564 384.975 64.604 385.487 64.028C388.303 60.828 390.479 55.452 390.479 51.228C390.479 49.884 389.391 45.532 387.663 45.532C387.343 45.532 387.151 45.724 386.831 45.724C386.511 45.724 386.255 45.468 386.255 45.148C386.255 44.444 387.151 43.868 387.791 43.868C389.199 43.868 390.671 45.66 391.311 46.748C392.079 47.964 392.207 49.116 392.207 50.524C392.207 54.876 388.687 67.612 383.247 67.612ZM398.768 66.716C395.696 66.716 394.224 64.156 394.224 61.404C394.224 60.252 395.184 55.644 396.528 54.236C396.784 53.98 397.168 53.98 397.424 53.98C398.192 53.98 398.576 54.428 398.576 55.132C398.576 55.516 398.512 55.9 398.384 56.348C397.936 58.204 396.72 60.7 396.72 62.3C396.72 63.708 397.36 64.924 398.96 64.924C402.672 64.924 408.368 59.484 410.736 56.796C411.056 56.86 411.376 57.116 411.376 57.436C411.376 58.268 410.48 59.1 409.968 59.74C407.6 62.556 402.736 66.716 398.768 66.716ZM398.64 51.484C397.808 51.42 397.104 50.972 397.104 50.076C397.104 48.988 397.296 46.94 398.768 47.004C399.408 47.004 400.24 48.54 400.24 49.116C400.24 50.076 399.792 51.484 398.64 51.484ZM426.842 68.188C420.698 68.188 420.57 61.404 419.93 57.116C419.29 56.988 418.97 56.348 418.778 55.836C417.434 58.076 414.554 66.908 411.546 66.908C409.754 66.908 409.562 64.796 409.562 63.58C409.562 59.612 412.122 52.252 416.858 52.252C417.434 52.252 417.946 52.444 418.458 52.508C419.098 51.74 420.442 48.348 420.634 47.324C421.21 44.124 421.658 40.86 422.426 37.724C422.938 35.676 426.01 25.18 428.25 25.18C428.826 25.18 429.402 25.756 429.402 26.332C429.402 30.812 425.05 40.924 423.194 45.276C422.106 47.772 421.786 53.02 421.786 55.9C421.786 59.356 421.786 66.332 426.714 66.716C430.746 67.036 436.826 60.508 438.938 57.692C439.258 57.308 439.45 56.924 439.578 56.668L439.898 56.604L440.218 56.732L440.346 57.18C440.346 57.564 440.09 58.14 439.642 58.78C437.146 62.428 431.322 68.188 426.842 68.188ZM411.802 63.9C412.89 63.388 417.434 55.772 417.434 54.492C414.298 54.236 411.994 60.38 411.866 62.94C411.866 63.26 411.866 63.58 411.802 63.9ZM419.802 53.66L419.994 53.596V53.212H419.866L419.738 53.404L419.802 53.66ZM425.05 36.188C425.562 34.396 426.714 31.836 426.842 30.172C426.522 30.684 424.858 35.612 424.858 36.188V36.444L425.05 36.188Z"/>
</mask>
<path d="M7.10216 99.484C2.62216 99.484 0.446155 94.492 0.446155 90.716C0.446155 83.74 5.18216 77.212 11.5822 74.588C14.8462 73.244 18.6862 72.668 22.1422 72.476C22.7182 70.428 23.3582 68.444 23.8702 66.396C27.3262 53.212 29.4382 39.836 32.1262 26.524C32.5742 24.412 35.1342 11.676 36.8622 11.676C37.5662 11.676 37.6942 11.804 37.6942 12.444C37.6942 15.388 36.2222 18.908 35.6462 21.788C35.1342 24.54 34.4942 27.292 33.9822 30.044C31.2302 44.316 28.6062 58.588 24.6382 72.54C38.5262 73.884 50.0462 78.492 63.1662 82.78C80.3822 88.348 100.606 94.236 118.718 94.236C121.854 94.236 130.814 94.236 130.814 89.692C130.814 88.604 129.47 88.092 129.47 87.452C129.47 87.196 129.662 87.004 129.918 87.004C131.07 87.004 132.03 88.924 132.03 89.884C132.03 95.708 122.558 96.156 118.398 96.156C100.606 96.156 79.8062 90.076 62.7822 84.764C51.1342 81.18 39.6782 76.7 27.5182 75.164C26.3022 75.036 25.0862 74.908 23.9342 74.908C23.0382 77.468 22.2062 80.028 21.1822 82.46C19.1342 87.644 13.5662 99.484 7.10216 99.484ZM6.71816 97.372C7.80616 97.372 9.53416 96.732 10.3662 96.028C14.1422 92.892 16.9582 86.812 18.7502 82.396C19.7102 79.9 20.6062 77.276 21.5022 74.844C15.3582 75.42 9.02216 76.764 5.37416 82.14C3.64616 84.7 2.62216 87.644 2.62216 90.716C2.62216 93.084 3.77416 97.372 6.71816 97.372ZM39.7647 65.244C38.4847 65.244 37.8447 63.964 37.8447 62.812C37.8447 59.356 40.7247 52.508 44.8207 52.508C45.9727 52.508 47.9567 54.236 47.9567 55.388C47.9567 57.244 47.5727 62.108 50.5807 62.108C53.3967 62.108 58.6447 57.052 59.3487 57.052C59.4767 57.052 59.5407 57.116 59.6687 57.116C59.7327 57.244 59.8607 57.436 59.8607 57.564C59.8607 58.716 54.6767 62.3 53.5247 62.94C52.5647 63.452 51.3487 63.9 50.2607 63.9C47.6367 63.9 46.1007 61.404 45.7167 59.1C44.2447 60.828 42.3887 65.244 39.7647 65.244ZM40.3407 62.748C42.5807 60.7 44.1167 58.012 45.3967 55.324C45.2687 55.196 45.0127 54.876 44.8207 54.876C42.5167 54.876 40.6607 60.892 40.3407 62.748ZM60.6282 64.604C59.0282 64.604 59.0282 62.556 59.0282 61.468C59.0282 60.124 60.0522 54.428 60.6282 53.404C60.8842 53.02 61.2042 52.892 61.6522 52.892C62.1642 52.956 62.5482 53.404 62.5482 53.916C62.5482 56.476 61.0762 58.844 61.0762 61.468V61.852C62.1002 61.916 66.1962 53.852 67.4762 53.98C67.9242 53.98 68.3082 54.492 68.3082 54.94C68.3082 56.604 67.9242 58.204 67.9242 59.868C67.9242 60.316 67.9242 62.684 68.6922 62.684C70.8042 62.684 75.0282 56.86 75.9882 56.924C76.2442 56.924 76.5002 57.18 76.5002 57.436C75.4762 59.612 70.8682 64.668 68.3722 64.54C65.4282 64.284 65.9402 60.828 65.6202 59.1C64.8522 60.188 61.9082 64.604 60.6282 64.604ZM83.4897 71.004C81.4417 71.004 81.1857 68.508 81.1857 66.972C81.1857 64.54 81.8257 62.108 82.2097 59.74C80.4177 58.78 75.7457 59.548 75.7457 56.54C75.7457 55.324 76.7697 53.148 78.1777 53.148C79.0097 53.148 79.4577 53.852 79.4577 54.62C79.4577 55.452 78.9457 56.156 78.6257 56.86C79.3297 57.692 84.1937 56.668 84.1937 60.188C84.1937 62.94 83.1697 65.628 83.1697 68.38C83.1697 68.7 83.2337 69.02 83.4897 69.276C85.9857 68.7 94.0497 57.052 94.7537 57.052C95.0097 57.052 95.2017 57.308 95.2017 57.564C95.2017 59.356 85.5377 71.004 83.4897 71.004ZM110.716 67.932C109.244 67.932 108.988 66.332 109.116 65.244C109.5 62.044 109.18 60.828 109.948 58.332C109.692 58.46 109.5 58.716 109.308 58.908C106.492 62.044 102.396 66.716 97.8522 66.716C95.1002 66.716 93.9482 64.604 93.9482 62.108C93.9482 59.676 96.4442 52.38 99.3882 52.38C100.348 52.38 100.988 53.212 100.988 54.108C100.988 56.284 98.3002 60.252 96.1882 60.892C96.0602 61.404 95.9962 61.916 95.9962 62.428C95.9962 63.836 96.2522 65.052 97.9802 65.052C104.316 65.052 110.46 53.276 112.124 53.276C112.892 53.276 113.276 54.172 113.276 54.812C113.276 56.22 112.764 57.628 112.508 58.972C112.124 60.828 111.932 62.684 111.676 64.54L111.74 64.732C113.66 61.724 117.436 54.3 119.612 54.3C122.748 54.3 120.188 64.156 123.004 64.156C126.524 64.156 132.028 56.86 132.604 56.86C132.988 56.86 133.18 57.18 133.18 57.5C133.18 59.996 125.564 66.012 123.068 66.012C119.1 66.012 119.42 59.868 118.972 57.564C117.116 58.78 114.172 64.988 112.252 67.228C111.868 67.676 111.356 67.932 110.716 67.932ZM96.8922 58.652C97.6602 57.948 99.2602 55.708 99.2602 54.62V54.428C98.0442 55.388 97.2122 57.18 96.7002 58.588L96.8922 58.652ZM186.55 76.7C185.846 76.7 185.718 75.804 185.654 75.356C185.526 74.716 185.526 74.14 185.526 73.564C185.526 72.604 185.59 71.58 185.654 70.492C181.942 70.492 176.694 69.34 176.694 64.604C176.694 59.1 184.246 55.516 188.086 53.02C186.23 52.444 181.11 51.292 181.11 48.668C181.11 45.66 186.678 43.676 188.982 42.908C189.046 42.012 189.11 38.172 190.134 38.172C190.582 38.172 190.838 38.62 190.838 39.004C190.966 40.156 190.71 41.244 190.646 42.46C191.478 42.396 192.374 42.204 193.206 42.204C194.23 42.204 197.046 42.396 197.174 43.868V44.06C197.174 44.38 196.854 44.892 196.47 44.892C196.022 44.892 195.894 44.38 195.766 44.06C195.382 43.868 194.998 43.868 194.614 43.868C193.142 43.868 191.734 43.932 190.454 44.444C190.454 44.892 190.326 45.724 189.814 45.724C189.366 45.724 189.174 45.276 188.982 44.892C187.638 45.084 182.454 47.324 182.774 48.732C182.966 50.524 190.774 50.588 191.158 53.02C191.158 53.148 191.222 53.212 191.222 53.34C191.222 53.788 191.03 54.236 190.646 54.364C188.278 55.388 185.654 56.86 183.35 58.524C182.07 59.548 180.854 60.7 179.894 62.108C179.318 62.94 178.678 64.156 178.87 65.372C179.126 67.036 181.494 67.868 182.966 68.252C183.478 68.316 183.926 68.38 184.374 68.38C184.886 68.38 185.462 68.316 186.102 68.252C186.23 67.74 186.614 66.716 187.318 66.716C187.766 66.716 188.15 67.164 188.15 67.548V67.868C191.99 66.972 196.022 65.756 199.542 64.22C199.862 64.092 200.246 63.9 200.502 63.9C200.886 63.9 201.27 64.092 201.27 64.476C201.526 66.14 189.878 69.468 187.958 70.044C187.574 72.092 187.638 74.268 187.126 76.252C186.998 76.572 186.934 76.7 186.55 76.7ZM286.99 96.284C280.014 96.284 266.766 93.276 266.766 84.316C266.766 76.06 278.478 69.212 285.198 66.332C286.542 65.756 288.142 65.18 289.614 64.54C289.998 61.148 290.254 59.228 290.574 56.54C290.894 54.3 291.086 51.996 291.406 49.756C292.302 42.268 293.07 34.78 294.286 27.356C294.542 25.948 295.63 18.332 296.078 17.564C296.206 17.372 296.462 17.244 296.718 17.244C297.614 17.244 297.934 17.948 297.87 18.652C297.614 23.132 296.654 27.676 296.078 32.092C295.118 39.708 294.222 47.324 293.326 54.94C292.942 57.692 292.494 60.636 292.238 63.388C296.27 62.236 300.366 60.828 304.462 59.868C316.494 56.924 329.678 55.132 342.094 54.94C342.862 52.188 343.374 48.476 343.374 45.596C343.374 40.476 342.286 35.292 340.046 30.62C332.622 14.812 317.326 10.204 300.942 10.204C280.718 10.204 255.886 18.524 244.11 35.868C242.19 38.684 240.526 42.268 240.526 45.724C240.526 48.86 242.51 51.164 244.814 53.084L245.006 53.276C245.006 53.66 244.942 54.236 244.43 54.236C243.086 54.236 240.846 51.548 240.142 50.524C239.31 49.244 239.054 48.604 238.798 47.196C238.67 46.684 238.67 46.044 238.67 45.532C238.67 41.244 241.23 36.444 243.79 33.116C256.398 16.54 280.206 8.21999 300.558 8.21999C317.134 8.21999 332.878 12.316 341.198 27.996C344.014 33.244 345.678 39.26 345.678 45.148C345.678 46.812 345.55 48.604 345.294 50.268C345.166 51.804 344.974 53.468 344.59 54.94C346.766 54.94 360.078 55.004 360.078 57.692C360.078 57.884 359.886 58.204 359.63 58.204C358.99 58.204 358.478 57.82 357.902 57.692C355.342 56.988 352.526 57.116 349.838 56.924C348.878 56.86 347.918 56.86 346.958 56.86H344.078C342.35 61.468 340.302 66.204 337.422 70.236C326.35 85.788 306.062 96.284 286.99 96.284ZM287.374 94.364C300.494 94.364 315.854 88.028 325.966 79.836C329.742 76.764 333.07 73.052 335.758 68.956C337.166 66.844 340.878 59.036 341.518 56.732C338.638 56.86 335.758 57.052 332.878 57.244C320.974 58.268 309.39 60.316 297.934 63.708C296.846 64.028 293.966 64.796 292.046 65.564C291.726 67.676 291.534 70.364 291.278 72.54C290.894 76.444 290.318 80.412 290.318 84.316V84.892C290.318 85.404 290.254 85.852 289.422 85.852C288.27 85.852 288.142 84.508 288.142 83.484C288.142 79.644 288.462 75.804 288.846 72.092C289.038 70.3 289.23 68.38 289.358 66.588C287.502 67.42 285.198 68.38 283.342 69.276C278.222 71.836 268.622 77.724 268.622 84.188C268.622 92.252 281.294 94.364 287.374 94.364ZM359.952 65.244C358.672 65.244 358.032 63.964 358.032 62.812C358.032 59.356 360.912 52.508 365.008 52.508C366.16 52.508 368.144 54.236 368.144 55.388C368.144 57.244 367.76 62.108 370.768 62.108C373.584 62.108 378.832 57.052 379.536 57.052C379.664 57.052 379.728 57.116 379.856 57.116C379.92 57.244 380.048 57.436 380.048 57.564C380.048 58.716 374.864 62.3 373.712 62.94C372.752 63.452 371.536 63.9 370.448 63.9C367.824 63.9 366.288 61.404 365.904 59.1C364.432 60.828 362.576 65.244 359.952 65.244ZM360.528 62.748C362.768 60.7 364.304 58.012 365.584 55.324C365.456 55.196 365.2 54.876 365.008 54.876C362.704 54.876 360.848 60.892 360.528 62.748ZM383.247 67.612C380.303 67.612 379.791 63.772 379.791 61.532C379.791 60.188 380.303 53.02 381.903 53.02C382.287 53.02 382.671 53.276 382.671 53.724C382.671 56.284 381.903 58.716 381.903 61.276C381.903 62.172 381.903 65.564 383.247 65.564C384.079 65.564 384.975 64.604 385.487 64.028C388.303 60.828 390.479 55.452 390.479 51.228C390.479 49.884 389.391 45.532 387.663 45.532C387.343 45.532 387.151 45.724 386.831 45.724C386.511 45.724 386.255 45.468 386.255 45.148C386.255 44.444 387.151 43.868 387.791 43.868C389.199 43.868 390.671 45.66 391.311 46.748C392.079 47.964 392.207 49.116 392.207 50.524C392.207 54.876 388.687 67.612 383.247 67.612ZM398.768 66.716C395.696 66.716 394.224 64.156 394.224 61.404C394.224 60.252 395.184 55.644 396.528 54.236C396.784 53.98 397.168 53.98 397.424 53.98C398.192 53.98 398.576 54.428 398.576 55.132C398.576 55.516 398.512 55.9 398.384 56.348C397.936 58.204 396.72 60.7 396.72 62.3C396.72 63.708 397.36 64.924 398.96 64.924C402.672 64.924 408.368 59.484 410.736 56.796C411.056 56.86 411.376 57.116 411.376 57.436C411.376 58.268 410.48 59.1 409.968 59.74C407.6 62.556 402.736 66.716 398.768 66.716ZM398.64 51.484C397.808 51.42 397.104 50.972 397.104 50.076C397.104 48.988 397.296 46.94 398.768 47.004C399.408 47.004 400.24 48.54 400.24 49.116C400.24 50.076 399.792 51.484 398.64 51.484ZM426.842 68.188C420.698 68.188 420.57 61.404 419.93 57.116C419.29 56.988 418.97 56.348 418.778 55.836C417.434 58.076 414.554 66.908 411.546 66.908C409.754 66.908 409.562 64.796 409.562 63.58C409.562 59.612 412.122 52.252 416.858 52.252C417.434 52.252 417.946 52.444 418.458 52.508C419.098 51.74 420.442 48.348 420.634 47.324C421.21 44.124 421.658 40.86 422.426 37.724C422.938 35.676 426.01 25.18 428.25 25.18C428.826 25.18 429.402 25.756 429.402 26.332C429.402 30.812 425.05 40.924 423.194 45.276C422.106 47.772 421.786 53.02 421.786 55.9C421.786 59.356 421.786 66.332 426.714 66.716C430.746 67.036 436.826 60.508 438.938 57.692C439.258 57.308 439.45 56.924 439.578 56.668L439.898 56.604L440.218 56.732L440.346 57.18C440.346 57.564 440.09 58.14 439.642 58.78C437.146 62.428 431.322 68.188 426.842 68.188ZM411.802 63.9C412.89 63.388 417.434 55.772 417.434 54.492C414.298 54.236 411.994 60.38 411.866 62.94C411.866 63.26 411.866 63.58 411.802 63.9ZM419.802 53.66L419.994 53.596V53.212H419.866L419.738 53.404L419.802 53.66ZM425.05 36.188C425.562 34.396 426.714 31.836 426.842 30.172C426.522 30.684 424.858 35.612 424.858 36.188V36.444L425.05 36.188Z" fill="#4B6CFF"/>
<path d="M11.5822 74.588L11.658 74.7731L11.6583 74.7729L11.5822 74.588ZM22.1422 72.476L22.1533 72.6757L22.296 72.6678L22.3347 72.5301L22.1422 72.476ZM23.8702 66.396L23.6767 66.3453L23.6761 66.3475L23.8702 66.396ZM32.1262 26.524L31.9305 26.4825L31.9301 26.4844L32.1262 26.524ZM35.6462 21.788L35.45 21.7488L35.4495 21.7514L35.6462 21.788ZM33.9822 30.044L34.1785 30.0819L34.1788 30.0806L33.9822 30.044ZM24.6382 72.54L24.4458 72.4853L24.3802 72.716L24.6189 72.7391L24.6382 72.54ZM63.1662 82.78L63.104 82.9701L63.1046 82.9703L63.1662 82.78ZM62.7822 84.764L62.8417 84.5731L62.841 84.5728L62.7822 84.764ZM27.5182 75.164L27.5432 74.9655L27.5391 74.9651L27.5182 75.164ZM23.9342 74.908V74.708H23.7923L23.7454 74.8419L23.9342 74.908ZM21.1822 82.46L20.9978 82.3824L20.9961 82.3865L21.1822 82.46ZM10.3662 96.028L10.2384 95.8741L10.237 95.8753L10.3662 96.028ZM18.7502 82.396L18.9355 82.4712L18.9368 82.4678L18.7502 82.396ZM21.5022 74.844L21.6898 74.9131L21.7996 74.6152L21.4835 74.6449L21.5022 74.844ZM5.37416 82.14L5.20866 82.0277L5.20839 82.0281L5.37416 82.14ZM7.10216 99.284C4.94841 99.284 3.34069 98.0878 2.26247 96.408C1.18172 94.7242 0.646155 92.5707 0.646155 90.716H0.246155C0.246155 92.6373 0.798588 94.8678 1.92584 96.624C3.05562 98.3842 4.7759 99.684 7.10216 99.684V99.284ZM0.646155 90.716C0.646155 83.8276 5.32701 77.3688 11.658 74.7731L11.5063 74.4029C5.0373 77.0552 0.246155 83.6524 0.246155 90.716H0.646155ZM11.6583 74.7729C14.8931 73.441 18.708 72.8671 22.1533 72.6757L22.1311 72.2763C18.6643 72.4689 14.7992 73.047 11.506 74.4031L11.6583 74.7729ZM22.3347 72.5301C22.9077 70.4929 23.5515 68.4951 24.0642 66.4445L23.6761 66.3475C23.1648 68.3929 22.5287 70.3631 21.9496 72.4219L22.3347 72.5301ZM24.0636 66.4467C27.5215 53.2556 29.6365 39.8643 32.3222 26.5636L31.9301 26.4844C29.2398 39.8077 27.1308 53.1684 23.6767 66.3453L24.0636 66.4467ZM32.3218 26.5655C32.5463 25.5072 33.2971 21.8012 34.2075 18.3591C34.663 16.6372 35.1565 14.9886 35.6419 13.7732C35.8851 13.1642 36.1224 12.6737 36.347 12.3387C36.4594 12.1711 36.5633 12.0506 36.6563 11.9739C36.75 11.8967 36.8175 11.876 36.8622 11.876V11.476C36.6908 11.476 36.5358 11.5548 36.4019 11.6652C36.2674 11.7761 36.1386 11.9313 36.0148 12.116C35.7669 12.4858 35.5172 13.0068 35.2704 13.6248C34.7758 14.8634 34.2773 16.5308 33.8208 18.2569C32.9072 21.7108 32.154 25.4288 31.9305 26.4825L32.3218 26.5655ZM36.8622 11.876C37.0347 11.876 37.1589 11.8841 37.2503 11.9022C37.3403 11.92 37.3826 11.9446 37.4057 11.9662C37.4275 11.9865 37.4508 12.0214 37.4681 12.098C37.486 12.1777 37.4942 12.2877 37.4942 12.444H37.8942C37.8942 12.2803 37.8863 12.1343 37.8583 12.01C37.8295 11.8826 37.7768 11.7654 37.6786 11.6738C37.5818 11.5834 37.4601 11.536 37.328 11.5098C37.1974 11.4839 37.0416 11.476 36.8622 11.476V11.876ZM37.4942 12.444C37.4942 13.8871 37.1328 15.4808 36.6932 17.0872C36.2566 18.6829 35.7398 20.2998 35.45 21.7488L35.8423 21.8272C36.1285 20.3962 36.6357 18.8131 37.0791 17.1928C37.5195 15.5832 37.8942 13.9449 37.8942 12.444H37.4942ZM35.4495 21.7514C35.194 23.1248 34.9065 24.4987 34.6184 25.875C34.3305 27.2507 34.042 28.6288 33.7855 30.0074L34.1788 30.0806C34.4343 28.7071 34.7218 27.3333 35.0099 25.957C35.2978 24.5813 35.5863 23.2031 35.8428 21.8246L35.4495 21.7514ZM33.7858 30.0061C31.0332 44.2813 28.4109 58.5435 24.4458 72.4853L24.8305 72.5947C28.8014 58.6325 31.4272 44.3507 34.1785 30.0819L33.7858 30.0061ZM24.6189 72.7391C38.4786 74.0803 49.9692 78.6773 63.104 82.9701L63.2283 82.5899C50.1231 78.3067 38.5737 73.6877 24.6574 72.3409L24.6189 72.7391ZM63.1046 82.9703C80.3191 88.5378 100.571 94.436 118.718 94.436V94.036C100.642 94.036 80.4453 88.1582 63.2277 82.5897L63.1046 82.9703ZM118.718 94.436C120.283 94.436 123.328 94.4367 125.984 93.8635C127.311 93.5771 128.56 93.1437 129.482 92.4814C130.41 91.814 131.014 90.9066 131.014 89.692H130.614C130.614 90.7494 130.098 91.546 129.248 92.1566C128.392 92.7723 127.205 93.1909 125.9 93.4725C123.292 94.0353 120.289 94.036 118.718 94.036V94.436ZM131.014 89.692C131.014 89.0604 130.622 88.6087 130.285 88.2643C130.108 88.083 129.954 87.9384 129.835 87.7928C129.718 87.6479 129.67 87.5413 129.67 87.452H129.27C129.27 87.6827 129.391 87.8801 129.525 88.0452C129.659 88.2096 129.84 88.381 129.999 88.5437C130.335 88.8873 130.614 89.2356 130.614 89.692H131.014ZM129.67 87.452C129.67 87.3065 129.773 87.204 129.918 87.204V86.804C129.552 86.804 129.27 87.0855 129.27 87.452H129.67ZM129.918 87.204C130.149 87.204 130.383 87.3001 130.612 87.4772C130.841 87.6543 131.054 87.905 131.238 88.1918C131.608 88.7711 131.83 89.4539 131.83 89.884H132.23C132.23 89.3541 131.972 88.5969 131.575 87.9762C131.374 87.663 131.132 87.3737 130.857 87.1608C130.581 86.9479 130.263 86.804 129.918 86.804V87.204ZM131.83 89.884C131.83 91.2776 131.267 92.3454 130.351 93.1726C129.43 94.0052 128.148 94.5962 126.718 95.012C123.859 95.8435 120.476 95.956 118.398 95.956V96.356C120.481 96.356 123.913 96.2445 126.83 95.396C128.289 94.9718 129.635 94.3588 130.619 93.4694C131.61 92.5746 132.23 91.4024 132.23 89.884H131.83ZM118.398 95.956C100.641 95.956 79.8699 89.8864 62.8417 84.5731L62.7226 84.9549C79.7424 90.2656 100.571 96.356 118.398 96.356V95.956ZM62.841 84.5728C51.2122 80.9947 39.7261 76.5045 27.5432 74.9656L27.4931 75.3624C39.6302 76.8955 51.0562 81.3653 62.7233 84.9552L62.841 84.5728ZM27.5391 74.9651C26.3253 74.8373 25.0986 74.708 23.9342 74.708V75.108C25.0738 75.108 26.279 75.2347 27.4972 75.3629L27.5391 74.9651ZM23.7454 74.8419C22.8473 77.4078 22.0187 79.9579 20.9978 82.3824L21.3665 82.5376C22.3937 80.0981 23.229 77.5282 24.1229 74.9741L23.7454 74.8419ZM20.9961 82.3865C19.9746 84.9723 18.0769 89.2129 15.6328 92.8035C14.4107 94.5989 13.0572 96.2237 11.6149 97.3979C10.1719 98.5726 8.65541 99.284 7.10216 99.284V99.684C8.7809 99.684 10.3844 98.9154 11.8674 97.7081C13.3511 96.5003 14.7296 94.8411 15.9635 93.0285C18.4314 89.4031 20.3417 85.1317 21.3682 82.5335L20.9961 82.3865ZM6.71816 97.572C7.29464 97.572 8.02342 97.4041 8.7074 97.1516C9.3915 96.8992 10.055 96.5532 10.4953 96.1807L10.237 95.8753C9.84527 96.2068 9.22881 96.5328 8.56891 96.7764C7.90889 97.02 7.22967 97.172 6.71816 97.172V97.572ZM10.4939 96.1819C12.4089 94.5915 14.0711 92.2636 15.476 89.7908C16.8823 87.3158 18.0381 84.6826 18.9355 82.4712L18.5648 82.3208C17.6702 84.5254 16.522 87.1402 15.1283 89.5932C13.7332 92.0484 12.0994 94.3285 10.2384 95.8741L10.4939 96.1819ZM18.9368 82.4678C19.897 79.9714 20.7966 77.3376 21.6898 74.9131L21.3145 74.7749C20.4157 77.2144 19.5233 79.8286 18.5635 82.3242L18.9368 82.4678ZM21.4835 74.6449C15.3374 75.2211 8.91281 76.569 5.20866 82.0277L5.53965 82.2523C9.13151 76.959 15.3789 75.6189 21.5208 75.0431L21.4835 74.6449ZM5.20839 82.0281C3.46128 84.6164 2.42216 87.5988 2.42216 90.716H2.82216C2.82216 87.6892 3.83103 84.7836 5.53992 82.2519L5.20839 82.0281ZM2.42216 90.716C2.42216 91.9251 2.71494 93.6194 3.38582 95.0185C4.05438 96.4127 5.13076 97.572 6.71816 97.572V97.172C5.36155 97.172 4.38993 96.1873 3.74649 94.8455C3.10537 93.5086 2.82216 91.8749 2.82216 90.716H2.42216ZM59.6687 57.116L59.8475 57.0266L59.7923 56.916H59.6687V57.116ZM53.5247 62.94L53.6188 63.1165L53.6218 63.1148L53.5247 62.94ZM45.7167 59.1L45.9139 59.0671L45.8432 58.643L45.5644 58.9703L45.7167 59.1ZM40.3407 62.748L40.1436 62.714L40.0443 63.29L40.4756 62.8956L40.3407 62.748ZM45.3967 55.324L45.5772 55.41L45.638 55.2825L45.5381 55.1826L45.3967 55.324ZM39.7647 65.044C39.2015 65.044 38.7788 64.7662 38.4893 64.3465C38.1962 63.9215 38.0447 63.3548 38.0447 62.812H37.6447C37.6447 63.4212 37.8131 64.0705 38.16 64.5735C38.5106 65.0818 39.0478 65.444 39.7647 65.444V65.044ZM38.0447 62.812C38.0447 61.1261 38.7516 58.5841 39.9701 56.4636C41.195 54.332 42.8874 52.708 44.8207 52.708V52.308C42.6579 52.308 40.8623 54.108 39.6232 56.2644C38.3777 58.4319 37.6447 61.0419 37.6447 62.812H38.0447ZM44.8207 52.708C45.0636 52.708 45.3707 52.8008 45.7048 52.9736C46.0356 53.1448 46.3778 53.3865 46.6869 53.6647C46.9961 53.943 47.2672 54.2532 47.4594 54.5586C47.6537 54.8672 47.7567 55.1534 47.7567 55.388H48.1567C48.1567 55.0466 48.0116 54.6848 47.7979 54.3454C47.5822 54.0028 47.2852 53.665 46.9544 53.3673C46.6235 53.0695 46.2537 52.8072 45.8885 52.6184C45.5266 52.4312 45.1537 52.308 44.8207 52.308V52.708ZM47.7567 55.388C47.7567 56.2983 47.6595 58.0092 47.9443 59.482C48.087 60.2199 48.3293 60.9223 48.7453 61.4437C49.1686 61.9742 49.7652 62.308 50.5807 62.308V61.908C49.8921 61.908 49.4087 61.6338 49.058 61.1943C48.7 60.7457 48.4743 60.1161 48.337 59.406C48.0618 57.9828 48.1567 56.3337 48.1567 55.388H47.7567ZM50.5807 62.308C51.3355 62.308 52.2276 61.9723 53.1329 61.4949C54.0442 61.0145 54.995 60.3761 55.8737 59.7422C56.7508 59.1094 57.5675 58.4724 58.1973 58.0023C58.5145 57.7655 58.7832 57.5718 58.993 57.4378C59.098 57.3707 59.184 57.3213 59.2511 57.2894C59.3253 57.254 59.3524 57.252 59.3487 57.252V56.852C59.2569 56.852 59.1605 56.8895 59.0791 56.9282C58.9906 56.9703 58.8889 57.0296 58.7776 57.1007C58.5546 57.2432 58.2758 57.4445 57.958 57.6817C57.3178 58.1596 56.5145 58.7866 55.6396 59.4178C54.7663 60.0479 53.8331 60.6735 52.9464 61.1411C52.0538 61.6117 51.2339 61.908 50.5807 61.908V62.308ZM59.3487 57.252C59.377 57.252 59.3975 57.2578 59.4454 57.2737C59.4935 57.2898 59.569 57.316 59.6687 57.316V56.916C59.6403 56.916 59.6198 56.9102 59.5719 56.8943C59.5238 56.8782 59.4483 56.852 59.3487 56.852V57.252ZM59.4898 57.2054C59.508 57.242 59.5304 57.2822 59.5506 57.3187C59.5717 57.357 59.5919 57.3936 59.6098 57.4294C59.6278 57.4655 59.6415 57.4966 59.6504 57.5227C59.6548 57.5356 59.6575 57.5457 59.6591 57.5533C59.6607 57.561 59.6607 57.5643 59.6607 57.564H60.0607C60.0607 57.4477 60.007 57.3294 59.9675 57.2506C59.9455 57.2064 59.9216 57.163 59.9007 57.1253C59.8789 57.0858 59.8613 57.054 59.8475 57.0266L59.4898 57.2054ZM59.6607 57.564C59.6607 57.6438 59.6107 57.7828 59.4708 57.9862C59.3364 58.1818 59.1386 58.4092 58.8907 58.6591C58.3955 59.1583 57.7192 59.7282 57.0019 60.2861C55.5661 61.4029 53.9911 62.4521 53.4275 62.7652L53.6218 63.1148C54.2102 62.7879 55.8032 61.7251 57.2474 60.6019C57.9701 60.0398 58.6618 59.4577 59.1746 58.9409C59.4307 58.6828 59.6469 58.4362 59.8005 58.2128C59.9486 57.9972 60.0607 57.7722 60.0607 57.564H59.6607ZM53.4305 62.7635C52.4834 63.2687 51.3014 63.7 50.2607 63.7V64.1C51.3959 64.1 52.646 63.6353 53.6188 63.1165L53.4305 62.7635ZM50.2607 63.7C49.0197 63.7 48.0325 63.1122 47.3023 62.236C46.5693 61.3564 46.1013 60.1913 45.9139 59.0671L45.5194 59.1329C45.716 60.3127 46.208 61.5476 46.995 62.492C47.7848 63.4398 48.8776 64.1 50.2607 64.1V63.7ZM45.5644 58.9703C45.186 59.4145 44.7867 60.0266 44.3664 60.6809C43.943 61.34 43.495 62.0476 43.0118 62.7011C42.5283 63.3551 42.0169 63.9445 41.4717 64.3692C40.9274 64.7933 40.3617 65.044 39.7647 65.044V65.444C40.4796 65.444 41.1299 65.1427 41.7176 64.6848C42.3044 64.2275 42.841 63.6049 43.3335 62.9389C43.8263 62.2724 44.2823 61.552 44.7029 60.8971C45.1266 60.2374 45.5113 59.6495 45.8689 59.2297L45.5644 58.9703ZM40.4756 62.8956C42.7448 60.8209 44.2942 58.1044 45.5772 55.41L45.2161 55.238C43.9392 57.9196 42.4165 60.579 40.2057 62.6004L40.4756 62.8956ZM45.5381 55.1826C45.5091 55.1536 45.4741 55.115 45.4256 55.0632C45.3797 55.0143 45.3257 54.958 45.2683 54.905C45.2116 54.8527 45.1464 54.7986 45.077 54.7568C45.0104 54.7165 44.9212 54.676 44.8207 54.676V55.076C44.8161 55.076 44.8309 55.0755 44.8703 55.0992C44.907 55.1214 44.9497 55.1553 44.997 55.199C45.0436 55.242 45.0896 55.2897 45.1337 55.3368C45.1752 55.381 45.2202 55.4304 45.2552 55.4654L45.5381 55.1826ZM44.8207 54.676C44.1553 54.676 43.5564 55.1082 43.0411 55.7156C42.5211 56.3287 42.0542 57.1574 41.6547 58.033C40.8556 59.7845 40.3065 61.769 40.1436 62.714L40.5377 62.782C40.6948 61.871 41.2337 59.9195 42.0186 58.199C42.4112 57.3386 42.8602 56.5473 43.3462 55.9744C43.8369 55.3958 44.3341 55.076 44.8207 55.076V54.676ZM60.6282 53.404L60.4617 53.2931L60.4576 53.2994L60.4538 53.3059L60.6282 53.404ZM61.6522 52.892L61.677 52.6935L61.6646 52.692H61.6522V52.892ZM61.0762 61.852H60.8762V62.0399L61.0637 62.0516L61.0762 61.852ZM67.4762 53.98L67.4563 54.179L67.4662 54.18H67.4762V53.98ZM75.9882 56.924L75.9748 57.124H75.9882V56.924ZM76.5002 57.436L76.6811 57.5212L76.7002 57.4807V57.436H76.5002ZM68.3722 64.54L68.3548 64.7394L68.3619 64.7397L68.3722 64.54ZM65.6202 59.1L65.8168 59.0636L65.7304 58.597L65.4568 58.9847L65.6202 59.1ZM60.6282 64.404C60.2753 64.404 60.0249 64.2929 59.8393 64.1205C59.649 63.9437 59.5133 63.6897 59.4193 63.385C59.2297 62.7709 59.2282 62.0182 59.2282 61.468H58.8282C58.8282 62.0058 58.8266 62.8211 59.0371 63.503C59.143 63.8463 59.3073 64.1723 59.567 64.4135C59.8314 64.6591 60.181 64.804 60.6282 64.804V64.404ZM59.2282 61.468C59.2282 60.818 59.48 59.0765 59.8086 57.3535C59.9722 56.4959 60.1533 55.65 60.329 54.9561C60.5072 54.2525 60.6737 53.731 60.8025 53.5021L60.4538 53.3059C60.2946 53.589 60.1171 54.1635 59.9413 54.8579C59.763 55.562 59.5802 56.4161 59.4157 57.2785C59.0883 58.9955 58.8282 60.774 58.8282 61.468H59.2282ZM60.7946 53.5149C60.906 53.3478 61.0239 53.2466 61.1541 53.1846C61.2865 53.1215 61.4464 53.092 61.6522 53.092V52.692C61.4099 52.692 61.1858 52.7265 60.9822 52.8234C60.7764 52.9214 60.6064 53.0761 60.4617 53.2931L60.7946 53.5149ZM61.6273 53.0905C62.0366 53.1416 62.3482 53.5022 62.3482 53.916H62.7482C62.7482 53.3058 62.2917 52.7704 61.677 52.6935L61.6273 53.0905ZM62.3482 53.916C62.3482 55.1619 61.99 56.3657 61.6204 57.6111C61.2537 58.8467 60.8762 60.1223 60.8762 61.468H61.2762C61.2762 60.1897 61.6346 58.9693 62.0039 57.7249C62.3703 56.4903 62.7482 55.2301 62.7482 53.916H62.3482ZM60.8762 61.468V61.852H61.2762V61.468H60.8762ZM61.0637 62.0516C61.191 62.0596 61.3113 62.0048 61.4107 61.9411C61.5145 61.8745 61.6233 61.7799 61.7346 61.6678C61.9577 61.443 62.2136 61.1242 62.4893 60.7495C63.0412 59.9992 63.693 58.9952 64.3472 58.002C65.004 57.0048 65.6634 56.0179 66.2373 55.2887C66.5247 54.9235 66.7849 54.6304 67.0078 54.4343C67.1192 54.3362 67.2157 54.2675 67.2965 54.2257C67.3789 54.183 67.4297 54.1763 67.4563 54.179L67.4961 53.781C67.3627 53.7677 67.2315 53.809 67.1127 53.8704C66.9924 53.9326 66.8686 54.0239 66.7435 54.134C66.4934 54.3541 66.2156 54.6695 65.923 55.0413C65.3369 55.7861 64.6683 56.7872 64.0131 57.782C63.3553 58.7808 62.7111 59.7728 62.167 60.5125C61.8947 60.8828 61.6526 61.1825 61.4507 61.386C61.3495 61.488 61.264 61.56 61.1947 61.6044C61.1605 61.6264 61.1338 61.6392 61.1143 61.6461C61.0947 61.653 61.0872 61.6523 61.0886 61.6524L61.0637 62.0516ZM67.4762 54.18C67.6222 54.18 67.7785 54.2651 67.906 54.4194C68.0329 54.573 68.1082 54.7692 68.1082 54.94H68.5082C68.5082 54.6628 68.3914 54.379 68.2143 54.1646C68.0378 53.9509 67.7781 53.78 67.4762 53.78V54.18ZM68.1082 54.94C68.1082 55.7584 68.0137 56.5628 67.9175 57.3806C67.8217 58.1948 67.7242 59.0224 67.7242 59.868H68.1242C68.1242 59.0496 68.2186 58.2452 68.3148 57.4274C68.4106 56.6132 68.5082 55.7856 68.5082 54.94H68.1082ZM67.7242 59.868C67.7242 60.0916 67.7239 60.8091 67.8223 61.4733C67.8712 61.8034 67.9466 62.1365 68.0673 62.3923C68.1835 62.6387 68.3779 62.884 68.6922 62.884V62.484C68.6224 62.484 68.5288 62.4333 68.429 62.2217C68.3337 62.0195 68.2651 61.7326 68.218 61.4147C68.1244 60.7829 68.1242 60.0924 68.1242 59.868H67.7242ZM68.6922 62.884C68.9995 62.884 69.3285 62.7789 69.6618 62.6129C69.9971 62.4459 70.3504 62.2104 70.7102 61.9335C71.4294 61.3798 72.1933 60.6457 72.914 59.921C73.6396 59.1914 74.3163 58.4767 74.8781 57.9418C75.1584 57.675 75.4026 57.4602 75.6029 57.3151C75.7032 57.2426 75.7873 57.1912 75.8555 57.1595C75.9269 57.1263 75.9636 57.1228 75.9749 57.1236L76.0015 56.7244C75.8927 56.7172 75.7839 56.7517 75.6869 56.7968C75.5868 56.8433 75.4796 56.9106 75.3684 56.9911C75.1457 57.1523 74.886 57.382 74.6022 57.6522C74.036 58.1913 73.3448 58.9206 72.6303 59.639C71.9111 60.3623 71.1629 61.0802 70.4662 61.6165C70.1179 61.8846 69.7873 62.1036 69.4835 62.2548C69.1779 62.4071 68.9128 62.484 68.6922 62.484V62.884ZM75.9882 57.124C76.0511 57.124 76.1308 57.1575 76.1987 57.2254C76.2667 57.2934 76.3002 57.373 76.3002 57.436H76.7002C76.7002 57.243 76.6056 57.0666 76.4816 56.9426C76.3575 56.8185 76.1812 56.724 75.9882 56.724V57.124ZM76.3192 57.3508C75.8222 58.4069 74.434 60.195 72.85 61.7073C72.0603 62.4614 71.2296 63.1393 70.4466 63.6195C69.657 64.1037 68.9443 64.3691 68.3824 64.3403L68.3619 64.7397C69.048 64.7749 69.8473 64.4563 70.6557 63.9605C71.4708 63.4607 72.3241 62.7626 73.1263 61.9967C74.7263 60.469 76.1541 58.6411 76.6811 57.5212L76.3192 57.3508ZM68.3895 64.3408C67.6963 64.2805 67.2233 64.0348 66.8895 63.6866C66.5516 63.3341 66.3415 62.861 66.2061 62.3232C66.0707 61.7852 66.0135 61.1982 65.9706 60.628C65.9283 60.066 65.8994 59.5095 65.8168 59.0636L65.4235 59.1364C65.5009 59.5545 65.528 60.078 65.5717 60.658C65.6148 61.2298 65.6737 61.8468 65.8182 62.4208C65.9628 62.995 66.1967 63.5419 66.6008 63.9634C67.009 64.3892 67.576 64.6715 68.3548 64.7392L68.3895 64.3408ZM65.4568 58.9847C65.0695 59.5334 64.147 60.9012 63.16 62.1351C62.6663 62.7521 62.1617 63.329 61.7047 63.7499C61.476 63.9604 61.2642 64.1274 61.0756 64.2407C60.8836 64.3561 60.735 64.404 60.6282 64.404V64.804C60.8413 64.804 61.0647 64.7139 61.2817 64.5836C61.5021 64.4511 61.7363 64.2646 61.9756 64.0441C62.4546 63.603 62.974 63.0079 63.4723 62.3849C64.4693 61.1387 65.4029 59.7546 65.7836 59.2153L65.4568 58.9847ZM82.2097 59.74L82.4071 59.772L82.4299 59.6311L82.3041 59.5637L82.2097 59.74ZM78.6257 56.86L78.4436 56.7772L78.3912 56.8925L78.473 56.9892L78.6257 56.86ZM83.4897 69.276L83.3482 69.4174L83.4266 69.4958L83.5346 69.4709L83.4897 69.276ZM83.4897 70.804C83.0219 70.804 82.6675 70.6628 82.3931 70.4359C82.1152 70.2061 81.9079 69.8787 81.7558 69.491C81.4502 68.7115 81.3857 67.735 81.3857 66.972H80.9857C80.9857 67.745 81.0491 68.7845 81.3835 69.637C81.5514 70.0653 81.7921 70.4579 82.1382 70.7441C82.4878 71.0332 82.9334 71.204 83.4897 71.204V70.804ZM81.3857 66.972C81.3857 64.5613 82.0188 62.1665 82.4071 59.772L82.0122 59.708C81.6325 62.0495 80.9857 64.5187 80.9857 66.972H81.3857ZM82.3041 59.5637C81.8227 59.3058 81.1631 59.1702 80.4751 59.0605C79.7733 58.9486 79.0372 58.863 78.3483 58.7126C77.6605 58.5624 77.0568 58.3541 76.6272 58.0167C76.209 57.6883 75.9457 57.2301 75.9457 56.54H75.5457C75.5457 57.3539 75.8663 57.9277 76.3801 58.3313C76.8825 58.7259 77.5588 58.9496 78.263 59.1034C78.9661 59.257 79.734 59.3474 80.4122 59.4555C81.1042 59.5658 81.7006 59.6942 82.1152 59.9163L82.3041 59.5637ZM75.9457 56.54C75.9457 55.9764 76.1871 55.1645 76.6036 54.4935C77.0246 53.8151 77.5803 53.348 78.1777 53.348V52.948C77.367 52.948 76.7067 53.5689 76.2637 54.2825C75.8162 55.0035 75.5457 55.8876 75.5457 56.54H75.9457ZM78.1777 53.348C78.5308 53.348 78.7938 53.4947 78.973 53.7204C79.156 53.9508 79.2577 54.2725 79.2577 54.62H79.6577C79.6577 54.1995 79.5353 53.7852 79.2863 53.4716C79.0335 53.1533 78.6565 52.948 78.1777 52.948V53.348ZM79.2577 54.62C79.2577 54.9947 79.1425 55.3484 78.9797 55.7049C78.8983 55.8833 78.8068 56.0586 78.7134 56.2374C78.6209 56.4144 78.5262 56.5954 78.4436 56.7772L78.8077 56.9428C78.8851 56.7726 78.9744 56.6016 79.0679 56.4226C79.1605 56.2454 79.257 56.0607 79.3436 55.8711C79.5168 55.4916 79.6577 55.0773 79.6577 54.62H79.2577ZM78.473 56.9892C78.6004 57.1397 78.8013 57.2283 79.011 57.2895C79.2264 57.3524 79.4866 57.396 79.7655 57.4341C80.3333 57.5119 80.9891 57.5696 81.6305 57.7113C82.2701 57.8525 82.8609 58.0711 83.2903 58.45C83.711 58.8211 83.9937 59.3608 83.9937 60.188H84.3937C84.3937 59.2552 84.0683 58.6029 83.555 58.15C83.0504 57.7049 82.3812 57.4675 81.7168 57.3207C81.0542 57.1744 80.362 57.1121 79.8198 57.0378C79.5437 57 79.3084 56.9596 79.1231 56.9055C78.932 56.8497 78.827 56.7883 78.7783 56.7308L78.473 56.9892ZM83.9937 60.188C83.9937 61.5422 83.7417 62.8838 83.4851 64.247C83.2297 65.6038 82.9697 66.9822 82.9697 68.38H83.3697C83.3697 67.0258 83.6216 65.6842 83.8782 64.321C84.1336 62.9642 84.3937 61.5858 84.3937 60.188H83.9937ZM82.9697 68.38C82.9697 68.7254 83.0389 69.1081 83.3482 69.4174L83.6311 69.1346C83.4284 68.9319 83.3697 68.6746 83.3697 68.38H82.9697ZM83.5346 69.4709C83.8944 69.3878 84.3238 69.1166 84.7874 68.7407C85.2575 68.3595 85.7867 67.8504 86.3484 67.261C87.4723 66.0818 88.7405 64.5666 89.9491 63.0739C90.5537 62.3271 91.1442 61.5849 91.6949 60.8924C92.2459 60.1994 92.7567 59.5566 93.2029 59.0071C93.6497 58.4569 94.029 58.0036 94.3174 57.6887C94.4621 57.5308 94.58 57.4119 94.6697 57.3339C94.7149 57.2947 94.7483 57.2699 94.771 57.2559C94.801 57.2376 94.79 57.252 94.7537 57.252V56.852C94.6733 56.852 94.604 56.8892 94.562 56.9149C94.5127 56.9451 94.4606 56.9858 94.4074 57.032C94.3004 57.1249 94.1705 57.2569 94.0224 57.4185C93.7253 57.7429 93.3396 58.2041 92.8924 58.7549C92.4446 59.3064 91.9324 59.9511 91.3819 60.6434C90.8311 61.3361 90.2416 62.0769 89.6382 62.8221C88.4308 64.3134 87.171 65.8182 86.0589 66.985C85.5026 67.5686 84.9868 68.064 84.5354 68.43C84.0775 68.8014 83.7089 69.0202 83.4447 69.0811L83.5346 69.4709ZM94.7537 57.252C94.8109 57.252 94.8701 57.2801 94.92 57.34C94.9708 57.401 95.0017 57.4839 95.0017 57.564H95.4017C95.4017 57.3881 95.3365 57.215 95.2273 57.084C95.1172 56.9519 94.9524 56.852 94.7537 56.852V57.252ZM95.0017 57.564C95.0017 57.6383 94.9748 57.7609 94.9062 57.9379C94.8392 58.1106 94.7387 58.3193 94.607 58.56C94.3436 59.041 93.9626 59.6364 93.4956 60.3055C92.5622 61.643 91.2944 63.2618 89.9614 64.8263C88.6282 66.391 87.2335 67.897 86.0468 69.0101C85.453 69.5671 84.9154 70.0219 84.4663 70.3361C84.2416 70.4933 84.0431 70.6124 83.8739 70.6916C83.7016 70.7722 83.575 70.804 83.4897 70.804V71.204C83.6603 71.204 83.8492 71.1448 84.0434 71.0539C84.2408 70.9616 84.4599 70.8287 84.6956 70.6639C85.1669 70.3341 85.7203 69.8649 86.3205 69.3019C87.5218 68.175 88.9271 66.657 90.2659 65.0857C91.6049 63.5142 92.8811 61.885 93.8237 60.5345C94.2947 59.8596 94.6847 59.251 94.9578 58.752C95.0943 58.5027 95.2035 58.2774 95.2791 58.0826C95.353 57.8921 95.4017 57.7137 95.4017 57.564H95.0017ZM109.116 65.244L108.918 65.2202L108.918 65.2206L109.116 65.244ZM109.948 58.332L110.139 58.3908L110.277 57.9441L109.859 58.1531L109.948 58.332ZM109.308 58.908L109.167 58.7664L109.159 58.7744L109.308 58.908ZM96.1882 60.892L96.1302 60.7006L96.0216 60.7335L95.9941 60.8435L96.1882 60.892ZM112.508 58.972L112.704 59.0125L112.705 59.0094L112.508 58.972ZM111.676 64.54L111.478 64.5127L111.472 64.5589L111.486 64.6032L111.676 64.54ZM111.74 64.732L111.55 64.7952L111.683 65.1932L111.909 64.8396L111.74 64.732ZM118.972 57.564L119.168 57.5258L119.112 57.2335L118.863 57.3967L118.972 57.564ZM112.252 67.228L112.404 67.3582L112.404 67.3582L112.252 67.228ZM96.8922 58.652L96.8289 58.8417L96.9406 58.879L97.0273 58.7994L96.8922 58.652ZM99.2602 54.428H99.4602V54.0153L99.1362 54.271L99.2602 54.428ZM96.7002 58.588L96.5122 58.5197L96.442 58.7128L96.6369 58.7777L96.7002 58.588ZM110.716 67.732C110.387 67.732 110.137 67.6432 109.945 67.5034C109.751 67.3622 109.605 67.1602 109.5 66.9166C109.287 66.4244 109.253 65.7914 109.315 65.2674L108.918 65.2206C108.851 65.7846 108.882 66.4956 109.133 67.0754C109.259 67.3678 109.445 67.6338 109.709 67.8266C109.976 68.0208 110.31 68.132 110.716 68.132V67.732ZM109.315 65.2678C109.508 63.6604 109.524 62.5433 109.588 61.5366C109.651 60.5308 109.761 59.6193 110.139 58.3908L109.757 58.2732C109.367 59.5407 109.253 60.4852 109.189 61.5114C109.124 62.5367 109.109 63.6276 108.918 65.2202L109.315 65.2678ZM109.859 58.1531C109.702 58.2313 109.572 58.3449 109.463 58.4546C109.408 58.5098 109.355 58.5666 109.306 58.6192C109.257 58.6729 109.211 58.7219 109.167 58.7666L109.45 59.0494C109.501 58.9981 109.552 58.9431 109.6 58.8908C109.649 58.8374 109.697 58.7862 109.746 58.7374C109.844 58.6391 109.938 58.5607 110.038 58.5109L109.859 58.1531ZM109.159 58.7744C107.749 60.3454 106.032 62.2842 104.103 63.832C102.172 65.3815 100.056 66.516 97.8522 66.516V66.916C100.192 66.916 102.396 65.7145 104.353 64.144C106.312 62.5718 108.052 60.6066 109.457 59.0416L109.159 58.7744ZM97.8522 66.516C96.534 66.516 95.6193 66.0137 95.028 65.2278C94.4305 64.4336 94.1482 63.3291 94.1482 62.108H93.7482C93.7482 63.3829 94.0419 64.5824 94.7083 65.4682C95.381 66.3623 96.4183 66.916 97.8522 66.916V66.516ZM94.1482 62.108C94.1482 61.5262 94.2989 60.6342 94.5771 59.6147C94.8544 58.5986 95.2546 57.4694 95.7454 56.4165C96.237 55.3619 96.8152 54.3933 97.445 53.6916C98.0788 52.9854 98.7367 52.58 99.3882 52.58V52.18C98.5676 52.18 97.8095 52.6866 97.1473 53.4244C96.4811 54.1667 95.8833 55.1741 95.3829 56.2475C94.8817 57.3226 94.4739 58.4734 94.1912 59.5093C93.9095 60.5418 93.7482 61.4738 93.7482 62.108H94.1482ZM99.3882 52.58C100.213 52.58 100.788 53.2965 100.788 54.108H101.188C101.188 53.1275 100.483 52.18 99.3882 52.18V52.58ZM100.788 54.108C100.788 54.6153 100.63 55.2437 100.35 55.9195C100.072 56.5925 99.6769 57.2999 99.216 57.9617C98.7551 58.6236 98.2309 59.2355 97.6951 59.7196C97.157 60.2057 96.6186 60.5526 96.1302 60.7006L96.2462 61.0834C96.8137 60.9114 97.4033 60.5223 97.9632 60.0164C98.5255 59.5085 99.0692 58.8724 99.5443 58.1903C100.019 57.5081 100.429 56.7755 100.72 56.0725C101.01 55.3723 101.188 54.6887 101.188 54.108H100.788ZM95.9941 60.8435C95.8623 61.3709 95.7962 61.8991 95.7962 62.428H96.1962C96.1962 61.9328 96.258 61.4371 96.3822 60.9405L95.9941 60.8435ZM95.7962 62.428C95.7962 63.134 95.8581 63.8385 96.1674 64.3688C96.4907 64.923 97.0611 65.252 97.9802 65.252V64.852C97.1712 64.852 96.7496 64.573 96.5129 64.1672C96.2623 63.7375 96.1962 63.13 96.1962 62.428H95.7962ZM97.9802 65.252C99.6254 65.252 101.239 64.4885 102.748 63.3728C104.259 62.2557 105.684 60.7706 106.956 59.2945C108.224 57.8219 109.356 56.3376 110.258 55.2431C110.712 54.6918 111.106 54.24 111.436 53.9271C111.601 53.7706 111.745 53.6541 111.867 53.5778C111.992 53.4994 112.075 53.476 112.124 53.476V53.076C111.965 53.076 111.805 53.1446 111.655 53.2387C111.501 53.3349 111.335 53.4714 111.161 53.6369C110.812 53.968 110.404 54.4362 109.949 54.9889C109.032 56.1024 107.92 57.5621 106.653 59.0335C105.388 60.5014 103.986 61.9603 102.51 63.0512C101.033 64.1435 99.5029 64.852 97.9802 64.852V65.252ZM112.124 53.476C112.418 53.476 112.651 53.6443 112.819 53.9108C112.989 54.18 113.076 54.5263 113.076 54.812H113.476C113.476 54.4577 113.371 54.036 113.157 53.6972C112.942 53.3557 112.598 53.076 112.124 53.076V53.476ZM113.076 54.812C113.076 55.4931 112.952 56.1796 112.793 56.8712C112.636 57.5535 112.44 58.259 112.312 58.9346L112.705 59.0094C112.832 58.341 113.02 57.6705 113.183 56.9608C113.344 56.2604 113.476 55.5389 113.476 54.812H113.076ZM112.312 58.9315C111.926 60.7962 111.733 62.6655 111.478 64.5127L111.874 64.5673C112.132 62.7025 112.322 60.8598 112.704 59.0125L112.312 58.9315ZM111.486 64.6032L111.55 64.7952L111.93 64.6688L111.866 64.4768L111.486 64.6032ZM111.909 64.8396C112.391 64.0836 112.99 63.0509 113.647 61.9344C114.304 60.8155 115.022 59.609 115.748 58.4973C116.474 57.3841 117.202 56.3735 117.881 55.6431C118.22 55.2779 118.541 54.9885 118.838 54.7916C119.137 54.5934 119.396 54.5 119.612 54.5V54.1C119.285 54.1 118.949 54.2386 118.617 54.4581C118.284 54.679 117.938 54.9931 117.588 55.3709C116.886 56.1265 116.143 57.1599 115.413 58.2787C114.682 59.399 113.96 60.6125 113.302 61.7316C112.642 62.8531 112.049 63.8764 111.572 64.6244L111.909 64.8396ZM119.612 54.5C119.943 54.5 120.192 54.6265 120.392 54.8551C120.599 55.0914 120.757 55.4426 120.876 55.8913C121.114 56.79 121.176 57.9985 121.228 59.2364C121.28 60.4602 121.322 61.7138 121.532 62.6593C121.637 63.1322 121.788 63.5503 122.02 63.8538C122.258 64.1665 122.582 64.356 123.004 64.356V63.956C122.722 63.956 122.51 63.8375 122.338 63.6112C122.158 63.3757 122.023 63.0238 121.922 62.5727C121.722 61.6702 121.68 60.4598 121.628 59.2196C121.576 57.9935 121.514 56.738 121.262 55.7887C121.136 55.3134 120.958 54.8946 120.693 54.5919C120.422 54.2815 120.065 54.1 119.612 54.1V54.5ZM123.004 64.356C123.946 64.356 124.991 63.8717 126.02 63.1821C127.054 62.4885 128.1 61.5671 129.047 60.6518C129.995 59.7362 130.851 58.8202 131.501 58.138C131.827 57.7955 132.1 57.5144 132.308 57.3193C132.412 57.2214 132.495 57.1495 132.558 57.1032C132.59 57.0799 132.612 57.0665 132.626 57.0596C132.644 57.0506 132.633 57.06 132.604 57.06V56.66C132.539 56.66 132.483 56.6837 132.446 56.7023C132.405 56.723 132.363 56.7505 132.322 56.7807C132.239 56.8413 132.142 56.9261 132.034 57.0277C131.817 57.2316 131.537 57.5205 131.211 57.862C130.558 58.5478 129.709 59.4558 128.769 60.3642C127.829 61.2729 126.802 62.1755 125.797 62.8499C124.785 63.5283 123.823 63.956 123.004 63.956V64.356ZM132.604 57.06C132.734 57.06 132.821 57.1113 132.88 57.1849C132.943 57.2636 132.98 57.3773 132.98 57.5H133.38C133.38 57.3027 133.321 57.0964 133.192 56.9351C133.059 56.7686 132.858 56.66 132.604 56.66V57.06ZM132.98 57.5C132.98 57.7652 132.878 58.0984 132.671 58.4889C132.466 58.8765 132.168 59.3048 131.797 59.7559C131.054 60.6579 130.035 61.6348 128.933 62.5373C127.832 63.4395 126.656 64.2626 125.603 64.859C125.076 65.1572 124.583 65.3969 124.148 65.5616C123.711 65.7274 123.345 65.812 123.068 65.812V66.212C123.415 66.212 123.834 66.1086 124.29 65.9357C124.75 65.7616 125.261 65.5118 125.8 65.207C126.876 64.5974 128.072 63.7605 129.187 62.8467C130.302 61.9332 131.342 60.9381 132.106 60.0101C132.487 59.5462 132.803 59.095 133.025 58.6758C133.245 58.2596 133.38 57.8588 133.38 57.5H132.98ZM123.068 65.812C122.136 65.812 121.466 65.4547 120.968 64.8844C120.462 64.3062 120.126 63.5008 119.894 62.6019C119.662 61.705 119.537 60.7334 119.442 59.835C119.348 58.9454 119.283 58.1132 119.168 57.5258L118.776 57.6022C118.886 58.1668 118.948 58.9666 119.044 59.877C119.139 60.7786 119.267 61.775 119.507 62.7021C119.746 63.6272 120.102 64.5018 120.667 65.1476C121.238 65.8013 122.016 66.212 123.068 66.212V65.812ZM118.863 57.3967C118.365 57.7229 117.814 58.3667 117.247 59.1552C116.675 59.9499 116.07 60.9156 115.465 61.908C114.25 63.9045 113.046 65.994 112.1 67.0978L112.404 67.3582C113.378 66.222 114.607 64.0875 115.807 62.116C116.411 61.1244 117.009 60.1701 117.572 59.3888C118.138 58.6013 118.652 58.0131 119.082 57.7313L118.863 57.3967ZM112.1 67.0978C111.753 67.5031 111.296 67.732 110.716 67.732V68.132C111.417 68.132 111.983 67.8489 112.404 67.3582L112.1 67.0978ZM97.0273 58.7994C97.4291 58.4311 98.032 57.6791 98.5332 56.8869C98.7848 56.4893 99.0143 56.0759 99.1817 55.6895C99.347 55.3077 99.4602 54.9334 99.4602 54.62H99.0602C99.0602 54.8506 98.9733 55.1642 98.8146 55.5305C98.658 55.8921 98.4396 56.2867 98.1951 56.6731C97.7043 57.4489 97.1232 58.1689 96.757 58.5046L97.0273 58.7994ZM99.4602 54.62V54.428H99.0602V54.62H99.4602ZM99.1362 54.271C97.8721 55.269 97.0248 57.11 96.5122 58.5197L96.8881 58.6563C97.3995 57.25 98.2162 55.507 99.3841 54.585L99.1362 54.271ZM96.6369 58.7777L96.8289 58.8417L96.9554 58.4623L96.7634 58.3983L96.6369 58.7777ZM185.654 75.356L185.852 75.3277L185.85 75.3168L185.654 75.356ZM185.654 70.492L185.853 70.5037L185.866 70.292H185.654V70.492ZM188.086 53.02L188.195 53.1877L188.552 52.9553L188.145 52.829L188.086 53.02ZM188.982 42.908L189.045 43.0977L189.172 43.0555L189.181 42.9222L188.982 42.908ZM190.838 39.004H190.638V39.0151L190.639 39.0261L190.838 39.004ZM190.646 42.46L190.446 42.4495L190.434 42.6769L190.661 42.6594L190.646 42.46ZM197.174 43.868H197.374V43.8593L197.373 43.8507L197.174 43.868ZM195.766 44.06L195.951 43.9857L195.923 43.9151L195.855 43.8811L195.766 44.06ZM190.454 44.444L190.379 44.2583L190.254 44.3086V44.444H190.454ZM188.982 44.892L189.161 44.8026L189.096 44.6736L188.953 44.694L188.982 44.892ZM182.774 48.732L182.973 48.7107L182.971 48.6991L182.969 48.6877L182.774 48.732ZM191.158 53.02H191.358V53.0043L191.355 52.9888L191.158 53.02ZM190.646 54.364L190.582 54.1743L190.574 54.177L190.566 54.1804L190.646 54.364ZM183.35 58.524L183.232 58.3617L183.225 58.3678L183.35 58.524ZM179.894 62.108L180.058 62.2218L180.059 62.2207L179.894 62.108ZM178.87 65.372L179.067 65.3416L179.067 65.3408L178.87 65.372ZM182.966 68.252L182.915 68.4455L182.928 68.4488L182.941 68.4505L182.966 68.252ZM186.102 68.252L186.122 68.451L186.262 68.437L186.296 68.3005L186.102 68.252ZM188.15 67.868H187.95V68.12L188.195 68.0628L188.15 67.868ZM199.542 64.22L199.467 64.0342L199.462 64.0367L199.542 64.22ZM201.27 64.476H201.07V64.4913L201.072 64.5064L201.27 64.476ZM187.958 70.044L187.9 69.8524L187.784 69.8874L187.761 70.0071L187.958 70.044ZM187.126 76.252L187.311 76.3263L187.316 76.3144L187.319 76.302L187.126 76.252ZM186.55 76.5C186.308 76.5 186.155 76.3565 186.044 76.1128C185.93 75.8634 185.884 75.5563 185.852 75.3277L185.456 75.3843C185.487 75.6037 185.538 75.9686 185.68 76.2792C185.824 76.5955 186.087 76.9 186.55 76.9V76.5ZM185.85 75.3168C185.726 74.6988 185.726 74.1415 185.726 73.564H185.326C185.326 74.1385 185.325 74.7332 185.458 75.3952L185.85 75.3168ZM185.726 73.564C185.726 72.6112 185.789 71.5939 185.853 70.5037L185.454 70.4803C185.39 71.5661 185.326 72.5968 185.326 73.564H185.726ZM185.654 70.292C183.813 70.292 181.607 70.0055 179.87 69.1448C178.144 68.2894 176.894 66.8774 176.894 64.604H176.494C176.494 67.0666 177.867 68.5986 179.693 69.5032C181.508 70.4025 183.783 70.692 185.654 70.692V70.292ZM176.894 64.604C176.894 61.9483 178.717 59.7281 181.075 57.8401C183.433 55.9516 186.253 54.4499 188.195 53.1877L187.977 52.8523C186.079 54.0861 183.202 55.6244 180.825 57.5279C178.447 59.4319 176.494 61.7557 176.494 64.604H176.894ZM188.145 52.829C187.201 52.536 185.481 52.111 183.984 51.43C183.238 51.0901 182.563 50.6932 182.077 50.2293C181.593 49.7672 181.31 49.2521 181.31 48.668H180.91C180.91 49.3959 181.267 50.0088 181.801 50.5187C182.333 51.0268 183.054 51.4459 183.819 51.794C185.346 52.489 187.114 52.928 188.026 53.211L188.145 52.829ZM181.31 48.668C181.31 47.9816 181.627 47.3392 182.164 46.7407C182.703 46.1416 183.451 45.5999 184.282 45.1213C185.943 44.1642 187.894 43.4814 189.045 43.0977L188.918 42.7183C187.766 43.1025 185.781 43.7958 184.082 44.7747C183.232 45.2641 182.445 45.8304 181.867 46.4733C181.289 47.1168 180.91 47.8504 180.91 48.668H181.31ZM189.181 42.9222C189.214 42.4607 189.245 41.2951 189.396 40.2321C189.471 39.7004 189.574 39.2118 189.716 38.8609C189.787 38.685 189.863 38.5568 189.939 38.4754C190.012 38.3969 190.076 38.372 190.134 38.372V37.972C189.936 37.972 189.773 38.0671 189.647 38.2021C189.523 38.3342 189.425 38.513 189.345 38.7111C189.185 39.1082 189.076 39.6356 189 40.1759C188.846 41.2569 188.813 42.4593 188.782 42.8937L189.181 42.9222ZM190.134 38.372C190.283 38.372 190.404 38.4443 190.494 38.564C190.586 38.6873 190.638 38.8526 190.638 39.004H191.038C191.038 38.7714 190.961 38.5207 190.814 38.324C190.663 38.1237 190.432 37.972 190.134 37.972V38.372ZM190.639 39.0261C190.701 39.5812 190.67 40.1248 190.615 40.6884C190.56 41.2458 190.478 41.8358 190.446 42.4495L190.845 42.4705C190.877 41.8682 190.956 41.3062 191.013 40.7276C191.069 40.1552 191.103 39.5788 191.036 38.9819L190.639 39.0261ZM190.661 42.6594C191.084 42.6269 191.525 42.5617 191.951 42.5063C192.382 42.4505 192.803 42.404 193.206 42.404V42.004C192.776 42.004 192.333 42.0535 191.9 42.1097C191.463 42.1663 191.039 42.2291 190.63 42.2606L190.661 42.6594ZM193.206 42.404C193.71 42.404 194.65 42.4517 195.473 42.6769C195.885 42.7896 196.254 42.9432 196.523 43.1466C196.789 43.3473 196.949 43.5882 196.974 43.8853L197.373 43.8507C197.335 43.4118 197.094 43.0767 196.764 42.8274C196.438 42.5808 196.014 42.4104 195.578 42.2911C194.706 42.0523 193.725 42.004 193.206 42.004V42.404ZM196.974 43.868V44.06H197.374V43.868H196.974ZM196.974 44.06C196.974 44.1647 196.916 44.3312 196.807 44.4748C196.696 44.62 196.572 44.692 196.47 44.692V45.092C196.751 45.092 196.979 44.908 197.125 44.7172C197.271 44.5248 197.374 44.2753 197.374 44.06H196.974ZM196.47 44.692C196.341 44.692 196.252 44.6264 196.168 44.4907C196.076 44.3425 196.024 44.1682 195.951 43.9857L195.58 44.1343C195.635 44.2718 195.711 44.5135 195.828 44.7013C195.952 44.9016 196.15 45.092 196.47 45.092V44.692ZM195.855 43.8811C195.423 43.6651 194.993 43.668 194.614 43.668V44.068C195.003 44.068 195.34 44.0709 195.676 44.2389L195.855 43.8811ZM194.614 43.668C193.141 43.668 191.698 43.7307 190.379 44.2583L190.528 44.6297C191.769 44.1333 193.142 44.068 194.614 44.068V43.668ZM190.254 44.444C190.254 44.6546 190.223 44.9493 190.138 45.1837C190.048 45.4306 189.935 45.524 189.814 45.524V45.924C190.205 45.924 190.411 45.6014 190.514 45.3203C190.62 45.0267 190.654 44.6814 190.654 44.444H190.254ZM189.814 45.524C189.67 45.524 189.562 45.4572 189.458 45.3271C189.347 45.1881 189.262 45.0054 189.161 44.8026L188.803 44.9814C188.893 45.1626 189.001 45.3959 189.145 45.5769C189.297 45.7667 189.509 45.924 189.814 45.924V45.524ZM188.953 44.694C188.593 44.7454 188 44.9287 187.328 45.1885C186.651 45.4501 185.879 45.7954 185.159 46.1796C184.442 46.5626 183.766 46.9893 183.287 47.4156C183.047 47.6284 182.849 47.8484 182.72 48.0704C182.592 48.2925 182.524 48.5341 182.579 48.7763L182.969 48.6877C182.944 48.5779 182.968 48.4415 183.066 48.2709C183.165 48.1 183.33 47.9125 183.553 47.7144C183.997 47.3187 184.642 46.9094 185.348 46.5324C186.052 46.1566 186.809 45.8179 187.472 45.5615C188.14 45.3033 188.698 45.1346 189.01 45.09L188.953 44.694ZM182.575 48.7533C182.607 49.0541 182.797 49.2952 183.052 49.4898C183.307 49.6848 183.649 49.8519 184.038 50.0025C184.816 50.3035 185.837 50.5591 186.842 50.8291C187.856 51.1017 188.857 51.3896 189.627 51.7565C190.41 52.1296 190.881 52.5505 190.96 53.0512L191.355 52.9888C191.242 52.2735 190.594 51.7743 189.799 51.3955C188.991 51.0104 187.956 50.7143 186.946 50.4429C185.926 50.1689 184.935 49.9205 184.183 49.6295C183.807 49.4841 183.505 49.3332 183.295 49.1722C183.084 49.0108 182.988 48.8579 182.973 48.7107L182.575 48.7533ZM190.958 53.02C190.958 53.1197 190.984 53.1952 191 53.2432C191.016 53.2912 191.022 53.3117 191.022 53.34H191.422C191.422 53.2403 191.395 53.1648 191.379 53.1168C191.363 53.0688 191.358 53.0483 191.358 53.02H190.958ZM191.022 53.34C191.022 53.7537 190.845 54.0869 190.582 54.1743L190.709 54.5537C191.215 54.3851 191.422 53.8223 191.422 53.34H191.022ZM190.566 54.1804C188.185 55.2101 185.548 56.6893 183.233 58.3619L183.467 58.6861C185.759 57.0307 188.37 55.5659 190.725 54.5476L190.566 54.1804ZM183.225 58.3678C181.936 59.3984 180.704 60.5647 179.728 61.9953L180.059 62.2207C181.003 60.8353 182.203 59.6976 183.475 58.6802L183.225 58.3678ZM179.729 61.9942C179.149 62.8325 178.467 64.1054 178.672 65.4032L179.067 65.3408C178.888 64.2066 179.486 63.0475 180.058 62.2218L179.729 61.9942ZM178.672 65.4024C178.814 66.3257 179.537 66.9915 180.362 67.4654C181.193 67.9427 182.173 68.252 182.915 68.4455L183.016 68.0585C182.286 67.868 181.346 67.5693 180.561 67.1186C179.771 66.6645 179.181 66.0823 179.067 65.3416L178.672 65.4024ZM182.941 68.4505C183.447 68.5137 183.91 68.58 184.374 68.58V68.18C183.941 68.18 183.509 68.1183 182.99 68.0535L182.941 68.4505ZM184.374 68.58C184.898 68.58 185.487 68.5145 186.122 68.451L186.082 68.053C185.437 68.1175 184.873 68.18 184.374 68.18V68.58ZM186.296 68.3005C186.357 68.0554 186.479 67.6935 186.663 67.398C186.853 67.0948 187.073 66.916 187.318 66.916V66.516C186.859 66.516 186.535 66.8492 186.324 67.186C186.109 67.5305 185.974 67.9366 185.908 68.2035L186.296 68.3005ZM187.318 66.916C187.474 66.916 187.633 66.9953 187.757 67.1257C187.882 67.2576 187.95 67.4185 187.95 67.548H188.35C188.35 67.2935 188.225 67.0384 188.047 66.8502C187.867 66.6607 187.609 66.516 187.318 66.516V66.916ZM187.95 67.548V67.868H188.35V67.548H187.95ZM188.195 68.0628C192.043 67.165 196.087 65.9456 199.622 64.4033L199.462 64.0367C195.956 65.5664 191.937 66.779 188.104 67.6732L188.195 68.0628ZM199.616 64.4057C199.794 64.3345 199.945 64.2644 200.117 64.1989C200.284 64.1352 200.414 64.1 200.502 64.1V63.7C200.334 63.7 200.143 63.7608 199.974 63.8251C199.811 63.8876 199.609 63.9775 199.467 64.0343L199.616 64.4057ZM200.502 64.1C200.664 64.1 200.815 64.1412 200.919 64.2104C201.017 64.2757 201.07 64.3616 201.07 64.476H201.47C201.47 64.2064 201.331 64.0043 201.141 63.8776C200.956 63.7548 200.723 63.7 200.502 63.7V64.1ZM201.072 64.5064C201.078 64.5483 201.069 64.6106 201.013 64.7012C200.957 64.7924 200.861 64.8981 200.721 65.0166C200.441 65.2532 200.015 65.5138 199.477 65.7889C198.403 66.3378 196.92 66.9243 195.363 67.4796C192.249 68.5894 188.863 69.5636 187.9 69.8524L188.015 70.2356C188.972 69.9484 192.371 68.9706 195.497 67.8564C197.059 67.2997 198.561 66.7062 199.659 66.1451C200.206 65.8652 200.664 65.5883 200.979 65.3222C201.136 65.1892 201.267 65.0523 201.354 64.9116C201.441 64.7704 201.493 64.6117 201.467 64.4456L201.072 64.5064ZM187.761 70.0071C187.567 71.0428 187.486 72.1108 187.39 73.1538C187.295 74.2017 187.184 75.2272 186.932 76.202L187.319 76.302C187.58 75.2928 187.693 74.2383 187.789 73.1902C187.885 72.1372 187.964 71.0932 188.154 70.0809L187.761 70.0071ZM186.94 76.1777C186.871 76.3494 186.839 76.4125 186.8 76.4473C186.775 76.4699 186.724 76.5 186.55 76.5V76.9C186.759 76.9 186.932 76.8661 187.067 76.7447C187.189 76.6355 187.252 76.4746 187.311 76.3263L186.94 76.1777ZM285.198 66.332L285.277 66.5158L285.277 66.5158L285.198 66.332ZM289.614 64.54L289.694 64.7234L289.8 64.6773L289.813 64.5625L289.614 64.54ZM290.574 56.54L290.376 56.5117L290.376 56.5164L290.574 56.54ZM291.406 49.756L291.604 49.7843L291.605 49.7798L291.406 49.756ZM294.286 27.356L294.09 27.3202L294.089 27.3237L294.286 27.356ZM296.078 17.564L295.912 17.4529L295.906 17.4632L296.078 17.564ZM297.87 18.652L297.671 18.6339L297.671 18.6406L297.87 18.652ZM296.078 32.092L295.88 32.0661L295.88 32.067L296.078 32.092ZM293.326 54.94L293.524 54.9676L293.525 54.9634L293.326 54.94ZM292.238 63.388L292.039 63.3695L292.012 63.6606L292.293 63.5803L292.238 63.388ZM304.462 59.868L304.508 60.0627L304.51 60.0623L304.462 59.868ZM342.094 54.94L342.097 55.14L342.247 55.1377L342.287 54.9938L342.094 54.94ZM340.046 30.62L339.865 30.705L339.866 30.7065L340.046 30.62ZM244.11 35.868L244.276 35.9807L244.276 35.9803L244.11 35.868ZM244.814 53.084L244.956 52.9426L244.949 52.9362L244.942 52.9304L244.814 53.084ZM245.006 53.276H245.206V53.1932L245.148 53.1346L245.006 53.276ZM240.142 50.524L239.975 50.633L239.978 50.6373L240.142 50.524ZM238.798 47.196L238.996 47.1601L238.992 47.1475L238.798 47.196ZM243.79 33.116L243.949 33.2379L243.95 33.2371L243.79 33.116ZM341.198 27.996L341.022 28.0897L341.022 28.0906L341.198 27.996ZM345.294 50.268L345.096 50.2375L345.095 50.2514L345.294 50.268ZM344.59 54.94L344.397 54.8895L344.331 55.14H344.59V54.94ZM357.902 57.692L357.849 57.8851L357.859 57.8872L357.902 57.692ZM349.838 56.924L349.853 56.7245L349.852 56.7244L349.838 56.924ZM344.078 56.86V56.66H343.94L343.891 56.7898L344.078 56.86ZM337.422 70.236L337.26 70.1198L337.259 70.12L337.422 70.236ZM325.966 79.836L326.092 79.9914L326.093 79.9911L325.966 79.836ZM335.758 68.956L335.592 68.8451L335.591 68.8463L335.758 68.956ZM341.518 56.732L341.711 56.7855L341.785 56.52L341.509 56.5322L341.518 56.732ZM332.878 57.244L332.865 57.0444L332.861 57.0447L332.878 57.244ZM297.934 63.708L297.991 63.8999L297.991 63.8998L297.934 63.708ZM292.046 65.564L291.972 65.3783L291.866 65.4208L291.849 65.534L292.046 65.564ZM291.278 72.54L291.08 72.5166L291.079 72.5204L291.278 72.54ZM288.846 72.092L288.647 72.0707L288.647 72.0714L288.846 72.092ZM289.358 66.588L289.558 66.6022L289.582 66.2687L289.277 66.4055L289.358 66.588ZM283.342 69.276L283.255 69.0959L283.253 69.0971L283.342 69.276ZM286.99 96.084C283.524 96.084 278.497 95.3355 274.344 93.4774C270.186 91.6169 266.966 88.6765 266.966 84.316H266.566C266.566 88.9155 269.971 91.9591 274.181 93.8426C278.396 95.7285 283.481 96.484 286.99 96.484V96.084ZM266.966 84.316C266.966 80.282 269.832 76.5575 273.59 73.4624C277.338 70.3743 281.928 67.9512 285.277 66.5158L285.12 66.1482C281.749 67.5928 277.123 70.0337 273.335 73.1536C269.556 76.2665 266.566 80.094 266.566 84.316H266.966ZM285.277 66.5158C285.946 66.2293 286.679 65.9425 287.432 65.6461C288.183 65.3502 288.954 65.045 289.694 64.7234L289.535 64.3566C288.802 64.675 288.037 64.9778 287.285 65.2739C286.534 65.5695 285.795 65.8587 285.12 66.1482L285.277 66.5158ZM289.813 64.5625C290.197 61.1707 290.453 59.2548 290.773 56.5636L290.376 56.5164C290.056 59.2012 289.8 61.1253 289.416 64.5175L289.813 64.5625ZM290.772 56.5683C290.933 55.4448 291.061 54.3059 291.189 53.1704C291.317 52.0339 291.445 50.9008 291.604 49.7843L291.208 49.7277C291.048 50.8512 290.92 51.9901 290.792 53.1256C290.664 54.2621 290.536 55.3952 290.376 56.5117L290.772 56.5683ZM291.605 49.7798C292.501 42.2872 293.269 34.8067 294.484 27.3883L294.089 27.3237C292.872 34.7533 292.103 42.2487 291.208 49.7322L291.605 49.7798ZM294.483 27.3918C294.611 26.6868 294.949 24.421 295.308 22.2526C295.488 21.1652 295.673 20.0999 295.841 19.2593C295.926 18.8387 296.005 18.4767 296.077 18.1973C296.151 17.9081 296.211 17.7327 296.251 17.6648L295.906 17.4632C295.833 17.5873 295.761 17.8179 295.69 18.0977C295.615 18.3873 295.534 18.7573 295.449 19.1807C295.28 20.0281 295.093 21.0988 294.913 22.1874C294.552 24.371 294.217 26.6172 294.09 27.3202L294.483 27.3918ZM296.245 17.6749C296.331 17.5454 296.521 17.444 296.718 17.444V17.044C296.404 17.044 296.082 17.1986 295.912 17.4531L296.245 17.6749ZM296.718 17.444C297.107 17.444 297.347 17.5929 297.49 17.7984C297.64 18.0129 297.7 18.3137 297.671 18.6339L298.07 18.6701C298.104 18.2863 298.037 17.8831 297.818 17.5696C297.594 17.2471 297.226 17.044 296.718 17.044V17.444ZM297.671 18.6406C297.415 23.1127 296.459 27.627 295.88 32.0661L296.277 32.1179C296.85 27.725 297.814 23.1513 298.07 18.6634L297.671 18.6406ZM295.88 32.067C294.92 39.6839 294.024 47.3008 293.128 54.9166L293.525 54.9634C294.421 47.3472 295.317 39.7321 296.277 32.117L295.88 32.067ZM293.128 54.9124C292.745 57.6606 292.296 60.6115 292.039 63.3695L292.437 63.4065C292.693 60.6605 293.14 57.7234 293.524 54.9676L293.128 54.9124ZM292.293 63.5803C296.34 62.424 300.417 61.0215 304.508 60.0627L304.417 59.6733C300.316 60.6345 296.2 62.048 292.183 63.1957L292.293 63.5803ZM304.51 60.0623C316.528 57.1216 329.697 55.3317 342.097 55.14L342.091 54.74C329.659 54.9323 316.46 56.7264 304.415 59.6737L304.51 60.0623ZM342.287 54.9938C343.06 52.2243 343.574 48.4943 343.574 45.596H343.174C343.174 48.4577 342.665 52.1517 341.902 54.8862L342.287 54.9938ZM343.574 45.596C343.574 40.4483 342.481 35.2344 340.227 30.5335L339.866 30.7065C342.092 35.3496 343.174 40.5037 343.174 45.596H343.574ZM340.227 30.535C332.754 14.6225 317.357 10.004 300.942 10.004V10.404C317.296 10.404 332.49 15.0015 339.865 30.705L340.227 30.535ZM300.942 10.004C280.683 10.004 255.772 18.3357 243.945 35.7557L244.276 35.9803C256 18.7123 280.754 10.404 300.942 10.404V10.004ZM243.945 35.7553C242.015 38.5857 240.326 42.2098 240.326 45.724H240.726C240.726 42.3261 242.365 38.7823 244.276 35.9807L243.945 35.7553ZM240.326 45.724C240.326 48.9538 242.372 51.3093 244.686 53.2376L244.942 52.9304C242.648 51.0187 240.726 48.7662 240.726 45.724H240.326ZM244.673 53.2254L244.865 53.4174L245.148 53.1346L244.956 52.9426L244.673 53.2254ZM244.806 53.276C244.806 53.4634 244.79 53.6697 244.726 53.8231C244.695 53.8971 244.657 53.9486 244.614 53.9815C244.574 54.0123 244.518 54.036 244.43 54.036V54.436C244.599 54.436 244.742 54.3877 244.858 54.2985C244.972 54.2114 245.046 54.0949 245.095 53.9769C245.191 53.7463 245.206 53.4726 245.206 53.276H244.806ZM244.43 54.036C244.154 54.036 243.802 53.8944 243.402 53.6326C243.007 53.3745 242.589 53.0163 242.186 52.6212C241.38 51.8309 240.652 50.913 240.307 50.4107L239.978 50.6373C240.336 51.159 241.08 52.0971 241.906 52.9068C242.319 53.3117 242.758 53.6895 243.183 53.9674C243.602 54.2416 244.035 54.436 244.43 54.436V54.036ZM240.31 50.415C239.897 49.7793 239.633 49.3117 239.44 48.8332C239.247 48.3552 239.122 47.8582 238.995 47.1602L238.602 47.2318C238.731 47.9418 238.862 48.4688 239.069 48.9828C239.276 49.4963 239.556 49.9887 239.975 50.633L240.31 50.415ZM238.992 47.1475C238.872 46.6641 238.87 46.0505 238.87 45.532H238.47C238.47 46.0375 238.469 46.7039 238.604 47.2445L238.992 47.1475ZM238.87 45.532C238.87 41.3104 241.398 36.5542 243.949 33.2379L243.632 32.9941C241.063 36.3338 238.47 41.1776 238.47 45.532H238.87ZM243.95 33.2371C256.508 16.7261 280.247 8.41999 300.558 8.41999V8.01999C280.166 8.01999 256.289 16.3539 243.631 32.9949L243.95 33.2371ZM300.558 8.41999C317.109 8.41999 332.754 12.5092 341.022 28.0897L341.375 27.9023C333.002 12.1228 317.16 8.01999 300.558 8.01999V8.41999ZM341.022 28.0906C343.824 33.3127 345.478 39.2965 345.478 45.148H345.878C345.878 39.2235 344.204 33.1753 341.375 27.9014L341.022 28.0906ZM345.478 45.148C345.478 46.8025 345.351 48.5843 345.097 50.2376L345.492 50.2984C345.75 48.6237 345.878 46.8215 345.878 45.148H345.478ZM345.095 50.2514C344.967 51.7849 344.776 53.4348 344.397 54.8895L344.784 54.9905C345.172 53.5012 345.365 51.8231 345.494 50.2846L345.095 50.2514ZM344.59 55.14C345.677 55.14 349.541 55.1561 353.131 55.507C354.928 55.6827 356.644 55.9413 357.907 56.3196C358.54 56.5091 359.045 56.7247 359.387 56.9656C359.731 57.2072 359.878 57.4496 359.878 57.692H360.278C360.278 57.2624 360.01 56.9148 359.617 56.6384C359.223 56.3613 358.671 56.1309 358.022 55.9364C356.721 55.5467 354.973 55.2853 353.17 55.1089C349.559 54.7559 345.679 54.74 344.59 54.74V55.14ZM359.878 57.692C359.878 57.7332 359.852 57.8194 359.792 57.8981C359.732 57.9762 359.672 58.004 359.63 58.004V58.404C359.845 58.404 360.009 58.2718 360.109 58.1419C360.208 58.0126 360.278 57.8428 360.278 57.692H359.878ZM359.63 58.004C359.35 58.004 359.091 57.9202 358.817 57.8103C358.552 57.7044 358.255 57.5654 357.946 57.4968L357.859 57.8872C358.126 57.9466 358.373 58.0636 358.668 58.1817C358.953 58.2958 359.271 58.404 359.63 58.404V58.004ZM357.955 57.4992C356.655 57.1417 355.295 56.9966 353.93 56.9163C352.548 56.8351 351.204 56.821 349.853 56.7245L349.824 57.1235C351.161 57.219 352.568 57.2369 353.907 57.3157C355.262 57.3954 356.589 57.5383 357.849 57.8848L357.955 57.4992ZM349.852 56.7244C348.884 56.6599 347.917 56.66 346.958 56.66V57.06C347.919 57.06 348.873 57.0601 349.825 57.1236L349.852 56.7244ZM346.958 56.66H344.078V57.06H346.958V56.66ZM343.891 56.7898C342.165 61.3935 340.124 66.1096 337.26 70.1198L337.585 70.3522C340.481 66.2984 342.536 61.5425 344.266 56.9302L343.891 56.7898ZM337.259 70.12C326.225 85.6195 305.997 96.084 286.99 96.084V96.484C306.127 96.484 326.476 85.9565 337.585 70.352L337.259 70.12ZM287.374 94.564C300.548 94.564 315.951 88.207 326.092 79.9914L325.84 79.6806C315.758 87.849 300.441 94.164 287.374 94.164V94.564ZM326.093 79.9911C329.885 76.9059 333.227 73.1784 335.926 69.0657L335.591 68.8463C332.914 72.9256 329.6 76.6221 325.84 79.6809L326.093 79.9911ZM335.925 69.0669C336.638 67.997 337.924 65.5043 339.107 63.0015C340.29 60.5003 341.386 57.9568 341.711 56.7855L341.326 56.6785C341.011 57.8112 339.931 60.3237 338.746 62.8305C337.561 65.3357 336.287 67.803 335.592 68.8451L335.925 69.0669ZM341.509 56.5322C338.627 56.6603 335.745 56.8525 332.865 57.0444L332.892 57.4436C335.772 57.2515 338.65 57.0597 341.527 56.9318L341.509 56.5322ZM332.861 57.0447C320.945 58.0698 309.348 60.12 297.878 63.5162L297.991 63.8998C309.433 60.512 321.003 58.4662 332.895 57.4433L332.861 57.0447ZM297.878 63.5161C296.8 63.8333 293.904 64.6056 291.972 65.3783L292.121 65.7497C294.029 64.9864 296.893 64.2227 297.991 63.8999L297.878 63.5161ZM291.849 65.534C291.528 67.6478 291.334 70.3572 291.08 72.5166L291.477 72.5634C291.735 70.3708 291.924 67.7042 292.244 65.594L291.849 65.534ZM291.079 72.5204C290.697 76.4118 290.118 80.3989 290.118 84.316H290.518C290.518 80.4251 291.092 76.4762 291.477 72.5596L291.079 72.5204ZM290.118 84.316V84.892H290.518V84.316H290.118ZM290.118 84.892C290.118 85.1532 290.098 85.3327 290.017 85.4513C289.95 85.5502 289.805 85.652 289.422 85.652V86.052C289.871 86.052 290.175 85.9298 290.348 85.6767C290.507 85.4433 290.518 85.1428 290.518 84.892H290.118ZM289.422 85.652C289.176 85.652 288.998 85.5815 288.863 85.4711C288.724 85.358 288.617 85.1919 288.537 84.9811C288.375 84.5542 288.342 83.9946 288.342 83.484H287.942C287.942 83.9974 287.973 84.6218 288.163 85.1229C288.259 85.3761 288.4 85.61 288.61 85.781C288.823 85.9545 289.092 86.052 289.422 86.052V85.652ZM288.342 83.484C288.342 79.6544 288.662 75.8225 289.045 72.1126L288.647 72.0714C288.263 75.7855 287.942 79.6336 287.942 83.484H288.342ZM289.045 72.1133C289.237 70.3207 289.43 68.3978 289.558 66.6022L289.159 66.5738C289.031 68.3622 288.839 70.2793 288.647 72.0707L289.045 72.1133ZM289.277 66.4055C287.429 67.2339 285.114 68.1985 283.255 69.0959L283.429 69.4561C285.282 68.5615 287.576 67.6061 289.44 66.7705L289.277 66.4055ZM283.253 69.0971C280.685 70.3808 276.99 72.5013 273.932 75.116C270.886 77.7216 268.422 80.8615 268.422 84.188H268.822C268.822 81.0505 271.159 78.0144 274.192 75.42C277.215 72.8347 280.879 70.7312 283.432 69.4549L283.253 69.0971ZM268.422 84.188C268.422 88.3496 271.697 90.9423 275.646 92.4863C279.604 94.034 284.318 94.564 287.374 94.564V94.164C284.351 94.164 279.689 93.638 275.791 92.1137C271.884 90.5857 268.822 88.0904 268.822 84.188H268.422ZM379.856 57.116L380.035 57.0266L379.979 56.916H379.856V57.116ZM373.712 62.94L373.806 63.1165L373.809 63.1148L373.712 62.94ZM365.904 59.1L366.101 59.0671L366.03 58.643L365.752 58.9703L365.904 59.1ZM360.528 62.748L360.331 62.714L360.231 63.29L360.663 62.8956L360.528 62.748ZM365.584 55.324L365.764 55.41L365.825 55.2825L365.725 55.1826L365.584 55.324ZM359.952 65.044C359.389 65.044 358.966 64.7662 358.676 64.3465C358.383 63.9215 358.232 63.3548 358.232 62.812H357.832C357.832 63.4212 358 64.0705 358.347 64.5735C358.698 65.0818 359.235 65.444 359.952 65.444V65.044ZM358.232 62.812C358.232 61.1261 358.939 58.5841 360.157 56.4636C361.382 54.332 363.075 52.708 365.008 52.708V52.308C362.845 52.308 361.05 54.108 359.81 56.2644C358.565 58.4319 357.832 61.0419 357.832 62.812H358.232ZM365.008 52.708C365.251 52.708 365.558 52.8008 365.892 52.9736C366.223 53.1448 366.565 53.3865 366.874 53.6647C367.183 53.943 367.454 54.2532 367.647 54.5586C367.841 54.8672 367.944 55.1534 367.944 55.388H368.344C368.344 55.0466 368.199 54.6848 367.985 54.3454C367.769 54.0028 367.472 53.665 367.142 53.3673C366.811 53.0695 366.441 52.8072 366.076 52.6184C365.714 52.4312 365.341 52.308 365.008 52.308V52.708ZM367.944 55.388C367.944 56.2983 367.847 58.0092 368.131 59.482C368.274 60.2199 368.516 60.9223 368.933 61.4437C369.356 61.9742 369.952 62.308 370.768 62.308V61.908C370.079 61.908 369.596 61.6338 369.245 61.1943C368.887 60.7457 368.662 60.1161 368.524 59.406C368.249 57.9828 368.344 56.3337 368.344 55.388H367.944ZM370.768 62.308C371.523 62.308 372.415 61.9723 373.32 61.4949C374.231 61.0145 375.182 60.3761 376.061 59.7422C376.938 59.1094 377.755 58.4724 378.384 58.0023C378.702 57.7655 378.97 57.5718 379.18 57.4378C379.285 57.3707 379.371 57.3213 379.438 57.2894C379.513 57.254 379.54 57.252 379.536 57.252V56.852C379.444 56.852 379.348 56.8895 379.266 56.9282C379.178 56.9703 379.076 57.0296 378.965 57.1007C378.742 57.2432 378.463 57.4445 378.145 57.6817C377.505 58.1596 376.702 58.7866 375.827 59.4178C374.954 60.0479 374.02 60.6735 373.134 61.1411C372.241 61.6117 371.421 61.908 370.768 61.908V62.308ZM379.536 57.252C379.564 57.252 379.585 57.2578 379.633 57.2737C379.681 57.2898 379.756 57.316 379.856 57.316V56.916C379.828 56.916 379.807 56.9102 379.759 56.8943C379.711 56.8782 379.636 56.852 379.536 56.852V57.252ZM379.677 57.2054C379.695 57.242 379.718 57.2822 379.738 57.3187C379.759 57.357 379.779 57.3936 379.797 57.4294C379.815 57.4655 379.829 57.4966 379.838 57.5227C379.842 57.5356 379.845 57.5457 379.846 57.5533C379.848 57.561 379.848 57.5643 379.848 57.564H380.248C380.248 57.4477 380.194 57.3294 380.155 57.2506C380.133 57.2064 380.109 57.163 380.088 57.1253C380.066 57.0858 380.048 57.054 380.035 57.0266L379.677 57.2054ZM379.848 57.564C379.848 57.6438 379.798 57.7828 379.658 57.9862C379.524 58.1818 379.326 58.4092 379.078 58.6591C378.583 59.1583 377.906 59.7282 377.189 60.2861C375.753 61.4029 374.178 62.4521 373.615 62.7652L373.809 63.1148C374.397 62.7879 375.99 61.7251 377.435 60.6019C378.157 60.0398 378.849 59.4577 379.362 58.9409C379.618 58.6828 379.834 58.4362 379.988 58.2128C380.136 57.9972 380.248 57.7722 380.248 57.564H379.848ZM373.618 62.7635C372.671 63.2687 371.489 63.7 370.448 63.7V64.1C371.583 64.1 372.833 63.6353 373.806 63.1165L373.618 62.7635ZM370.448 63.7C369.207 63.7 368.22 63.1122 367.489 62.236C366.756 61.3564 366.288 60.1913 366.101 59.0671L365.707 59.1329C365.903 60.3127 366.395 61.5476 367.182 62.492C367.972 63.4398 369.065 64.1 370.448 64.1V63.7ZM365.752 58.9703C365.373 59.4145 364.974 60.0266 364.554 60.6809C364.13 61.34 363.682 62.0476 363.199 62.7011C362.715 63.3551 362.204 63.9445 361.659 64.3692C361.115 64.7933 360.549 65.044 359.952 65.044V65.444C360.667 65.444 361.317 65.1427 361.905 64.6848C362.492 64.2275 363.028 63.6049 363.521 62.9389C364.013 62.2724 364.469 61.552 364.89 60.8971C365.314 60.2374 365.698 59.6495 366.056 59.2297L365.752 58.9703ZM360.663 62.8956C362.932 60.8209 364.481 58.1044 365.764 55.41L365.403 55.238C364.126 57.9196 362.604 60.579 360.393 62.6004L360.663 62.8956ZM365.725 55.1826C365.696 55.1536 365.661 55.115 365.613 55.0632C365.567 55.0143 365.513 54.958 365.456 54.905C365.399 54.8527 365.334 54.7986 365.264 54.7568C365.198 54.7165 365.108 54.676 365.008 54.676V55.076C365.003 55.076 365.018 55.0755 365.057 55.0992C365.094 55.1214 365.137 55.1553 365.184 55.199C365.231 55.242 365.277 55.2897 365.321 55.3368C365.362 55.381 365.407 55.4304 365.442 55.4654L365.725 55.1826ZM365.008 54.676C364.342 54.676 363.744 55.1082 363.228 55.7156C362.708 56.3287 362.241 57.1574 361.842 58.033C361.043 59.7845 360.494 61.769 360.331 62.714L360.725 62.782C360.882 61.871 361.421 59.9195 362.206 58.199C362.598 57.3386 363.047 56.5473 363.533 55.9744C364.024 55.3958 364.521 55.076 365.008 55.076V54.676ZM385.487 64.028L385.637 64.1609L385.637 64.1601L385.487 64.028ZM391.311 46.748L391.139 46.8495L391.142 46.8548L391.311 46.748ZM383.247 67.412C381.89 67.412 381.081 66.5381 380.601 65.3377C380.119 64.1327 379.991 62.6425 379.991 61.532H379.591C379.591 62.6615 379.72 64.2113 380.23 65.4863C380.742 66.7659 381.66 67.812 383.247 67.812V67.412ZM379.991 61.532C379.991 60.8715 380.118 58.7545 380.445 56.805C380.608 55.8292 380.819 54.9076 381.084 54.2343C381.217 53.8968 381.359 53.6342 381.506 53.4594C381.653 53.2845 381.786 53.22 381.903 53.22V52.82C381.621 52.82 381.387 52.9795 381.2 53.2019C381.013 53.4243 380.852 53.7322 380.712 54.0877C380.432 54.8004 380.215 55.7548 380.05 56.739C379.72 58.7095 379.591 60.8485 379.591 61.532H379.991ZM381.903 53.22C382.213 53.22 382.471 53.4191 382.471 53.724H382.871C382.871 53.1329 382.362 52.82 381.903 52.82V53.22ZM382.471 53.724C382.471 54.9862 382.282 56.2192 382.09 57.4696C381.898 58.7152 381.703 59.9782 381.703 61.276H382.103C382.103 60.0138 382.293 58.7808 382.485 57.5304C382.677 56.2848 382.871 55.0218 382.871 53.724H382.471ZM381.703 61.276C381.703 61.7226 381.703 62.8111 381.874 63.7905C381.96 64.2784 382.091 64.7571 382.297 65.1189C382.503 65.4822 382.81 65.764 383.247 65.764V65.364C383.013 65.364 382.815 65.2218 382.644 64.9211C382.472 64.6189 382.351 64.1936 382.268 63.7215C382.104 62.7809 382.103 61.7254 382.103 61.276H381.703ZM383.247 65.764C383.734 65.764 384.212 65.4872 384.612 65.1685C385.018 64.8449 385.38 64.4496 385.637 64.1609L385.338 63.8951C385.082 64.1824 384.74 64.5551 384.363 64.8555C383.979 65.1608 383.593 65.364 383.247 65.364V65.764ZM385.637 64.1601C388.483 60.9268 390.679 55.5048 390.679 51.228H390.279C390.279 55.3992 388.124 60.7292 385.337 63.8959L385.637 64.1601ZM390.679 51.228C390.679 50.5243 390.4 49.0752 389.906 47.8036C389.658 47.1664 389.351 46.5592 388.988 46.1077C388.628 45.6598 388.185 45.332 387.663 45.332V45.732C388.006 45.732 388.347 45.9482 388.676 46.3583C389.003 46.7648 389.293 47.3296 389.533 47.9484C390.015 49.1888 390.279 50.5877 390.279 51.228H390.679ZM387.663 45.332C387.463 45.332 387.303 45.3935 387.177 45.4407C387.047 45.4895 386.951 45.524 386.831 45.524V45.924C387.032 45.924 387.192 45.8625 387.318 45.8153C387.448 45.7665 387.544 45.732 387.663 45.732V45.332ZM386.831 45.524C386.622 45.524 386.455 45.3575 386.455 45.148H386.055C386.055 45.5785 386.401 45.924 386.831 45.924V45.524ZM386.455 45.148C386.455 44.883 386.627 44.6152 386.905 44.403C387.181 44.1919 387.524 44.068 387.791 44.068V43.668C387.419 43.668 386.993 43.8321 386.662 44.085C386.332 44.3368 386.055 44.709 386.055 45.148H386.455ZM387.791 44.068C388.417 44.068 389.088 44.471 389.703 45.046C390.31 45.6146 390.827 46.3186 391.139 46.8494L391.484 46.6466C391.156 46.0893 390.617 45.3534 389.976 44.754C389.342 44.161 388.574 43.668 387.791 43.668V44.068ZM391.142 46.8548C391.88 48.0232 392.007 49.1297 392.007 50.524H392.407C392.407 49.1023 392.278 47.9048 391.48 46.6412L391.142 46.8548ZM392.007 50.524C392.007 52.6665 391.136 56.9118 389.583 60.6228C388.807 62.4768 387.867 64.1833 386.791 65.4229C385.714 66.6647 384.524 67.412 383.247 67.412V67.812C384.691 67.812 385.981 66.9673 387.093 65.6851C388.208 64.4007 389.168 62.6512 389.952 60.7772C391.519 57.0322 392.407 52.7335 392.407 50.524H392.007ZM396.528 54.236L396.387 54.0945L396.384 54.0979L396.528 54.236ZM398.384 56.348L398.192 56.293L398.19 56.3011L398.384 56.348ZM410.736 56.796L410.776 56.5999L410.662 56.5773L410.586 56.6638L410.736 56.796ZM409.968 59.74L410.121 59.8688L410.125 59.8649L409.968 59.74ZM398.64 51.484L398.625 51.6834L398.633 51.684H398.64V51.484ZM398.768 47.004L398.76 47.204H398.768V47.004ZM398.768 66.516C397.295 66.516 396.218 65.9055 395.503 64.9706C394.784 64.0294 394.424 62.7474 394.424 61.404H394.024C394.024 62.8126 394.401 64.1866 395.185 65.2134C395.975 66.2465 397.17 66.916 398.768 66.916V66.516ZM394.424 61.404C394.424 60.8558 394.658 59.437 395.065 57.9694C395.268 57.2391 395.511 56.5042 395.785 55.8671C396.061 55.2261 396.362 54.7002 396.673 54.3741L396.384 54.0979C396.023 54.4758 395.7 55.0539 395.418 55.7089C395.134 56.3678 394.885 57.1209 394.68 57.8626C394.27 59.339 394.024 60.8002 394.024 61.404H394.424ZM396.67 54.3774C396.858 54.1892 397.152 54.18 397.424 54.18V53.78C397.185 53.78 396.711 53.7708 396.387 54.0946L396.67 54.3774ZM397.424 54.18C397.769 54.18 397.999 54.2797 398.144 54.4305C398.29 54.5828 398.376 54.815 398.376 55.132H398.776C398.776 54.745 398.67 54.4012 398.433 54.1535C398.193 53.9043 397.847 53.78 397.424 53.78V54.18ZM398.376 55.132C398.376 55.4925 398.316 55.8575 398.192 56.2931L398.577 56.4029C398.708 55.9425 398.776 55.5395 398.776 55.132H398.376ZM398.19 56.3011C397.969 57.2172 397.559 58.2881 397.195 59.3555C396.836 60.4073 396.52 61.4618 396.52 62.3H396.92C396.92 61.5382 397.212 60.5447 397.574 59.4845C397.93 58.4399 398.352 57.3348 398.579 56.3949L398.19 56.3011ZM396.52 62.3C396.52 63.0303 396.686 63.7339 397.08 64.26C397.481 64.7947 398.103 65.124 398.96 65.124V64.724C398.218 64.724 397.719 64.4453 397.4 64.02C397.075 63.5861 396.92 62.9777 396.92 62.3H396.52ZM398.96 65.124C399.933 65.124 401.018 64.7689 402.124 64.2105C403.232 63.6508 404.377 62.8787 405.475 62.026C407.671 60.3206 409.696 58.2794 410.886 56.9282L410.586 56.6638C409.409 58.0006 407.402 60.0234 405.23 61.71C404.144 62.5533 403.021 63.3092 401.943 63.8535C400.863 64.3991 399.843 64.724 398.96 64.724V65.124ZM410.697 56.9921C410.822 57.0171 410.948 57.0805 411.04 57.1662C411.131 57.2517 411.176 57.3461 411.176 57.436H411.576C411.576 57.2059 411.461 57.0123 411.313 56.8738C411.165 56.7355 410.971 56.6389 410.776 56.5999L410.697 56.9921ZM411.176 57.436C411.176 57.7847 410.986 58.1564 410.703 58.5416C410.564 58.731 410.408 58.9161 410.253 59.0964C410.099 59.2745 409.943 59.4513 409.812 59.6151L410.125 59.8649C410.249 59.7087 410.397 59.5415 410.556 59.3576C410.712 59.1759 410.877 58.981 411.026 58.7784C411.319 58.3796 411.576 57.9193 411.576 57.436H411.176ZM409.815 59.6113C408.641 61.0072 406.846 62.7387 404.854 64.1196C402.857 65.5045 400.69 66.516 398.768 66.516V66.916C400.814 66.916 403.064 65.8475 405.082 64.4484C407.106 63.0453 408.927 61.2888 410.121 59.8687L409.815 59.6113ZM398.656 51.2846C398.268 51.2548 397.927 51.1365 397.688 50.938C397.454 50.7444 397.304 50.4651 397.304 50.076H396.904C396.904 50.5829 397.106 50.9756 397.433 51.246C397.753 51.5115 398.181 51.6492 398.625 51.6834L398.656 51.2846ZM397.304 50.076C397.304 49.5379 397.353 48.7825 397.572 48.1762C397.682 47.874 397.829 47.6235 398.02 47.4535C398.206 47.288 398.444 47.1901 398.76 47.2038L398.777 46.8042C398.357 46.7859 398.018 46.92 397.754 47.1545C397.496 47.3845 397.319 47.7019 397.196 48.0398C396.952 48.7135 396.904 49.5261 396.904 50.076H397.304ZM398.768 47.204C398.853 47.204 398.977 47.2585 399.134 47.4009C399.284 47.5379 399.437 47.7321 399.575 47.9508C399.713 48.1685 399.831 48.4032 399.914 48.6158C399.999 48.8338 400.04 49.0098 400.04 49.116H400.44C400.44 48.9342 400.377 48.7022 400.287 48.4702C400.194 48.2328 400.064 47.9755 399.913 47.7372C399.764 47.4999 399.589 47.2741 399.403 47.1051C399.223 46.9415 399.004 46.804 398.768 46.804V47.204ZM400.04 49.116C400.04 49.5707 399.933 50.1282 399.697 50.5646C399.462 50.9978 399.118 51.284 398.64 51.284V51.684C399.315 51.684 399.771 51.2662 400.048 50.7554C400.323 50.2478 400.44 49.6213 400.44 49.116H400.04ZM419.93 57.116L420.128 57.0865L420.107 56.9475L419.97 56.9199L419.93 57.116ZM418.778 55.836L418.966 55.7658L418.82 55.3777L418.607 55.7331L418.778 55.836ZM418.458 52.508L418.434 52.7065L418.542 52.72L418.612 52.636L418.458 52.508ZM420.634 47.324L420.831 47.3609L420.831 47.3594L420.634 47.324ZM422.426 37.724L422.232 37.6755L422.232 37.6764L422.426 37.724ZM423.194 45.276L423.378 45.3559L423.378 45.3545L423.194 45.276ZM426.714 66.716L426.73 66.5166L426.73 66.5166L426.714 66.716ZM438.938 57.692L438.785 57.5638L438.778 57.572L438.938 57.692ZM439.578 56.668L439.539 56.4719L439.443 56.4911L439.399 56.5786L439.578 56.668ZM439.898 56.604L439.973 56.4183L439.917 56.3962L439.859 56.4079L439.898 56.604ZM440.218 56.732L440.411 56.6771L440.384 56.5827L440.293 56.5463L440.218 56.732ZM440.346 57.18H440.546V57.152L440.539 57.1251L440.346 57.18ZM439.642 58.78L439.478 58.6653L439.477 58.6671L439.642 58.78ZM411.802 63.9L411.606 63.8608L411.528 64.25L411.888 64.081L411.802 63.9ZM417.434 54.492H417.634V54.3077L417.451 54.2927L417.434 54.492ZM411.866 62.94L411.666 62.93V62.94H411.866ZM419.802 53.66L419.608 53.7085L419.661 53.918L419.866 53.8497L419.802 53.66ZM419.994 53.596L420.058 53.7857L420.194 53.7401V53.596H419.994ZM419.994 53.212H420.194V53.012H419.994V53.212ZM419.866 53.212V53.012H419.759L419.7 53.1011L419.866 53.212ZM419.738 53.404L419.572 53.2931L419.523 53.3667L419.544 53.4525L419.738 53.404ZM425.05 36.188L425.21 36.308L425.233 36.2785L425.243 36.2429L425.05 36.188ZM426.842 30.172L427.042 30.1873L426.673 30.066L426.842 30.172ZM424.858 36.444H424.658V37.044L425.018 36.564L424.858 36.444ZM426.842 67.988C425.346 67.988 424.231 67.576 423.385 66.9043C422.535 66.2302 421.94 65.2824 421.508 64.1866C420.64 61.9829 420.452 59.2553 420.128 57.0865L419.733 57.1455C420.049 59.2647 420.245 62.0731 421.136 64.3334C421.584 65.4696 422.214 66.4858 423.136 67.2177C424.062 67.952 425.267 68.388 426.842 68.388V67.988ZM419.97 56.9199C419.711 56.8681 419.509 56.7127 419.345 56.4983C419.179 56.2818 419.059 56.0157 418.966 55.7658L418.591 55.9062C418.689 56.1683 418.826 56.4782 419.028 56.7417C419.231 57.0073 419.51 57.2359 419.891 57.3121L419.97 56.9199ZM418.607 55.7331C418.263 56.3065 417.825 57.2928 417.321 58.43C416.815 59.574 416.237 60.883 415.608 62.1214C414.978 63.3615 414.302 64.5198 413.602 65.3655C412.894 66.2212 412.202 66.708 411.546 66.708V67.108C412.394 67.108 413.19 66.4908 413.91 65.6205C414.639 64.7402 415.331 63.5505 415.965 62.3026C416.599 61.053 417.182 59.734 417.687 58.592C418.196 57.4431 418.622 56.4855 418.95 55.9389L418.607 55.7331ZM411.546 66.708C411.141 66.708 410.838 66.5897 410.606 66.4031C410.37 66.214 410.196 65.9447 410.068 65.6257C409.811 64.9832 409.762 64.1836 409.762 63.58H409.362C409.362 64.1924 409.41 65.0568 409.697 65.7743C409.841 66.1353 410.05 66.47 410.355 66.7149C410.663 66.9623 411.056 67.108 411.546 67.108V66.708ZM409.762 63.58C409.762 61.6296 410.394 58.8295 411.611 56.5213C412.833 54.2046 414.605 52.452 416.858 52.452V52.052C414.375 52.052 412.5 53.9794 411.257 56.3347C410.011 58.6985 409.362 61.5624 409.362 63.58H409.762ZM416.858 52.452C417.125 52.452 417.38 52.4964 417.641 52.5516C417.895 52.6056 418.166 52.6731 418.434 52.7065L418.483 52.3095C418.238 52.2789 417.998 52.2184 417.724 52.1604C417.456 52.1036 417.168 52.052 416.858 52.052V52.452ZM418.612 52.636C418.789 52.4241 419.002 52.0488 419.221 51.6068C419.442 51.1594 419.678 50.6269 419.899 50.0879C420.339 49.0165 420.731 47.8953 420.831 47.3609L420.438 47.2871C420.346 47.7767 419.97 48.8635 419.529 49.9361C419.311 50.4691 419.078 50.9926 418.862 51.4292C418.643 51.8712 418.448 52.2079 418.305 52.38L418.612 52.636ZM420.831 47.3594C421.409 44.1482 421.855 40.8997 422.621 37.7716L422.232 37.6764C421.462 40.8203 421.011 44.0998 420.438 47.2886L420.831 47.3594ZM422.62 37.7725C422.875 36.755 423.768 33.627 424.877 30.756C425.432 29.3196 426.037 27.9562 426.639 26.9551C426.94 26.4539 427.236 26.0523 427.517 25.7784C427.803 25.5005 428.048 25.38 428.25 25.38V24.98C427.893 24.98 427.551 25.1875 427.239 25.4916C426.922 25.7997 426.606 26.2341 426.296 26.7489C425.676 27.7798 425.061 29.1684 424.504 30.612C423.388 33.501 422.49 36.645 422.232 37.6755L422.62 37.7725ZM428.25 25.38C428.473 25.38 428.713 25.4935 428.901 25.6814C429.089 25.8693 429.202 26.109 429.202 26.332H429.602C429.602 25.979 429.428 25.6426 429.184 25.3986C428.94 25.1545 428.603 24.98 428.25 24.98V25.38ZM429.202 26.332C429.202 27.4255 428.936 28.8773 428.5 30.5187C428.065 32.1568 427.465 33.9707 426.806 35.7837C425.489 39.4097 423.939 43.0207 423.01 45.1975L423.378 45.3545C424.306 43.1793 425.86 39.5583 427.182 35.9203C427.843 34.1013 428.448 32.2752 428.887 30.6213C429.325 28.9707 429.602 27.4785 429.602 26.332H429.202ZM423.011 45.1961C422.454 46.474 422.1 48.4362 421.884 50.4224C421.667 52.4146 421.586 54.4539 421.586 55.9H421.986C421.986 54.4661 422.066 52.4414 422.281 50.4656C422.497 48.4838 422.847 46.574 423.378 45.3559L423.011 45.1961ZM421.586 55.9C421.586 57.6232 421.585 60.2588 422.21 62.5134C422.522 63.6422 422.996 64.6909 423.717 65.4846C424.444 66.283 425.414 66.8153 426.699 66.9154L426.73 66.5166C425.55 66.4247 424.673 65.941 424.013 65.2154C423.349 64.4851 422.898 63.5018 422.595 62.4066C421.988 60.2132 421.986 57.6328 421.986 55.9H421.586ZM426.699 66.9154C427.761 66.9997 428.936 66.6329 430.121 66.0143C431.309 65.394 432.525 64.5099 433.676 63.5324C435.977 61.5775 438.035 59.2303 439.098 57.812L438.778 57.572C437.73 58.9697 435.692 61.2945 433.417 63.2276C432.279 64.1941 431.088 65.058 429.936 65.6597C428.78 66.2631 427.684 66.5923 426.73 66.5166L426.699 66.9154ZM439.092 57.82C439.428 57.4166 439.629 57.0142 439.757 56.7574L439.399 56.5786C439.272 56.8338 439.089 57.1993 438.785 57.564L439.092 57.82ZM439.618 56.8641L439.938 56.8001L439.859 56.4079L439.539 56.4719L439.618 56.8641ZM439.824 56.7897L440.144 56.9177L440.293 56.5463L439.973 56.4183L439.824 56.7897ZM440.026 56.7869L440.154 57.2349L440.539 57.1251L440.411 56.6771L440.026 56.7869ZM440.146 57.18C440.146 57.3324 440.094 57.543 439.979 57.8033C439.866 58.0605 439.697 58.3531 439.478 58.6653L439.806 58.8947C440.036 58.5669 440.219 58.2515 440.345 57.9647C440.471 57.681 440.546 57.4116 440.546 57.18H440.146ZM439.477 58.6671C438.24 60.4754 436.173 62.8132 433.86 64.6969C431.538 66.5877 429.009 67.988 426.842 67.988V68.388C429.156 68.388 431.778 66.9083 434.113 65.0071C436.456 63.0988 438.549 60.7326 439.807 58.8929L439.477 58.6671ZM411.888 64.081C411.982 64.0365 412.081 63.9613 412.179 63.8723C412.28 63.7813 412.39 63.6666 412.507 63.5333C412.741 63.2667 413.012 62.9163 413.304 62.5107C413.887 61.6988 414.56 60.6538 415.198 59.5866C415.836 58.5194 416.441 57.4264 416.887 56.5182C417.11 56.0643 417.294 55.6537 417.424 55.3139C417.55 54.9833 417.634 54.6929 417.634 54.492H417.234C417.234 54.6111 417.177 54.8387 417.05 55.1716C416.927 55.4953 416.748 55.8937 416.528 56.3418C416.088 57.2376 415.489 58.3206 414.855 59.3814C414.221 60.4422 413.554 61.4772 412.979 62.2773C412.691 62.6777 412.429 63.0163 412.207 63.2692C412.095 63.3957 411.996 63.4983 411.911 63.5758C411.823 63.6552 411.759 63.6995 411.717 63.719L411.888 64.081ZM417.451 54.2927C416.595 54.2228 415.811 54.592 415.127 55.1939C414.444 55.7952 413.845 56.6413 413.346 57.565C412.351 59.4096 411.732 61.6144 411.667 62.93L412.066 62.95C412.128 61.7056 412.725 59.5584 413.698 57.755C414.184 56.8547 414.757 56.0528 415.391 55.4941C416.026 54.936 416.706 54.6332 417.418 54.6913L417.451 54.2927ZM411.666 62.94C411.666 63.2631 411.666 63.5633 411.606 63.8608L411.998 63.9392C412.067 63.5967 412.066 63.2569 412.066 62.94H411.666ZM419.866 53.8497L420.058 53.7857L419.931 53.4063L419.739 53.4703L419.866 53.8497ZM420.194 53.596V53.212H419.794V53.596H420.194ZM419.994 53.012H419.866V53.412H419.994V53.012ZM419.7 53.1011L419.572 53.2931L419.905 53.5149L420.033 53.3229L419.7 53.1011ZM419.544 53.4525L419.608 53.7085L419.996 53.6115L419.932 53.3555L419.544 53.4525ZM425.243 36.2429C425.497 35.3534 425.908 34.2794 426.28 33.1969C426.647 32.1267 426.976 31.0481 427.042 30.1873L426.643 30.1567C426.581 30.9599 426.27 31.9933 425.901 33.0671C425.537 34.1286 425.116 35.2306 424.858 36.1331L425.243 36.2429ZM426.673 30.066C426.622 30.1466 426.555 30.2952 426.48 30.4777C426.403 30.6657 426.311 30.9049 426.21 31.1776C426.008 31.7231 425.769 32.4072 425.541 33.0928C425.312 33.7782 425.093 34.4667 424.931 35.0209C424.85 35.2978 424.783 35.5429 424.736 35.7381C424.691 35.9247 424.658 36.0881 424.658 36.188H425.058C425.058 36.1439 425.078 36.0273 425.125 35.8321C425.17 35.6456 425.235 35.4072 425.315 35.1331C425.475 34.5853 425.693 33.9018 425.92 33.2192C426.148 32.5368 426.385 31.8569 426.585 31.3164C426.685 31.0461 426.775 30.8118 426.85 30.63C426.927 30.4427 426.982 30.3254 427.012 30.278L426.673 30.066ZM424.658 36.188V36.444H425.058V36.188H424.658ZM425.018 36.564L425.21 36.308L424.89 36.068L424.698 36.324L425.018 36.564Z" fill="#4B6CFF" mask="url(#path-1-outside-1_365_70)"/>
</svg>
