<svg width="411" height="160" viewBox="0 0 411 160" fill="none" xmlns="http://www.w3.org/2000/svg">
<mask id="path-1-outside-1_334_4035" maskUnits="userSpaceOnUse" x="0" y="39.5" width="411" height="87" fill="black">
<rect fill="white" y="39.5" width="411" height="87"/>
<path d="M6.59874 125.86C2.39874 125.86 0.358744 121.18 0.358744 117.64C0.358744 111.1 4.79874 104.98 10.7987 102.52C13.8587 101.26 17.4587 100.72 20.6987 100.54C21.2387 98.62 21.8387 96.76 22.3187 94.84C25.5587 82.48 27.5387 69.94 30.0587 57.46C30.4787 55.48 32.8787 43.54 34.4987 43.54C35.1587 43.54 35.2787 43.66 35.2787 44.26C35.2787 47.02 33.8987 50.32 33.3587 53.02C32.8787 55.6 32.2787 58.18 31.7987 60.76C29.2187 74.14 26.7587 87.52 23.0387 100.6C36.0587 101.86 46.8587 106.18 59.1587 110.2C75.2987 115.42 94.2588 120.94 111.239 120.94C114.179 120.94 122.579 120.94 122.579 116.68C122.579 115.66 121.319 115.18 121.319 114.58C121.319 114.34 121.499 114.16 121.739 114.16C122.819 114.16 123.719 115.96 123.719 116.86C123.719 122.32 114.839 122.74 110.939 122.74C94.2588 122.74 74.7587 117.04 58.7987 112.06C47.8787 108.7 37.1387 104.5 25.7387 103.06C24.5987 102.94 23.4587 102.82 22.3787 102.82C21.5387 105.22 20.7587 107.62 19.7987 109.9C17.8787 114.76 12.6587 125.86 6.59874 125.86ZM6.23874 123.88C7.25874 123.88 8.87874 123.28 9.65874 122.62C13.1987 119.68 15.8387 113.98 17.5187 109.84C18.4187 107.5 19.2587 105.04 20.0987 102.76C14.3387 103.3 8.39874 104.56 4.97874 109.6C3.35874 112 2.39874 114.76 2.39874 117.64C2.39874 119.86 3.47874 123.88 6.23874 123.88ZM39.6198 93.76C38.4198 93.76 37.8198 92.56 37.8198 91.48C37.8198 88.24 40.5198 81.82 44.3598 81.82C45.4398 81.82 47.2998 83.44 47.2998 84.52C47.2998 86.26 46.9398 90.82 49.7598 90.82C52.3998 90.82 57.3198 86.08 57.9798 86.08C58.0998 86.08 58.1598 86.14 58.2798 86.14C58.3398 86.26 58.4598 86.44 58.4598 86.56C58.4598 87.64 53.5998 91 52.5198 91.6C51.6198 92.08 50.4798 92.5 49.4598 92.5C46.9998 92.5 45.5598 90.16 45.1998 88C43.8198 89.62 42.0798 93.76 39.6198 93.76ZM40.1598 91.42C42.2598 89.5 43.6998 86.98 44.8998 84.46C44.7798 84.34 44.5398 84.04 44.3598 84.04C42.1998 84.04 40.4598 89.68 40.1598 91.42ZM61.5794 93.16C60.0794 93.16 60.0794 91.24 60.0794 90.22C60.0794 88.96 61.0394 83.62 61.5794 82.66C61.8194 82.3 62.1194 82.18 62.5394 82.18C63.0194 82.24 63.3794 82.66 63.3794 83.14C63.3794 85.54 61.9994 87.76 61.9994 90.22V90.58C62.9594 90.64 66.7994 83.08 67.9994 83.2C68.4194 83.2 68.7794 83.68 68.7794 84.1C68.7794 85.66 68.4194 87.16 68.4194 88.72C68.4194 89.14 68.4194 91.36 69.1394 91.36C71.1194 91.36 75.0794 85.9 75.9794 85.96C76.2194 85.96 76.4594 86.2 76.4594 86.44C75.4994 88.48 71.1794 93.22 68.8394 93.1C66.0794 92.86 66.5594 89.62 66.2594 88C65.5394 89.02 62.7794 93.16 61.5794 93.16ZM85.412 99.16C83.492 99.16 83.252 96.82 83.252 95.38C83.252 93.1 83.852 90.82 84.212 88.6C82.532 87.7 78.152 88.42 78.152 85.6C78.152 84.46 79.112 82.42 80.432 82.42C81.212 82.42 81.632 83.08 81.632 83.8C81.632 84.58 81.152 85.24 80.852 85.9C81.512 86.68 86.072 85.72 86.072 89.02C86.072 91.6 85.112 94.12 85.112 96.7C85.112 97 85.172 97.3 85.412 97.54C87.752 97 95.312 86.08 95.972 86.08C96.212 86.08 96.392 86.32 96.392 86.56C96.392 88.24 87.332 99.16 85.412 99.16ZM113.337 96.28C111.957 96.28 111.717 94.78 111.837 93.76C112.197 90.76 111.897 89.62 112.617 87.28C112.377 87.4 112.197 87.64 112.017 87.82C109.377 90.76 105.537 95.14 101.277 95.14C98.6969 95.14 97.6169 93.16 97.6169 90.82C97.6169 88.54 99.9569 81.7 102.717 81.7C103.617 81.7 104.217 82.48 104.217 83.32C104.217 85.36 101.697 89.08 99.7169 89.68C99.5969 90.16 99.5369 90.64 99.5369 91.12C99.5369 92.44 99.7769 93.58 101.397 93.58C107.337 93.58 113.097 82.54 114.657 82.54C115.377 82.54 115.737 83.38 115.737 83.98C115.737 85.3 115.257 86.62 115.017 87.88C114.657 89.62 114.477 91.36 114.237 93.1L114.297 93.28C116.097 90.46 119.637 83.5 121.677 83.5C124.617 83.5 122.217 92.74 124.857 92.74C128.157 92.74 133.317 85.9 133.857 85.9C134.217 85.9 134.397 86.2 134.397 86.5C134.397 88.84 127.257 94.48 124.917 94.48C121.197 94.48 121.497 88.72 121.077 86.56C119.337 87.7 116.577 93.52 114.777 95.62C114.417 96.04 113.937 96.28 113.337 96.28ZM100.377 87.58C101.097 86.92 102.597 84.82 102.597 83.8V83.62C101.457 84.52 100.677 86.2 100.197 87.52L100.377 87.58ZM170.043 104.5C169.383 104.5 169.263 103.66 169.203 103.24C169.083 102.64 169.083 102.1 169.083 101.56C169.083 100.66 169.143 99.7 169.203 98.68C165.723 98.68 160.803 97.6 160.803 93.16C160.803 88 167.882 84.64 171.483 82.3C169.743 81.76 164.943 80.68 164.943 78.22C164.943 75.4 170.163 73.54 172.323 72.82C172.383 71.98 172.443 68.38 173.403 68.38C173.823 68.38 174.062 68.8 174.062 69.16C174.183 70.24 173.943 71.26 173.883 72.4C174.663 72.34 175.503 72.16 176.283 72.16C177.243 72.16 179.883 72.34 180.003 73.72V73.9C180.003 74.2 179.703 74.68 179.343 74.68C178.923 74.68 178.803 74.2 178.683 73.9C178.323 73.72 177.963 73.72 177.603 73.72C176.223 73.72 174.902 73.78 173.703 74.26C173.703 74.68 173.583 75.46 173.103 75.46C172.683 75.46 172.503 75.04 172.323 74.68C171.063 74.86 166.203 76.96 166.503 78.28C166.683 79.96 174.003 80.02 174.363 82.3C174.363 82.42 174.423 82.48 174.423 82.6C174.423 83.02 174.243 83.44 173.883 83.56C171.663 84.52 169.203 85.9 167.043 87.46C165.843 88.42 164.703 89.5 163.803 90.82C163.263 91.6 162.663 92.74 162.843 93.88C163.083 95.44 165.303 96.22 166.683 96.58C167.163 96.64 167.583 96.7 168.003 96.7C168.483 96.7 169.023 96.64 169.623 96.58C169.743 96.1 170.103 95.14 170.763 95.14C171.183 95.14 171.543 95.56 171.543 95.92V96.22C175.143 95.38 178.923 94.24 182.223 92.8C182.523 92.68 182.883 92.5 183.123 92.5C183.483 92.5 183.843 92.68 183.843 93.04C184.083 94.6 173.163 97.72 171.363 98.26C171.003 100.18 171.063 102.22 170.583 104.08C170.463 104.38 170.403 104.5 170.043 104.5ZM257.013 122.86C250.473 122.86 238.053 120.04 238.053 111.64C238.053 103.9 249.033 97.48 255.333 94.78C256.593 94.24 258.093 93.7 259.473 93.1C259.833 89.92 260.073 88.12 260.373 85.6C260.673 83.5 260.853 81.34 261.153 79.24C261.993 72.22 262.713 65.2 263.853 58.24C264.093 56.92 265.113 49.78 265.533 49.06C265.653 48.88 265.893 48.76 266.133 48.76C266.973 48.76 267.273 49.42 267.213 50.08C266.973 54.28 266.073 58.54 265.533 62.68C264.633 69.82 263.793 76.96 262.953 84.1C262.593 86.68 262.173 89.44 261.933 92.02C265.713 90.94 269.553 89.62 273.393 88.72C284.673 85.96 297.033 84.28 308.673 84.1C309.393 81.52 309.873 78.04 309.873 75.34C309.873 70.54 308.853 65.68 306.753 61.3C299.793 46.48 285.453 42.16 270.093 42.16C251.133 42.16 227.853 49.96 216.813 66.22C215.013 68.86 213.453 72.22 213.453 75.46C213.453 78.4 215.313 80.56 217.473 82.36L217.653 82.54C217.653 82.9 217.593 83.44 217.113 83.44C215.853 83.44 213.753 80.92 213.093 79.96C212.313 78.76 212.073 78.16 211.833 76.84C211.713 76.36 211.713 75.76 211.713 75.28C211.713 71.26 214.113 66.76 216.513 63.64C228.333 48.1 250.653 40.3 269.733 40.3C285.273 40.3 300.033 44.14 307.833 58.84C310.473 63.76 312.033 69.4 312.033 74.92C312.033 76.48 311.913 78.16 311.673 79.72C311.553 81.16 311.373 82.72 311.013 84.1C313.053 84.1 325.533 84.16 325.533 86.68C325.533 86.86 325.353 87.16 325.113 87.16C324.513 87.16 324.033 86.8 323.493 86.68C321.093 86.02 318.453 86.14 315.933 85.96C315.033 85.9 314.133 85.9 313.233 85.9H310.533C308.913 90.22 306.993 94.66 304.293 98.44C293.913 113.02 274.893 122.86 257.013 122.86ZM257.373 121.06C269.673 121.06 284.073 115.12 293.553 107.44C297.093 104.56 300.213 101.08 302.733 97.24C304.053 95.26 307.533 87.94 308.133 85.78C305.433 85.9 302.733 86.08 300.033 86.26C288.873 87.22 278.013 89.14 267.273 92.32C266.253 92.62 263.553 93.34 261.753 94.06C261.453 96.04 261.273 98.56 261.033 100.6C260.673 104.26 260.133 107.98 260.133 111.64V112.18C260.133 112.66 260.073 113.08 259.293 113.08C258.213 113.08 258.093 111.82 258.093 110.86C258.093 107.26 258.393 103.66 258.753 100.18C258.933 98.5 259.113 96.7 259.233 95.02C257.493 95.8 255.333 96.7 253.593 97.54C248.793 99.94 239.793 105.46 239.793 111.52C239.793 119.08 251.673 121.06 257.373 121.06ZM327.814 93.76C326.614 93.76 326.014 92.56 326.014 91.48C326.014 88.24 328.714 81.82 332.554 81.82C333.634 81.82 335.494 83.44 335.494 84.52C335.494 86.26 335.134 90.82 337.954 90.82C340.594 90.82 345.514 86.08 346.174 86.08C346.294 86.08 346.354 86.14 346.474 86.14C346.534 86.26 346.654 86.44 346.654 86.56C346.654 87.64 341.794 91 340.714 91.6C339.814 92.08 338.674 92.5 337.654 92.5C335.194 92.5 333.754 90.16 333.394 88C332.014 89.62 330.274 93.76 327.814 93.76ZM328.354 91.42C330.454 89.5 331.894 86.98 333.094 84.46C332.974 84.34 332.734 84.04 332.554 84.04C330.394 84.04 328.654 89.68 328.354 91.42ZM352.054 95.98C349.294 95.98 348.814 92.38 348.814 90.28C348.814 89.02 349.294 82.3 350.794 82.3C351.154 82.3 351.514 82.54 351.514 82.96C351.514 85.36 350.794 87.64 350.794 90.04C350.794 90.88 350.794 94.06 352.054 94.06C352.834 94.06 353.674 93.16 354.154 92.62C356.794 89.62 358.834 84.58 358.834 80.62C358.834 79.36 357.814 75.28 356.194 75.28C355.894 75.28 355.714 75.46 355.414 75.46C355.114 75.46 354.874 75.22 354.874 74.92C354.874 74.26 355.714 73.72 356.314 73.72C357.634 73.72 359.014 75.4 359.614 76.42C360.334 77.56 360.454 78.64 360.454 79.96C360.454 84.04 357.154 95.98 352.054 95.98ZM369.005 95.14C366.125 95.14 364.745 92.74 364.745 90.16C364.745 89.08 365.645 84.76 366.905 83.44C367.145 83.2 367.505 83.2 367.745 83.2C368.465 83.2 368.825 83.62 368.825 84.28C368.825 84.64 368.765 85 368.645 85.42C368.225 87.16 367.085 89.5 367.085 91C367.085 92.32 367.685 93.46 369.185 93.46C372.665 93.46 378.005 88.36 380.225 85.84C380.525 85.9 380.825 86.14 380.825 86.44C380.825 87.22 379.985 88 379.505 88.6C377.285 91.24 372.725 95.14 369.005 95.14ZM368.885 80.86C368.105 80.8 367.445 80.38 367.445 79.54C367.445 78.52 367.625 76.6 369.005 76.66C369.605 76.66 370.385 78.1 370.385 78.64C370.385 79.54 369.965 80.86 368.885 80.86ZM397.724 96.52C391.964 96.52 391.844 90.16 391.244 86.14C390.644 86.02 390.344 85.42 390.164 84.94C388.904 87.04 386.204 95.32 383.384 95.32C381.704 95.32 381.524 93.34 381.524 92.2C381.524 88.48 383.924 81.58 388.364 81.58C388.904 81.58 389.384 81.76 389.864 81.82C390.464 81.1 391.724 77.92 391.904 76.96C392.444 73.96 392.864 70.9 393.584 67.96C394.064 66.04 396.944 56.2 399.044 56.2C399.584 56.2 400.124 56.74 400.124 57.28C400.124 61.48 396.044 70.96 394.304 75.04C393.284 77.38 392.984 82.3 392.984 85C392.984 88.24 392.984 94.78 397.604 95.14C401.384 95.44 407.084 89.32 409.064 86.68C409.364 86.32 409.544 85.96 409.664 85.72L409.964 85.66L410.264 85.78L410.384 86.2C410.384 86.56 410.144 87.1 409.724 87.7C407.384 91.12 401.924 96.52 397.724 96.52ZM383.624 92.5C384.644 92.02 388.904 84.88 388.904 83.68C385.964 83.44 383.804 89.2 383.684 91.6C383.684 91.9 383.684 92.2 383.624 92.5ZM391.124 82.9L391.304 82.84V82.48H391.184L391.064 82.66L391.124 82.9ZM396.044 66.52C396.524 64.84 397.604 62.44 397.724 60.88C397.424 61.36 395.864 65.98 395.864 66.52V66.76L396.044 66.52Z"/>
</mask>
<path d="M6.59874 125.86C2.39874 125.86 0.358744 121.18 0.358744 117.64C0.358744 111.1 4.79874 104.98 10.7987 102.52C13.8587 101.26 17.4587 100.72 20.6987 100.54C21.2387 98.62 21.8387 96.76 22.3187 94.84C25.5587 82.48 27.5387 69.94 30.0587 57.46C30.4787 55.48 32.8787 43.54 34.4987 43.54C35.1587 43.54 35.2787 43.66 35.2787 44.26C35.2787 47.02 33.8987 50.32 33.3587 53.02C32.8787 55.6 32.2787 58.18 31.7987 60.76C29.2187 74.14 26.7587 87.52 23.0387 100.6C36.0587 101.86 46.8587 106.18 59.1587 110.2C75.2987 115.42 94.2588 120.94 111.239 120.94C114.179 120.94 122.579 120.94 122.579 116.68C122.579 115.66 121.319 115.18 121.319 114.58C121.319 114.34 121.499 114.16 121.739 114.16C122.819 114.16 123.719 115.96 123.719 116.86C123.719 122.32 114.839 122.74 110.939 122.74C94.2588 122.74 74.7587 117.04 58.7987 112.06C47.8787 108.7 37.1387 104.5 25.7387 103.06C24.5987 102.94 23.4587 102.82 22.3787 102.82C21.5387 105.22 20.7587 107.62 19.7987 109.9C17.8787 114.76 12.6587 125.86 6.59874 125.86ZM6.23874 123.88C7.25874 123.88 8.87874 123.28 9.65874 122.62C13.1987 119.68 15.8387 113.98 17.5187 109.84C18.4187 107.5 19.2587 105.04 20.0987 102.76C14.3387 103.3 8.39874 104.56 4.97874 109.6C3.35874 112 2.39874 114.76 2.39874 117.64C2.39874 119.86 3.47874 123.88 6.23874 123.88ZM39.6198 93.76C38.4198 93.76 37.8198 92.56 37.8198 91.48C37.8198 88.24 40.5198 81.82 44.3598 81.82C45.4398 81.82 47.2998 83.44 47.2998 84.52C47.2998 86.26 46.9398 90.82 49.7598 90.82C52.3998 90.82 57.3198 86.08 57.9798 86.08C58.0998 86.08 58.1598 86.14 58.2798 86.14C58.3398 86.26 58.4598 86.44 58.4598 86.56C58.4598 87.64 53.5998 91 52.5198 91.6C51.6198 92.08 50.4798 92.5 49.4598 92.5C46.9998 92.5 45.5598 90.16 45.1998 88C43.8198 89.62 42.0798 93.76 39.6198 93.76ZM40.1598 91.42C42.2598 89.5 43.6998 86.98 44.8998 84.46C44.7798 84.34 44.5398 84.04 44.3598 84.04C42.1998 84.04 40.4598 89.68 40.1598 91.42ZM61.5794 93.16C60.0794 93.16 60.0794 91.24 60.0794 90.22C60.0794 88.96 61.0394 83.62 61.5794 82.66C61.8194 82.3 62.1194 82.18 62.5394 82.18C63.0194 82.24 63.3794 82.66 63.3794 83.14C63.3794 85.54 61.9994 87.76 61.9994 90.22V90.58C62.9594 90.64 66.7994 83.08 67.9994 83.2C68.4194 83.2 68.7794 83.68 68.7794 84.1C68.7794 85.66 68.4194 87.16 68.4194 88.72C68.4194 89.14 68.4194 91.36 69.1394 91.36C71.1194 91.36 75.0794 85.9 75.9794 85.96C76.2194 85.96 76.4594 86.2 76.4594 86.44C75.4994 88.48 71.1794 93.22 68.8394 93.1C66.0794 92.86 66.5594 89.62 66.2594 88C65.5394 89.02 62.7794 93.16 61.5794 93.16ZM85.412 99.16C83.492 99.16 83.252 96.82 83.252 95.38C83.252 93.1 83.852 90.82 84.212 88.6C82.532 87.7 78.152 88.42 78.152 85.6C78.152 84.46 79.112 82.42 80.432 82.42C81.212 82.42 81.632 83.08 81.632 83.8C81.632 84.58 81.152 85.24 80.852 85.9C81.512 86.68 86.072 85.72 86.072 89.02C86.072 91.6 85.112 94.12 85.112 96.7C85.112 97 85.172 97.3 85.412 97.54C87.752 97 95.312 86.08 95.972 86.08C96.212 86.08 96.392 86.32 96.392 86.56C96.392 88.24 87.332 99.16 85.412 99.16ZM113.337 96.28C111.957 96.28 111.717 94.78 111.837 93.76C112.197 90.76 111.897 89.62 112.617 87.28C112.377 87.4 112.197 87.64 112.017 87.82C109.377 90.76 105.537 95.14 101.277 95.14C98.6969 95.14 97.6169 93.16 97.6169 90.82C97.6169 88.54 99.9569 81.7 102.717 81.7C103.617 81.7 104.217 82.48 104.217 83.32C104.217 85.36 101.697 89.08 99.7169 89.68C99.5969 90.16 99.5369 90.64 99.5369 91.12C99.5369 92.44 99.7769 93.58 101.397 93.58C107.337 93.58 113.097 82.54 114.657 82.54C115.377 82.54 115.737 83.38 115.737 83.98C115.737 85.3 115.257 86.62 115.017 87.88C114.657 89.62 114.477 91.36 114.237 93.1L114.297 93.28C116.097 90.46 119.637 83.5 121.677 83.5C124.617 83.5 122.217 92.74 124.857 92.74C128.157 92.74 133.317 85.9 133.857 85.9C134.217 85.9 134.397 86.2 134.397 86.5C134.397 88.84 127.257 94.48 124.917 94.48C121.197 94.48 121.497 88.72 121.077 86.56C119.337 87.7 116.577 93.52 114.777 95.62C114.417 96.04 113.937 96.28 113.337 96.28ZM100.377 87.58C101.097 86.92 102.597 84.82 102.597 83.8V83.62C101.457 84.52 100.677 86.2 100.197 87.52L100.377 87.58ZM170.043 104.5C169.383 104.5 169.263 103.66 169.203 103.24C169.083 102.64 169.083 102.1 169.083 101.56C169.083 100.66 169.143 99.7 169.203 98.68C165.723 98.68 160.803 97.6 160.803 93.16C160.803 88 167.882 84.64 171.483 82.3C169.743 81.76 164.943 80.68 164.943 78.22C164.943 75.4 170.163 73.54 172.323 72.82C172.383 71.98 172.443 68.38 173.403 68.38C173.823 68.38 174.062 68.8 174.062 69.16C174.183 70.24 173.943 71.26 173.883 72.4C174.663 72.34 175.503 72.16 176.283 72.16C177.243 72.16 179.883 72.34 180.003 73.72V73.9C180.003 74.2 179.703 74.68 179.343 74.68C178.923 74.68 178.803 74.2 178.683 73.9C178.323 73.72 177.963 73.72 177.603 73.72C176.223 73.72 174.902 73.78 173.703 74.26C173.703 74.68 173.583 75.46 173.103 75.46C172.683 75.46 172.503 75.04 172.323 74.68C171.063 74.86 166.203 76.96 166.503 78.28C166.683 79.96 174.003 80.02 174.363 82.3C174.363 82.42 174.423 82.48 174.423 82.6C174.423 83.02 174.243 83.44 173.883 83.56C171.663 84.52 169.203 85.9 167.043 87.46C165.843 88.42 164.703 89.5 163.803 90.82C163.263 91.6 162.663 92.74 162.843 93.88C163.083 95.44 165.303 96.22 166.683 96.58C167.163 96.64 167.583 96.7 168.003 96.7C168.483 96.7 169.023 96.64 169.623 96.58C169.743 96.1 170.103 95.14 170.763 95.14C171.183 95.14 171.543 95.56 171.543 95.92V96.22C175.143 95.38 178.923 94.24 182.223 92.8C182.523 92.68 182.883 92.5 183.123 92.5C183.483 92.5 183.843 92.68 183.843 93.04C184.083 94.6 173.163 97.72 171.363 98.26C171.003 100.18 171.063 102.22 170.583 104.08C170.463 104.38 170.403 104.5 170.043 104.5ZM257.013 122.86C250.473 122.86 238.053 120.04 238.053 111.64C238.053 103.9 249.033 97.48 255.333 94.78C256.593 94.24 258.093 93.7 259.473 93.1C259.833 89.92 260.073 88.12 260.373 85.6C260.673 83.5 260.853 81.34 261.153 79.24C261.993 72.22 262.713 65.2 263.853 58.24C264.093 56.92 265.113 49.78 265.533 49.06C265.653 48.88 265.893 48.76 266.133 48.76C266.973 48.76 267.273 49.42 267.213 50.08C266.973 54.28 266.073 58.54 265.533 62.68C264.633 69.82 263.793 76.96 262.953 84.1C262.593 86.68 262.173 89.44 261.933 92.02C265.713 90.94 269.553 89.62 273.393 88.72C284.673 85.96 297.033 84.28 308.673 84.1C309.393 81.52 309.873 78.04 309.873 75.34C309.873 70.54 308.853 65.68 306.753 61.3C299.793 46.48 285.453 42.16 270.093 42.16C251.133 42.16 227.853 49.96 216.813 66.22C215.013 68.86 213.453 72.22 213.453 75.46C213.453 78.4 215.313 80.56 217.473 82.36L217.653 82.54C217.653 82.9 217.593 83.44 217.113 83.44C215.853 83.44 213.753 80.92 213.093 79.96C212.313 78.76 212.073 78.16 211.833 76.84C211.713 76.36 211.713 75.76 211.713 75.28C211.713 71.26 214.113 66.76 216.513 63.64C228.333 48.1 250.653 40.3 269.733 40.3C285.273 40.3 300.033 44.14 307.833 58.84C310.473 63.76 312.033 69.4 312.033 74.92C312.033 76.48 311.913 78.16 311.673 79.72C311.553 81.16 311.373 82.72 311.013 84.1C313.053 84.1 325.533 84.16 325.533 86.68C325.533 86.86 325.353 87.16 325.113 87.16C324.513 87.16 324.033 86.8 323.493 86.68C321.093 86.02 318.453 86.14 315.933 85.96C315.033 85.9 314.133 85.9 313.233 85.9H310.533C308.913 90.22 306.993 94.66 304.293 98.44C293.913 113.02 274.893 122.86 257.013 122.86ZM257.373 121.06C269.673 121.06 284.073 115.12 293.553 107.44C297.093 104.56 300.213 101.08 302.733 97.24C304.053 95.26 307.533 87.94 308.133 85.78C305.433 85.9 302.733 86.08 300.033 86.26C288.873 87.22 278.013 89.14 267.273 92.32C266.253 92.62 263.553 93.34 261.753 94.06C261.453 96.04 261.273 98.56 261.033 100.6C260.673 104.26 260.133 107.98 260.133 111.64V112.18C260.133 112.66 260.073 113.08 259.293 113.08C258.213 113.08 258.093 111.82 258.093 110.86C258.093 107.26 258.393 103.66 258.753 100.18C258.933 98.5 259.113 96.7 259.233 95.02C257.493 95.8 255.333 96.7 253.593 97.54C248.793 99.94 239.793 105.46 239.793 111.52C239.793 119.08 251.673 121.06 257.373 121.06ZM327.814 93.76C326.614 93.76 326.014 92.56 326.014 91.48C326.014 88.24 328.714 81.82 332.554 81.82C333.634 81.82 335.494 83.44 335.494 84.52C335.494 86.26 335.134 90.82 337.954 90.82C340.594 90.82 345.514 86.08 346.174 86.08C346.294 86.08 346.354 86.14 346.474 86.14C346.534 86.26 346.654 86.44 346.654 86.56C346.654 87.64 341.794 91 340.714 91.6C339.814 92.08 338.674 92.5 337.654 92.5C335.194 92.5 333.754 90.16 333.394 88C332.014 89.62 330.274 93.76 327.814 93.76ZM328.354 91.42C330.454 89.5 331.894 86.98 333.094 84.46C332.974 84.34 332.734 84.04 332.554 84.04C330.394 84.04 328.654 89.68 328.354 91.42ZM352.054 95.98C349.294 95.98 348.814 92.38 348.814 90.28C348.814 89.02 349.294 82.3 350.794 82.3C351.154 82.3 351.514 82.54 351.514 82.96C351.514 85.36 350.794 87.64 350.794 90.04C350.794 90.88 350.794 94.06 352.054 94.06C352.834 94.06 353.674 93.16 354.154 92.62C356.794 89.62 358.834 84.58 358.834 80.62C358.834 79.36 357.814 75.28 356.194 75.28C355.894 75.28 355.714 75.46 355.414 75.46C355.114 75.46 354.874 75.22 354.874 74.92C354.874 74.26 355.714 73.72 356.314 73.72C357.634 73.72 359.014 75.4 359.614 76.42C360.334 77.56 360.454 78.64 360.454 79.96C360.454 84.04 357.154 95.98 352.054 95.98ZM369.005 95.14C366.125 95.14 364.745 92.74 364.745 90.16C364.745 89.08 365.645 84.76 366.905 83.44C367.145 83.2 367.505 83.2 367.745 83.2C368.465 83.2 368.825 83.62 368.825 84.28C368.825 84.64 368.765 85 368.645 85.42C368.225 87.16 367.085 89.5 367.085 91C367.085 92.32 367.685 93.46 369.185 93.46C372.665 93.46 378.005 88.36 380.225 85.84C380.525 85.9 380.825 86.14 380.825 86.44C380.825 87.22 379.985 88 379.505 88.6C377.285 91.24 372.725 95.14 369.005 95.14ZM368.885 80.86C368.105 80.8 367.445 80.38 367.445 79.54C367.445 78.52 367.625 76.6 369.005 76.66C369.605 76.66 370.385 78.1 370.385 78.64C370.385 79.54 369.965 80.86 368.885 80.86ZM397.724 96.52C391.964 96.52 391.844 90.16 391.244 86.14C390.644 86.02 390.344 85.42 390.164 84.94C388.904 87.04 386.204 95.32 383.384 95.32C381.704 95.32 381.524 93.34 381.524 92.2C381.524 88.48 383.924 81.58 388.364 81.58C388.904 81.58 389.384 81.76 389.864 81.82C390.464 81.1 391.724 77.92 391.904 76.96C392.444 73.96 392.864 70.9 393.584 67.96C394.064 66.04 396.944 56.2 399.044 56.2C399.584 56.2 400.124 56.74 400.124 57.28C400.124 61.48 396.044 70.96 394.304 75.04C393.284 77.38 392.984 82.3 392.984 85C392.984 88.24 392.984 94.78 397.604 95.14C401.384 95.44 407.084 89.32 409.064 86.68C409.364 86.32 409.544 85.96 409.664 85.72L409.964 85.66L410.264 85.78L410.384 86.2C410.384 86.56 410.144 87.1 409.724 87.7C407.384 91.12 401.924 96.52 397.724 96.52ZM383.624 92.5C384.644 92.02 388.904 84.88 388.904 83.68C385.964 83.44 383.804 89.2 383.684 91.6C383.684 91.9 383.684 92.2 383.624 92.5ZM391.124 82.9L391.304 82.84V82.48H391.184L391.064 82.66L391.124 82.9ZM396.044 66.52C396.524 64.84 397.604 62.44 397.724 60.88C397.424 61.36 395.864 65.98 395.864 66.52V66.76L396.044 66.52Z" fill="#4B6CFF"/>
<path d="M10.7987 102.52L10.8746 102.705L10.8749 102.705L10.7987 102.52ZM20.6987 100.54L20.7098 100.74L20.8526 100.732L20.8913 100.594L20.6987 100.54ZM22.3187 94.84L22.1253 94.7893L22.1247 94.7915L22.3187 94.84ZM30.0587 57.46L29.8631 57.4185L29.8627 57.4204L30.0587 57.46ZM33.3587 53.02L33.1626 52.9808L33.1621 52.9834L33.3587 53.02ZM31.7987 60.76L31.9951 60.7979L31.9954 60.7966L31.7987 60.76ZM23.0387 100.6L22.8464 100.545L22.7808 100.776L23.0195 100.799L23.0387 100.6ZM59.1587 110.2L59.0966 110.39L59.0972 110.39L59.1587 110.2ZM58.7987 112.06L58.8583 111.869L58.8576 111.869L58.7987 112.06ZM25.7387 103.06L25.7638 102.862L25.7597 102.861L25.7387 103.06ZM22.3787 102.82V102.62H22.2368L22.19 102.754L22.3787 102.82ZM19.7987 109.9L19.6144 109.822L19.6127 109.827L19.7987 109.9ZM9.65874 122.62L9.53096 122.466L9.52956 122.467L9.65874 122.62ZM17.5187 109.84L17.7041 109.915L17.7054 109.912L17.5187 109.84ZM20.0987 102.76L20.2864 102.829L20.3962 102.531L20.0801 102.561L20.0987 102.76ZM4.97874 109.6L4.81325 109.488L4.81297 109.488L4.97874 109.6ZM6.59874 125.66C4.585 125.66 3.08128 124.542 2.07206 122.969C1.06031 121.393 0.558744 119.377 0.558744 117.64H0.158744C0.158744 119.443 0.677176 121.537 1.73543 123.186C2.7962 124.838 4.41249 126.06 6.59874 126.06V125.66ZM0.558744 117.64C0.558744 111.188 4.94359 105.137 10.8746 102.705L10.7229 102.335C4.65389 104.823 0.158744 111.012 0.158744 117.64H0.558744ZM10.8749 102.705C13.9057 101.457 17.4806 100.919 20.7098 100.74L20.6877 100.34C17.4369 100.521 13.8118 101.063 10.7226 102.335L10.8749 102.705ZM20.8913 100.594C21.4282 98.6849 22.0321 96.8111 22.5128 94.8885L22.1247 94.7915C21.6454 96.7089 21.0492 98.5551 20.5062 100.486L20.8913 100.594ZM22.5122 94.8907C25.7541 82.5236 27.7371 69.9683 30.2548 57.4996L29.8627 57.4204C27.3404 69.9117 25.3634 82.4364 22.1253 94.7893L22.5122 94.8907ZM30.2544 57.5015C30.4649 56.5092 31.1687 53.0352 32.0221 49.8086C32.4491 48.1944 32.9116 46.6495 33.3664 45.5107C33.5942 44.9401 33.8164 44.4812 34.0262 44.1683C34.1312 44.0116 34.2278 43.8998 34.3137 43.8289C34.4003 43.7576 34.4608 43.74 34.4987 43.74V43.34C34.3342 43.34 34.1861 43.4157 34.0593 43.5203C33.9319 43.6253 33.8104 43.7718 33.694 43.9455C33.4608 44.2933 33.2264 44.7827 32.9949 45.3624C32.5309 46.5243 32.0634 48.0881 31.6354 49.7064C30.7788 52.9448 30.0726 56.4308 29.8631 57.4185L30.2544 57.5015ZM34.4987 43.74C34.6603 43.74 34.7758 43.7476 34.8602 43.7643C34.9432 43.7808 34.9804 43.8031 34.9998 43.8212C35.0178 43.8381 35.0388 43.8682 35.0546 43.9384C35.0711 44.0117 35.0787 44.1137 35.0787 44.26H35.4787C35.4787 44.1063 35.4714 43.9683 35.4448 43.8504C35.4175 43.7293 35.3672 43.6169 35.2727 43.5288C35.1796 43.4419 35.063 43.3967 34.9379 43.3719C34.8142 43.3474 34.6672 43.34 34.4987 43.34V43.74ZM35.0787 44.26C35.0787 45.6111 34.7404 47.1038 34.3283 48.6097C33.9192 50.1049 33.4344 51.6218 33.1626 52.9808L33.5549 53.0592C33.8231 51.7182 34.2983 50.2351 34.7142 48.7153C35.1271 47.2062 35.4787 45.6689 35.4787 44.26H35.0787ZM33.1621 52.9834C32.9226 54.2708 32.6531 55.5587 32.383 56.849C32.1131 58.1387 31.8426 59.4308 31.6021 60.7234L31.9954 60.7966C32.2349 59.5091 32.5044 58.2213 32.7745 56.931C33.0444 55.6413 33.3149 54.3491 33.5554 53.0566L33.1621 52.9834ZM31.6024 60.7221C29.0217 74.1053 26.5635 87.4755 22.8464 100.545L23.2311 100.655C26.954 87.5645 29.4157 74.1747 31.9951 60.7979L31.6024 60.7221ZM23.0195 100.799C36.0112 102.056 46.7818 106.365 59.0966 110.39L59.2209 110.01C46.9357 105.995 36.1063 101.664 23.058 100.401L23.0195 100.799ZM59.0972 110.39C75.2356 115.61 94.2234 121.14 111.239 121.14V120.74C94.2941 120.74 75.3618 115.23 59.2203 110.01L59.0972 110.39ZM111.239 121.14C112.706 121.14 115.562 121.141 118.053 120.603C119.298 120.334 120.471 119.928 121.337 119.305C122.21 118.678 122.779 117.824 122.779 116.68H122.379C122.379 117.666 121.897 118.41 121.104 118.98C120.303 119.556 119.192 119.948 117.969 120.212C115.526 120.739 112.711 120.74 111.239 120.74V121.14ZM122.779 116.68C122.779 116.082 122.407 115.656 122.092 115.333C121.925 115.162 121.781 115.028 121.671 114.892C121.561 114.756 121.519 114.659 121.519 114.58H121.119C121.119 114.801 121.234 114.989 121.36 115.144C121.486 115.299 121.657 115.46 121.806 115.612C122.12 115.934 122.379 116.258 122.379 116.68H122.779ZM121.519 114.58C121.519 114.45 121.609 114.36 121.739 114.36V113.96C121.388 113.96 121.119 114.23 121.119 114.58H121.519ZM121.739 114.36C121.951 114.36 122.168 114.449 122.381 114.613C122.595 114.778 122.794 115.012 122.965 115.28C123.312 115.822 123.519 116.46 123.519 116.86H123.919C123.919 116.36 123.675 115.648 123.302 115.065C123.114 114.77 122.885 114.498 122.626 114.297C122.367 114.096 122.066 113.96 121.739 113.96V114.36ZM123.519 116.86C123.519 118.163 122.992 119.16 122.136 119.934C121.274 120.713 120.075 121.266 118.735 121.655C116.057 122.435 112.886 122.54 110.939 122.54V122.94C112.891 122.94 116.111 122.835 118.847 122.04C120.215 121.642 121.48 121.066 122.404 120.231C123.335 119.39 123.919 118.287 123.919 116.86H123.519ZM110.939 122.54C94.294 122.54 74.8225 116.85 58.8583 111.869L58.7392 112.251C74.695 117.23 94.2235 122.94 110.939 122.94V122.54ZM58.8576 111.869C47.9567 108.515 37.1867 104.304 25.7638 102.862L25.7137 103.258C37.0908 104.696 47.8007 108.885 58.7399 112.251L58.8576 111.869ZM25.7597 102.861C24.6219 102.741 23.4711 102.62 22.3787 102.62V103.02C23.4463 103.02 24.5756 103.139 25.7178 103.259L25.7597 102.861ZM22.19 102.754C21.3479 105.16 20.5712 107.55 19.6144 109.822L19.9831 109.978C20.9462 107.69 21.7296 105.28 22.5675 102.886L22.19 102.754ZM19.6127 109.827C18.6552 112.25 16.8765 116.225 14.5859 119.59C13.4405 121.273 12.1724 122.795 10.8215 123.895C9.47004 124.995 8.051 125.66 6.59874 125.66V126.06C8.17649 126.06 9.68245 125.338 11.0741 124.205C12.4663 123.071 13.7595 121.515 14.9166 119.815C17.231 116.415 19.0223 112.41 19.9848 109.973L19.6127 109.827ZM6.23874 124.08C6.78123 124.08 7.46601 123.922 8.10799 123.685C8.75009 123.448 9.37363 123.123 9.78793 122.773L9.52956 122.467C9.16386 122.777 8.5874 123.082 7.9695 123.31C7.35148 123.538 6.71626 123.68 6.23874 123.68V124.08ZM9.78652 122.774C11.5835 121.281 13.1427 119.098 14.4601 116.779C15.7789 114.458 16.8627 111.989 17.7041 109.915L17.3334 109.765C16.4948 111.831 15.4186 114.282 14.1124 116.581C12.8048 118.882 11.274 121.019 9.53096 122.466L9.78652 122.774ZM17.7054 109.912C18.6056 107.571 19.4492 105.102 20.2864 102.829L19.9111 102.691C19.0683 104.978 18.2319 107.429 17.3321 109.768L17.7054 109.912ZM20.0801 102.561C14.318 103.101 8.28939 104.365 4.81325 109.488L5.14424 109.712C8.50809 104.755 14.3595 103.499 20.1174 102.959L20.0801 102.561ZM4.81297 109.488C3.17386 111.916 2.19874 114.715 2.19874 117.64H2.59874C2.59874 114.805 3.54362 112.084 5.14451 109.712L4.81297 109.488ZM2.19874 117.64C2.19874 118.775 2.47352 120.365 3.10341 121.679C3.73097 122.988 4.74335 124.08 6.23874 124.08V123.68C4.97413 123.68 4.06652 122.762 3.46408 121.506C2.86396 120.255 2.59874 118.725 2.59874 117.64H2.19874ZM58.2798 86.14L58.4587 86.0506L58.4034 85.94H58.2798V86.14ZM52.5198 91.6L52.614 91.7765L52.617 91.7748L52.5198 91.6ZM45.1998 88L45.3971 87.9671L45.3264 87.543L45.0476 87.8703L45.1998 88ZM40.1598 91.42L39.9627 91.386L39.8634 91.962L40.2948 91.5676L40.1598 91.42ZM44.8998 84.46L45.0804 84.546L45.1411 84.4185L45.0413 84.3186L44.8998 84.46ZM39.6198 93.56C39.0967 93.56 38.7039 93.3022 38.4345 92.9115C38.1614 92.5155 38.0198 91.9868 38.0198 91.48H37.6198C37.6198 92.0532 37.7783 92.6645 38.1052 93.1385C38.4357 93.6178 38.943 93.96 39.6198 93.96V93.56ZM38.0198 91.48C38.0198 89.9021 38.6818 87.5211 39.8232 85.5346C40.9712 83.537 42.5546 82.02 44.3598 82.02V81.62C42.3251 81.62 40.6385 83.313 39.4764 85.3354C38.3079 87.3689 37.6198 89.8179 37.6198 91.48H38.0198ZM44.3598 82.02C44.5848 82.02 44.8706 82.1061 45.183 82.2676C45.4921 82.4275 45.812 82.6535 46.101 82.9137C46.3903 83.174 46.6436 83.464 46.8231 83.7491C47.0047 84.0374 47.0998 84.3034 47.0998 84.52H47.4998C47.4998 84.1966 47.3625 83.8551 47.1616 83.5359C46.9586 83.2135 46.6794 82.896 46.3686 82.6163C46.0577 82.3365 45.7101 82.09 45.3667 81.9124C45.0266 81.7364 44.6749 81.62 44.3598 81.62V82.02ZM47.0998 84.52C47.0998 85.3723 47.0087 86.9782 47.276 88.3605C47.4099 89.0531 47.6376 89.714 48.0294 90.2051C48.4285 90.7052 48.9913 91.02 49.7598 91.02V90.62C49.1183 90.62 48.6686 90.3648 48.3421 89.9556C48.0083 89.5373 47.7973 88.9494 47.6687 88.2845C47.411 86.9518 47.4998 85.4077 47.4998 84.52H47.0998ZM49.7598 91.02C50.4706 91.02 51.3092 90.704 52.1584 90.2563C53.0135 89.8055 53.9054 89.2066 54.7294 88.6122C55.5518 88.0189 56.3178 87.4214 56.9079 86.9809C57.2053 86.7589 57.4569 86.5776 57.6531 86.4522C57.7514 86.3894 57.8315 86.3434 57.8937 86.3138C57.9631 86.2808 57.9864 86.28 57.9798 86.28V85.88C57.8908 85.88 57.7983 85.9162 57.7218 85.9526C57.6382 85.9925 57.5423 86.0483 57.4377 86.1151C57.2283 86.249 56.9666 86.4379 56.6686 86.6604C56.0681 87.1086 55.3154 87.6961 54.4953 88.2878C53.6768 88.8784 52.8024 89.4645 51.9719 89.9025C51.1354 90.3435 50.369 90.62 49.7598 90.62V91.02ZM57.9798 86.28C58.0042 86.28 58.0217 86.2848 58.0666 86.2997C58.1117 86.3148 58.1842 86.34 58.2798 86.34V85.94C58.2555 85.94 58.238 85.9352 58.1931 85.9203C58.148 85.9052 58.0755 85.88 57.9798 85.88V86.28ZM58.101 86.2294C58.1182 86.264 58.1393 86.3019 58.1582 86.3361C58.1781 86.372 58.1968 86.4061 58.2135 86.4394C58.2302 86.473 58.2428 86.5016 58.2509 86.5254C58.2595 86.5506 58.2598 86.5608 58.2598 86.56H58.6598C58.6598 86.4477 58.6082 86.3344 58.5712 86.2606C58.5504 86.2189 58.5279 86.178 58.5083 86.1426C58.4878 86.1056 58.4714 86.076 58.4587 86.0506L58.101 86.2294ZM58.2598 86.56C58.2598 86.6308 58.2149 86.7584 58.0841 86.9487C57.9586 87.1312 57.7738 87.3439 57.5416 87.5779C57.0779 88.0453 56.4443 88.5792 55.772 89.1021C54.4263 90.1489 52.9503 91.1321 52.4227 91.4252L52.617 91.7748C53.1694 91.4679 54.6634 90.4711 56.0176 89.4179C56.6953 88.8908 57.3443 88.3447 57.8256 87.8596C58.0659 87.6174 58.2692 87.3856 58.4137 87.1753C58.5529 86.9729 58.6598 86.7592 58.6598 86.56H58.2598ZM52.4257 91.4235C51.5385 91.8967 50.4326 92.3 49.4598 92.3V92.7C50.5271 92.7 51.7011 92.2633 52.614 91.7765L52.4257 91.4235ZM49.4598 92.3C48.3009 92.3 47.3787 91.7512 46.696 90.932C46.0105 90.1094 45.5725 89.0193 45.3971 87.9671L45.0026 88.0329C45.1872 89.1407 45.6492 90.3006 46.3887 91.188C47.131 92.0788 48.1588 92.7 49.4598 92.7V92.3ZM45.0476 87.8703C44.6922 88.2875 44.3174 88.8621 43.9234 89.4754C43.5264 90.0934 43.1067 90.7563 42.654 91.3686C42.201 91.9813 41.7223 92.5328 41.2125 92.93C40.7036 93.3266 40.1758 93.56 39.6198 93.56V93.96C40.2938 93.96 40.9061 93.6759 41.4584 93.2456C42.0099 92.8159 42.5137 92.2312 42.9757 91.6064C43.438 90.9812 43.8657 90.3053 44.26 89.6915C44.6573 89.0729 45.0175 88.5225 45.3521 88.1297L45.0476 87.8703ZM40.2948 91.5676C42.4239 89.6209 43.8773 87.0724 45.0804 84.546L44.7193 84.374C43.5223 86.8876 42.0957 89.379 40.0249 91.2724L40.2948 91.5676ZM45.0413 84.3186C45.0143 84.2916 44.9818 84.2557 44.9361 84.207C44.893 84.161 44.8422 84.108 44.788 84.058C44.7345 84.0087 44.6727 83.9574 44.6066 83.9175C44.5433 83.8793 44.4574 83.84 44.3598 83.84V84.24C44.3523 84.24 44.3639 84.2382 44.3999 84.26C44.4333 84.2801 44.4727 84.3113 44.5167 84.352C44.56 84.392 44.6029 84.4365 44.6442 84.4805C44.6829 84.5218 44.7254 84.5684 44.7584 84.6014L45.0413 84.3186ZM44.3598 83.84C43.7304 83.84 43.1658 84.2487 42.682 84.8191C42.1934 85.3951 41.7551 86.1732 41.3804 86.9945C40.6308 88.6375 40.1157 90.499 39.9627 91.386L40.3569 91.454C40.504 90.601 41.0089 88.7725 41.7443 87.1605C42.1121 86.3543 42.5325 85.6137 42.987 85.0778C43.4464 84.5363 43.9092 84.24 44.3598 84.24V83.84ZM61.5794 82.66L61.413 82.5491L61.4088 82.5554L61.4051 82.5619L61.5794 82.66ZM62.5394 82.18L62.5642 81.9815L62.5518 81.98H62.5394V82.18ZM61.9994 90.58H61.7994V90.7679L61.9869 90.7796L61.9994 90.58ZM67.9994 83.2L67.9795 83.399L67.9894 83.4H67.9994V83.2ZM75.9794 85.96L75.966 86.16H75.9794V85.96ZM76.4594 86.44L76.6403 86.5252L76.6594 86.4847V86.44H76.4594ZM68.8394 93.1L68.822 93.2994L68.8291 93.2997L68.8394 93.1ZM66.2594 88L66.456 87.9636L66.3696 87.497L66.096 87.8847L66.2594 88ZM61.5794 92.96C61.2515 92.96 61.0199 92.8569 60.8483 92.6975C60.6721 92.5338 60.5458 92.2979 60.458 92.0135C60.2809 91.4399 60.2794 90.7362 60.2794 90.22H59.8794C59.8794 90.7238 59.8778 91.4901 60.0758 92.1315C60.1755 92.4546 60.3304 92.7624 60.5761 92.9906C60.8264 93.2231 61.1572 93.36 61.5794 93.36V92.96ZM60.2794 90.22C60.2794 89.612 60.5152 87.9805 60.8233 86.365C60.9766 85.5611 61.1464 84.7684 61.3111 84.1182C61.4782 83.4582 61.6339 82.971 61.7537 82.7581L61.4051 82.5619C61.2548 82.829 61.0881 83.3693 60.9233 84.02C60.7561 84.6804 60.5846 85.4814 60.4304 86.29C60.1235 87.8995 59.8794 89.568 59.8794 90.22H60.2794ZM61.7458 82.7709C61.8492 82.6158 61.9581 82.5226 62.0779 82.4656C62.1998 82.4075 62.3476 82.38 62.5394 82.38V81.98C62.3111 81.98 62.099 82.0125 61.9059 82.1044C61.7106 82.1974 61.5496 82.3441 61.413 82.5491L61.7458 82.7709ZM62.5146 82.3785C62.8918 82.4256 63.1794 82.7582 63.1794 83.14H63.5794C63.5794 82.5618 63.1469 82.0544 62.5642 81.9815L62.5146 82.3785ZM63.1794 83.14C63.1794 84.3059 62.8442 85.4327 62.4976 86.6006C62.1539 87.7587 61.7994 88.9563 61.7994 90.22H62.1994C62.1994 89.0237 62.5348 87.8813 62.8811 86.7144C63.2245 85.5573 63.5794 84.3741 63.5794 83.14H63.1794ZM61.7994 90.22V90.58H62.1994V90.22H61.7994ZM61.9869 90.7796C62.1102 90.7873 62.2258 90.7343 62.3197 90.674C62.4182 90.6109 62.5209 90.5215 62.6255 90.4161C62.8353 90.2047 63.0757 89.9053 63.3342 89.5538C63.8519 88.85 64.4632 87.9085 65.0764 86.9775C65.6922 86.0425 66.3101 85.1178 66.8478 84.4346C67.1171 84.0924 67.3604 83.8184 67.5685 83.6353C67.6726 83.5437 67.7621 83.48 67.8367 83.4414C67.9128 83.402 67.9579 83.3968 67.9795 83.399L68.0193 83.001C67.8909 82.9882 67.7654 83.028 67.6529 83.0861C67.5389 83.1451 67.4219 83.2314 67.3043 83.335C67.0689 83.5421 66.8079 83.8385 66.5335 84.1873C65.9836 84.8859 65.3565 85.825 64.7423 86.7575C64.1255 87.694 63.5218 88.6237 63.012 89.3168C62.7568 89.6638 62.5303 89.9442 62.3416 90.1343C62.2471 90.2296 62.1677 90.2964 62.1038 90.3373C62.0355 90.3811 62.0085 90.3802 62.0118 90.3804L61.9869 90.7796ZM67.9994 83.4C68.1314 83.4 68.2747 83.4771 68.3927 83.6199C68.5101 83.762 68.5794 83.9432 68.5794 84.1H68.9794C68.9794 83.8368 68.8686 83.568 68.7011 83.3651C68.534 83.1629 68.2873 83 67.9994 83V83.4ZM68.5794 84.1C68.5794 84.8664 68.491 85.6198 68.4007 86.3866C68.311 87.1498 68.2194 87.9264 68.2194 88.72H68.6194C68.6194 87.9536 68.7078 87.2002 68.798 86.4334C68.8878 85.6702 68.9794 84.8936 68.9794 84.1H68.5794ZM68.2194 88.72C68.2194 88.9296 68.2191 89.6031 68.3115 90.2268C68.3574 90.5367 68.4283 90.8504 68.5422 91.0919C68.6517 91.324 68.8371 91.56 69.1394 91.56V91.16C69.0816 91.16 68.997 91.1185 68.904 90.9213C68.8154 90.7333 68.7513 90.4658 68.7072 90.1682C68.6196 89.5769 68.6194 88.9304 68.6194 88.72H68.2194ZM69.1394 91.56C69.4303 91.56 69.7406 91.4606 70.054 91.3045C70.3693 91.1475 70.7012 90.9262 71.0389 90.6663C71.7138 90.1467 72.4305 89.458 73.1062 88.7785C73.7868 88.0942 74.4208 87.4246 74.9473 86.9233C75.2099 86.6732 75.4384 86.4723 75.6256 86.3368C75.7192 86.269 75.7973 86.2214 75.8603 86.1921C75.9264 86.1614 75.9585 86.1591 75.9661 86.1596L75.9927 85.7604C75.8877 85.7534 75.7834 85.7867 75.6917 85.8294C75.5968 85.8735 75.4956 85.937 75.391 86.0128C75.1816 86.1644 74.9376 86.3802 74.6715 86.6336C74.1404 87.1392 73.492 87.8233 72.8226 88.4965C72.1483 89.1745 71.4474 89.847 70.7949 90.3493C70.4688 90.6004 70.1595 90.8051 69.8757 90.9465C69.59 91.0888 69.3435 91.16 69.1394 91.16V91.56ZM75.9794 86.16C76.0343 86.16 76.106 86.1895 76.1679 86.2514C76.2299 86.3134 76.2594 86.385 76.2594 86.44H76.6594C76.6594 86.255 76.5689 86.0866 76.4508 85.9686C76.3327 85.8505 76.1644 85.76 75.9794 85.76V86.16ZM76.2784 86.3548C75.8134 87.3429 74.5133 89.018 73.0288 90.4353C72.2887 91.1419 71.5107 91.7768 70.7776 92.2264C70.038 92.68 69.3725 92.9271 68.8496 92.9003L68.8291 93.2997C69.4762 93.3329 70.2283 93.0325 70.9867 92.5674C71.7518 92.0982 72.5525 91.4431 73.305 90.7247C74.8055 89.292 76.1453 87.5771 76.6403 86.5252L76.2784 86.3548ZM68.8567 92.9008C68.2096 92.8445 67.7691 92.6153 67.4584 92.2913C67.1437 91.963 66.9475 91.5218 66.8208 91.0187C66.6941 90.5155 66.6406 89.9661 66.6004 89.4315C66.5607 88.9053 66.5336 88.3825 66.456 87.9636L66.0627 88.0364C66.1351 88.4275 66.1605 88.9172 66.2015 89.4616C66.2419 89.9977 66.2971 90.577 66.4329 91.1163C66.5687 91.6557 66.7888 92.1708 67.1697 92.5681C67.5547 92.9697 68.0892 93.2355 68.822 93.2992L68.8567 92.9008ZM66.096 87.8847C65.7327 88.3994 64.8682 89.6812 63.9432 90.8376C63.4805 91.4159 63.0079 91.9561 62.5801 92.3501C62.3661 92.5472 62.1682 92.7031 61.9925 92.8087C61.8132 92.9164 61.6762 92.96 61.5794 92.96V93.36C61.7826 93.36 61.9943 93.2742 62.1985 93.1516C62.4062 93.0268 62.6264 92.8513 62.8511 92.6443C63.3009 92.2301 63.7882 91.6716 64.2555 91.0874C65.1905 89.9187 66.0661 88.6206 66.4228 88.1153L66.096 87.8847ZM84.212 88.6L84.4094 88.632L84.4323 88.4911L84.3065 88.4237L84.212 88.6ZM80.852 85.9L80.67 85.8172L80.6176 85.9325L80.6994 86.0292L80.852 85.9ZM85.412 97.54L85.2706 97.6814L85.349 97.7598L85.457 97.7349L85.412 97.54ZM85.412 98.96C84.9763 98.96 84.6469 98.8286 84.392 98.6177C84.1336 98.4041 83.9403 98.0992 83.7982 97.737C83.5125 97.0085 83.452 96.095 83.452 95.38H83.052C83.052 96.105 83.1115 97.0815 83.4258 97.883C83.5838 98.2858 83.8105 98.6559 84.1371 98.926C84.4671 99.1989 84.8878 99.36 85.412 99.36V98.96ZM83.452 95.38C83.452 93.1213 84.0452 90.8785 84.4094 88.632L84.0146 88.568C83.6589 90.7615 83.052 93.0787 83.052 95.38H83.452ZM84.3065 88.4237C83.8531 88.1808 83.2327 88.0534 82.5879 87.9506C81.9292 87.8456 81.2401 87.7655 80.5947 87.6246C79.9503 87.4839 79.3867 87.2891 78.9862 86.9746C78.5972 86.669 78.352 86.2431 78.352 85.6H77.952C77.952 86.3669 78.2544 86.9084 78.7391 87.2892C79.2124 87.6609 79.8487 87.8711 80.5094 88.0154C81.169 88.1595 81.8899 88.2444 82.5249 88.3456C83.1738 88.4491 83.731 88.5692 84.1176 88.7763L84.3065 88.4237ZM78.352 85.6C78.352 85.0744 78.5775 84.3155 78.967 83.688C79.361 83.0531 79.8787 82.62 80.432 82.62V82.22C79.6653 82.22 79.043 82.8069 78.6271 83.477C78.2066 84.1545 77.952 84.9856 77.952 85.6H78.352ZM80.432 82.62C80.7592 82.62 81.0022 82.7557 81.1679 82.9644C81.3374 83.1778 81.432 83.4765 81.432 83.8H81.832C81.832 83.4035 81.7167 83.0122 81.4812 82.7156C81.2419 82.4143 80.8849 82.22 80.432 82.22V82.62ZM81.432 83.8C81.432 84.1487 81.3249 84.4784 81.1726 84.8119C81.0964 84.9788 81.0108 85.1429 80.9232 85.3105C80.8365 85.4764 80.7476 85.6464 80.67 85.8172L81.0341 85.9828C81.1064 85.8236 81.19 85.6636 81.2777 85.4957C81.3645 85.3296 81.4551 85.1562 81.5365 84.9781C81.6992 84.6216 81.832 84.2313 81.832 83.8H81.432ZM80.6994 86.0292C80.8212 86.1732 81.0126 86.2571 81.2098 86.3146C81.4127 86.3739 81.6574 86.4148 81.919 86.4506C82.4521 86.5237 83.0657 86.5776 83.6664 86.7103C84.2652 86.8425 84.8167 87.0469 85.2169 87.4C85.6083 87.7453 85.872 88.2478 85.872 89.02H86.272C86.272 88.1422 85.9657 87.5272 85.4815 87.1C85.0061 86.6806 84.3763 86.4575 83.7527 86.3197C83.1309 86.1824 82.4807 86.1238 81.9732 86.0543C81.7145 86.0189 81.4946 85.9811 81.3219 85.9307C81.1433 85.8785 81.0478 85.8218 81.0047 85.7708L80.6994 86.0292ZM85.872 89.02C85.872 90.2882 85.6361 91.5448 85.3955 92.823C85.1561 94.0948 84.912 95.3882 84.912 96.7H85.312C85.312 95.4318 85.548 94.1752 85.7886 92.897C86.028 91.6252 86.272 90.3318 86.272 89.02H85.872ZM84.912 96.7C84.912 97.0254 84.9773 97.3881 85.2706 97.6814L85.5534 97.3986C85.3668 97.2119 85.312 96.9746 85.312 96.7H84.912ZM85.457 97.7349C85.7973 97.6563 86.2018 97.4004 86.6365 97.0479C87.0779 96.69 87.5744 96.2123 88.1012 95.6595C89.1552 94.5537 90.3444 93.1328 91.4775 91.7334C92.0443 91.0332 92.598 90.3374 93.1143 89.6881C93.6308 89.0385 94.1096 88.4359 94.5279 87.9208C94.9467 87.405 95.3021 86.9803 95.5722 86.6854C95.7078 86.5374 95.818 86.4264 95.9016 86.3537C95.9436 86.3172 95.9744 86.2944 95.9948 86.2819C96.0225 86.2649 96.0097 86.28 95.972 86.28V85.88C95.8931 85.88 95.8255 85.9165 95.7858 85.9408C95.7388 85.9696 95.6893 86.0083 95.6392 86.0518C95.5384 86.1394 95.4162 86.2635 95.2773 86.4152C94.9985 86.7196 94.6367 87.1522 94.2174 87.6686C93.7975 88.1857 93.3173 88.7901 92.8012 89.4392C92.2848 90.0885 91.7322 90.783 91.1666 91.4816C90.0347 92.8797 88.8539 94.2901 87.8116 95.3836C87.2903 95.9305 86.8071 96.3946 86.3846 96.7372C85.9554 97.0852 85.6117 97.2887 85.3671 97.3451L85.457 97.7349ZM95.972 86.28C96.0213 86.28 96.0735 86.3041 96.1184 86.358C96.1642 86.413 96.192 86.4879 96.192 86.56H96.592C96.592 86.3921 96.5299 86.227 96.4257 86.102C96.3206 85.9759 96.1627 85.88 95.972 85.88V86.28ZM96.192 86.56C96.192 86.6273 96.1676 86.7405 96.1034 86.906C96.0408 87.0673 95.9469 87.2624 95.8236 87.4877C95.5769 87.9382 95.2201 88.4959 94.7824 89.123C93.9076 90.3765 92.7193 91.8938 91.4698 93.3603C90.2201 94.827 88.9129 96.2385 87.8008 97.2816C87.2444 97.8036 86.7408 98.2295 86.3204 98.5236C86.1102 98.6707 85.9248 98.782 85.767 98.8558C85.6061 98.9311 85.4894 98.96 85.412 98.96V99.36C85.5747 99.36 85.7538 99.3036 85.9365 99.2181C86.1224 99.1311 86.3285 99.0062 86.5497 98.8514C86.9923 98.5417 87.5116 98.1014 88.0745 97.5734C89.2012 96.5165 90.519 95.093 91.7743 93.6197C93.0298 92.1462 94.2265 90.6185 95.1104 89.352C95.5521 88.7191 95.918 88.1481 96.1744 87.6798C96.3025 87.4458 96.4052 87.234 96.4763 87.0507C96.5457 86.8717 96.592 86.7027 96.592 86.56H96.192ZM111.837 93.76L111.638 93.7362L111.638 93.7366L111.837 93.76ZM112.617 87.28L112.808 87.3388L112.945 86.8921L112.527 87.1011L112.617 87.28ZM112.017 87.82L111.875 87.6784L111.868 87.6864L112.017 87.82ZM99.7169 89.68L99.6589 89.4886L99.5503 89.5215L99.5228 89.6315L99.7169 89.68ZM115.017 87.88L115.213 87.9205L115.213 87.9174L115.017 87.88ZM114.237 93.1L114.039 93.0727L114.032 93.1189L114.047 93.1632L114.237 93.1ZM114.297 93.28L114.107 93.3432L114.24 93.7412L114.465 93.3876L114.297 93.28ZM121.077 86.56L121.273 86.5218L121.216 86.2295L120.967 86.3927L121.077 86.56ZM114.777 95.62L114.929 95.7502L114.929 95.7502L114.777 95.62ZM100.377 87.58L100.314 87.7697L100.425 87.807L100.512 87.7274L100.377 87.58ZM102.597 83.62H102.797V83.2073L102.473 83.463L102.597 83.62ZM100.197 87.52L100.009 87.4517L99.9387 87.6448L100.134 87.7097L100.197 87.52ZM113.337 96.08C113.03 96.08 112.799 95.9975 112.621 95.8681C112.442 95.7374 112.306 95.5499 112.208 95.3231C112.009 94.8644 111.978 94.2734 112.036 93.7834L111.638 93.7366C111.576 94.2666 111.604 94.9356 111.841 95.4819C111.96 95.7576 112.135 96.0089 112.386 96.1913C112.638 96.375 112.953 96.48 113.337 96.48V96.08ZM112.035 93.7838C112.216 92.2764 112.232 91.2283 112.291 90.2851C112.351 89.3428 112.454 88.4893 112.808 87.3388L112.426 87.2212C112.06 88.4107 111.953 89.2972 111.892 90.2599C111.832 91.2217 111.817 92.2436 111.638 93.7362L112.035 93.7838ZM112.527 87.1011C112.379 87.1753 112.256 87.2829 112.153 87.3861C112.101 87.438 112.052 87.4915 112.006 87.5408C111.959 87.5912 111.917 87.6369 111.875 87.6786L112.158 87.9614C112.207 87.9131 112.254 87.8613 112.3 87.8123C112.346 87.7623 112.39 87.7145 112.436 87.6689C112.528 87.5771 112.615 87.5047 112.706 87.4589L112.527 87.1011ZM111.868 87.6864C110.545 89.1594 108.937 90.9762 107.129 92.4265C105.32 93.8785 103.339 94.94 101.277 94.94V95.34C103.475 95.34 105.544 94.2115 107.38 92.7385C109.217 91.2638 110.848 89.4206 112.166 87.9536L111.868 87.6864ZM101.277 94.94C100.045 94.94 99.191 94.4707 98.6392 93.7373C98.0812 92.9956 97.8169 91.9631 97.8169 90.82H97.4169C97.4169 92.0169 97.6926 93.1444 98.3196 93.9777C98.9527 94.8193 99.929 95.34 101.277 95.34V94.94ZM97.8169 90.82C97.8169 90.2762 97.9578 89.4412 98.2186 88.4858C98.4783 87.5339 98.8533 86.4759 99.3131 85.4895C99.7737 84.5014 100.315 83.5946 100.904 82.938C101.498 82.2769 102.111 81.9 102.717 81.9V81.5C101.942 81.5 101.229 81.9781 100.607 82.6708C99.9811 83.3679 99.42 84.3136 98.9506 85.3205C98.4804 86.3291 98.0979 87.4086 97.8327 88.3805C97.5684 89.3488 97.4169 90.2238 97.4169 90.82H97.8169ZM102.717 81.9C103.482 81.9 104.017 82.5645 104.017 83.32H104.417C104.417 82.3955 103.752 81.5 102.717 81.5V81.9ZM104.017 83.32C104.017 83.7933 103.87 84.3807 103.607 85.0135C103.346 85.6435 102.977 86.3059 102.545 86.9257C102.114 87.5456 101.623 88.1185 101.121 88.5716C100.617 89.0267 100.114 89.3506 99.6589 89.4886L99.7749 89.8714C100.309 89.7094 100.864 89.3433 101.389 88.8684C101.917 88.3915 102.428 87.7944 102.873 87.1543C103.319 86.5141 103.704 85.8265 103.977 85.1665C104.249 84.5093 104.417 83.8667 104.417 83.32H104.017ZM99.5228 89.6315C99.399 90.1269 99.3369 90.6231 99.3369 91.12H99.7369C99.7369 90.6568 99.7947 90.1931 99.9109 89.7285L99.5228 89.6315ZM99.3369 91.12C99.3369 91.782 99.3948 92.4455 99.6866 92.9458C99.9924 93.47 100.532 93.78 101.397 93.78V93.38C100.642 93.38 100.251 93.12 100.032 92.7442C99.799 92.3445 99.7369 91.778 99.7369 91.12H99.3369ZM101.397 93.78C102.943 93.78 104.459 93.0625 105.874 92.0158C107.292 90.9677 108.629 89.5746 109.821 88.1905C111.01 86.8099 112.072 85.4176 112.917 84.3921C113.342 83.8753 113.712 83.4523 114.02 83.1595C114.175 83.0131 114.309 82.9045 114.422 82.8336C114.539 82.7605 114.614 82.74 114.657 82.74V82.34C114.504 82.34 114.352 82.4057 114.21 82.4944C114.065 82.5852 113.909 82.7138 113.745 82.8692C113.417 83.1802 113.034 83.6197 112.608 84.1379C111.748 85.1824 110.706 86.5501 109.518 87.9295C108.333 89.3054 107.018 90.6723 105.636 91.6942C104.253 92.7175 102.821 93.38 101.397 93.38V93.78ZM114.657 82.74C114.927 82.74 115.141 82.8943 115.298 83.1418C115.456 83.392 115.537 83.7143 115.537 83.98H115.937C115.937 83.6457 115.838 83.248 115.636 82.9282C115.432 82.6057 115.107 82.34 114.657 82.34V82.74ZM115.537 83.98C115.537 84.6171 115.421 85.2596 115.272 85.9077C115.125 86.5465 114.941 87.209 114.82 87.8426L115.213 87.9174C115.333 87.291 115.509 86.6635 115.662 85.9973C115.813 85.3404 115.937 84.6629 115.937 83.98H115.537ZM114.821 87.8395C114.459 89.5882 114.278 91.3415 114.039 93.0727L114.435 93.1273C114.676 91.3785 114.855 89.6518 115.213 87.9205L114.821 87.8395ZM114.047 93.1632L114.107 93.3432L114.487 93.2168L114.427 93.0368L114.047 93.1632ZM114.465 93.3876C114.918 92.6786 115.479 91.7101 116.095 90.6636C116.712 89.6146 117.385 88.4838 118.064 87.4418C118.745 86.3984 119.428 85.4516 120.063 84.7677C120.38 84.4256 120.681 84.1551 120.958 83.9713C121.238 83.7862 121.477 83.7 121.677 83.7V83.3C121.367 83.3 121.049 83.4313 120.737 83.6378C120.424 83.8457 120.099 84.1409 119.77 84.4955C119.111 85.2047 118.414 86.1741 117.729 87.2232C117.044 88.2737 116.367 89.4116 115.75 90.4608C115.132 91.5124 114.576 92.4714 114.128 93.1724L114.465 93.3876ZM121.677 83.7C121.983 83.7 122.214 83.8169 122.399 84.0287C122.591 84.2481 122.738 84.5752 122.849 84.995C123.072 85.836 123.131 86.9675 123.18 88.1284C123.228 89.2752 123.267 90.4518 123.464 91.3396C123.563 91.7835 123.705 92.1776 123.924 92.4643C124.15 92.7601 124.457 92.94 124.857 92.94V92.54C124.597 92.54 124.402 92.4311 124.242 92.2217C124.075 92.003 123.949 91.6752 123.855 91.2529C123.668 90.4082 123.628 89.2748 123.579 88.1116C123.531 86.9625 123.473 85.784 123.236 84.8925C123.118 84.4461 122.95 84.0513 122.7 83.7654C122.443 83.4719 122.105 83.3 121.677 83.3V83.7ZM124.857 92.94C125.743 92.94 126.726 92.4842 127.691 91.8374C128.661 91.1865 129.642 90.3221 130.531 89.4638C131.42 88.6052 132.222 87.7462 132.832 87.1067C133.138 86.7856 133.393 86.5224 133.587 86.3397C133.685 86.248 133.763 86.181 133.821 86.1381C133.851 86.1165 133.871 86.1043 133.883 86.0983C133.899 86.0902 133.887 86.1 133.857 86.1V85.7C133.793 85.7 133.738 85.7232 133.703 85.741C133.664 85.7608 133.624 85.787 133.585 85.8156C133.507 85.8728 133.415 85.9527 133.314 86.0481C133.11 86.2395 132.847 86.5106 132.542 86.8308C131.929 87.4738 131.134 88.3248 130.253 89.1762C129.371 90.0279 128.41 90.8735 127.468 91.5051C126.52 92.1408 125.62 92.54 124.857 92.54V92.94ZM133.857 86.1C133.975 86.1 134.053 86.1463 134.106 86.2124C134.163 86.2836 134.197 86.3873 134.197 86.5H134.597C134.597 86.3127 134.541 86.1164 134.418 85.9626C134.291 85.8036 134.099 85.7 133.857 85.7V86.1ZM134.197 86.5C134.197 86.7457 134.102 87.056 133.909 87.4213C133.717 87.7836 133.438 88.1845 133.09 88.607C132.395 89.4518 131.44 90.367 130.408 91.2128C129.376 92.0583 128.273 92.8295 127.287 93.3881C126.793 93.6675 126.332 93.8919 125.925 94.0461C125.515 94.2013 125.174 94.28 124.917 94.28V94.68C125.245 94.68 125.638 94.5824 126.067 94.4201C126.498 94.2567 126.979 94.0222 127.484 93.7362C128.494 93.1642 129.615 92.3792 130.661 91.5222C131.707 90.6655 132.682 89.732 133.399 88.8612C133.757 88.4258 134.054 88.0021 134.262 87.6082C134.469 87.2171 134.597 86.8393 134.597 86.5H134.197ZM124.917 94.28C124.047 94.28 123.422 93.9467 122.957 93.4146C122.485 92.8747 122.171 92.1218 121.953 91.2799C121.736 90.44 121.619 89.5299 121.53 88.6878C121.442 87.8544 121.38 87.0732 121.273 86.5218L120.881 86.5982C120.983 87.1268 121.042 87.8756 121.132 88.7297C121.221 89.5751 121.341 90.51 121.566 91.3801C121.79 92.2482 122.125 93.0703 122.656 93.6779C123.194 94.2933 123.927 94.68 124.917 94.68V94.28ZM120.967 86.3927C120.498 86.6999 119.981 87.3052 119.449 88.0444C118.913 88.7899 118.345 89.6956 117.779 90.626C116.638 92.4985 115.511 94.456 114.625 95.4898L114.929 95.7502C115.843 94.684 116.995 92.6815 118.12 90.834C118.686 89.9044 119.247 89.0101 119.774 88.2781C120.305 87.5398 120.785 86.9901 121.186 86.7273L120.967 86.3927ZM114.625 95.4898C114.302 95.8671 113.876 96.08 113.337 96.08V96.48C113.997 96.48 114.532 96.2129 114.929 95.7502L114.625 95.4898ZM100.512 87.7274C100.89 87.3811 101.456 86.6751 101.926 85.9319C102.162 85.5588 102.378 85.1706 102.535 84.8076C102.69 84.4492 102.797 84.0964 102.797 83.8H102.397C102.397 84.0136 102.316 84.3057 102.168 84.6486C102.021 84.9869 101.817 85.3562 101.588 85.7181C101.128 86.4449 100.584 87.1189 100.242 87.4326L100.512 87.7274ZM102.797 83.8V83.62H102.397V83.8H102.797ZM102.473 83.463C101.285 84.401 100.489 86.13 100.009 87.4517L100.385 87.5883C100.864 86.27 101.629 84.639 102.721 83.777L102.473 83.463ZM100.134 87.7097L100.314 87.7697L100.44 87.3903L100.26 87.3303L100.134 87.7097ZM169.203 103.24L169.401 103.212L169.399 103.201L169.203 103.24ZM169.203 98.68L169.402 98.6917L169.415 98.48H169.203V98.68ZM171.483 82.3L171.591 82.4677L171.949 82.2353L171.542 82.109L171.483 82.3ZM172.323 72.82L172.386 73.0097L172.512 72.9675L172.522 72.8342L172.323 72.82ZM174.062 69.16H173.862V69.1711L173.864 69.1821L174.062 69.16ZM173.883 72.4L173.683 72.3895L173.671 72.6169L173.898 72.5994L173.883 72.4ZM180.003 73.72H180.203V73.7113L180.202 73.7027L180.003 73.72ZM178.683 73.9L178.868 73.8257L178.84 73.7551L178.772 73.7211L178.683 73.9ZM173.703 74.26L173.628 74.0743L173.503 74.1246V74.26H173.703ZM172.323 74.68L172.501 74.5906L172.437 74.4616L172.294 74.482L172.323 74.68ZM166.503 78.28L166.701 78.2587L166.7 78.2471L166.698 78.2357L166.503 78.28ZM174.363 82.3H174.563V82.2843L174.56 82.2688L174.363 82.3ZM173.883 83.56L173.819 83.3703L173.811 83.373L173.803 83.3764L173.883 83.56ZM167.043 87.46L166.925 87.2977L166.918 87.3038L167.043 87.46ZM163.803 90.82L163.967 90.9338L163.968 90.9327L163.803 90.82ZM162.843 93.88L163.04 93.8496L163.04 93.8488L162.843 93.88ZM166.683 96.58L166.632 96.7735L166.645 96.7768L166.658 96.7785L166.683 96.58ZM169.623 96.58L169.642 96.779L169.782 96.765L169.817 96.6285L169.623 96.58ZM171.543 96.22H171.343V96.472L171.588 96.4148L171.543 96.22ZM182.223 92.8L182.148 92.6142L182.143 92.6167L182.223 92.8ZM183.843 93.04H183.643V93.0553L183.645 93.0704L183.843 93.04ZM171.363 98.26L171.305 98.0684L171.188 98.1034L171.166 98.2231L171.363 98.26ZM170.583 104.08L170.768 104.154L170.773 104.142L170.776 104.13L170.583 104.08ZM170.043 104.3C169.823 104.3 169.683 104.17 169.579 103.944C169.473 103.712 169.431 103.426 169.4 103.212L169.005 103.268C169.034 103.474 169.082 103.818 169.216 104.111C169.352 104.41 169.602 104.7 170.043 104.7V104.3ZM169.399 103.201C169.283 102.623 169.283 102.102 169.283 101.56H168.883C168.883 102.098 168.882 102.657 169.006 103.279L169.399 103.201ZM169.283 101.56C169.283 100.667 169.342 99.7139 169.402 98.6917L169.003 98.6683C168.943 99.6861 168.883 100.653 168.883 101.56H169.283ZM169.203 98.48C167.477 98.48 165.412 98.2115 163.786 97.4058C162.171 96.6054 161.003 95.2854 161.003 93.16H160.603C160.603 95.4746 161.894 96.9146 163.609 97.7642C165.313 98.6085 167.448 98.88 169.203 98.88V98.48ZM161.003 93.16C161.003 90.6763 162.708 88.5981 164.918 86.8286C167.128 85.0586 169.77 83.6519 171.591 82.4677L171.374 82.1323C169.595 83.2881 166.897 84.7314 164.667 86.5164C162.437 88.3019 160.603 90.4837 160.603 93.16H161.003ZM171.542 82.109C170.656 81.834 169.045 81.436 167.643 80.798C166.943 80.4796 166.312 80.1082 165.858 79.6747C165.406 79.243 165.143 78.7631 165.143 78.22H164.743C164.743 78.9069 165.079 79.4845 165.582 79.964C166.082 80.4418 166.759 80.8354 167.477 81.162C168.91 81.814 170.569 82.226 171.423 82.491L171.542 82.109ZM165.143 78.22C165.143 77.5806 165.438 76.9812 165.941 76.4215C166.444 75.8612 167.144 75.3542 167.922 74.9058C169.478 74.0092 171.307 73.3694 172.386 73.0097L172.259 72.6303C171.178 72.9905 169.317 73.6408 167.723 74.5592C166.926 75.0183 166.186 75.5501 165.643 76.1541C165.1 76.7588 164.743 77.4494 164.743 78.22H165.143ZM172.522 72.8342C172.553 72.4007 172.582 71.3091 172.723 70.3131C172.794 69.8149 172.89 69.3581 173.023 69.0305C173.089 68.8663 173.159 68.7477 173.229 68.673C173.296 68.6011 173.353 68.58 173.403 68.58V68.18C173.212 68.18 173.057 68.2714 172.937 68.3997C172.82 68.5251 172.727 68.6943 172.652 68.8807C172.501 69.2544 172.399 69.7501 172.327 70.2569C172.183 71.2709 172.152 72.3993 172.123 72.8057L172.522 72.8342ZM173.403 68.58C173.538 68.58 173.648 68.6453 173.73 68.755C173.815 68.8683 173.862 69.0206 173.862 69.16H174.263C174.263 68.9394 174.19 68.7017 174.05 68.515C173.907 68.3247 173.687 68.18 173.403 68.18V68.58ZM173.864 69.1821C173.921 69.7012 173.893 70.2098 173.841 70.7379C173.79 71.2598 173.713 71.8138 173.683 72.3895L174.082 72.4105C174.112 71.8462 174.185 71.3202 174.239 70.7771C174.292 70.2402 174.324 69.6988 174.261 69.1379L173.864 69.1821ZM173.898 72.5994C174.295 72.5689 174.708 72.5077 175.108 72.4558C175.512 72.4035 175.906 72.36 176.283 72.36V71.96C175.879 71.96 175.463 72.0065 175.057 72.0592C174.647 72.1123 174.25 72.1711 173.867 72.2006L173.898 72.5994ZM176.283 72.36C176.755 72.36 177.635 72.4047 178.405 72.6154C178.79 72.7209 179.134 72.8643 179.385 73.0537C179.632 73.2403 179.779 73.4632 179.803 73.7373L180.202 73.7027C180.166 73.2868 179.938 72.9697 179.626 72.7344C179.318 72.502 178.92 72.3416 178.51 72.2296C177.69 72.0053 176.77 71.96 176.283 71.96V72.36ZM179.803 73.72V73.9H180.203V73.72H179.803ZM179.803 73.9C179.803 73.9947 179.75 74.1482 179.648 74.2813C179.546 74.416 179.433 74.48 179.343 74.48V74.88C179.612 74.88 179.829 74.704 179.967 74.5237C180.105 74.3418 180.203 74.1053 180.203 73.9H179.803ZM179.343 74.48C179.228 74.48 179.148 74.4224 179.07 74.2972C178.985 74.1595 178.937 73.9982 178.868 73.8257L178.497 73.9743C178.548 74.1018 178.62 74.3305 178.73 74.5078C178.847 74.6976 179.037 74.88 179.343 74.88V74.48ZM178.772 73.7211C178.364 73.5171 177.957 73.52 177.603 73.52V73.92C177.968 73.92 178.281 73.9229 178.593 74.0789L178.772 73.7211ZM177.603 73.52C176.222 73.52 174.867 73.5787 173.628 74.0743L173.777 74.4457C174.938 73.9813 176.223 73.92 177.603 73.92V73.52ZM173.503 74.26C173.503 74.4566 173.474 74.7313 173.395 74.9492C173.311 75.1796 173.208 75.26 173.103 75.26V75.66C173.477 75.66 173.674 75.3504 173.77 75.0858C173.871 74.8087 173.903 74.4834 173.903 74.26H173.503ZM173.103 75.26C172.973 75.26 172.875 75.2002 172.779 75.0801C172.675 74.9511 172.597 74.7814 172.501 74.5906L172.144 74.7694C172.228 74.9386 172.33 75.1589 172.466 75.3299C172.61 75.5097 172.812 75.66 173.103 75.66V75.26ZM172.294 74.482C171.955 74.5304 171.397 74.7027 170.767 74.9463C170.132 75.1917 169.409 75.5156 168.733 75.8761C168.06 76.2354 167.425 76.6359 166.975 77.0365C166.75 77.2365 166.563 77.4438 166.442 77.6535C166.32 77.8633 166.255 78.0931 166.307 78.3243L166.698 78.2357C166.675 78.1369 166.696 78.0123 166.788 77.854C166.88 77.6954 167.033 77.5206 167.241 77.3354C167.657 76.9653 168.26 76.5821 168.922 76.2289C169.581 75.8769 170.29 75.5595 170.911 75.3194C171.538 75.0773 172.06 74.9196 172.351 74.878L172.294 74.482ZM166.304 78.3013C166.334 78.5881 166.516 78.8169 166.756 79.0004C166.996 79.1843 167.318 79.3414 167.684 79.4828C168.414 79.7653 169.372 80.0051 170.313 80.2581C171.264 80.5137 172.201 80.7833 172.922 81.1268C173.655 81.4764 174.092 81.8685 174.165 82.3312L174.56 82.2688C174.453 81.5915 173.84 81.1211 173.094 80.7657C172.335 80.4042 171.364 80.1263 170.417 79.8719C169.461 79.6149 168.532 79.3822 167.828 79.1097C167.476 78.9736 167.195 78.8326 166.999 78.6827C166.802 78.5325 166.716 78.3919 166.701 78.2587L166.304 78.3013ZM174.163 82.3C174.163 82.3957 174.188 82.4682 174.203 82.5132C174.218 82.5582 174.223 82.5757 174.223 82.6H174.623C174.623 82.5043 174.597 82.4318 174.582 82.3868C174.567 82.3418 174.563 82.3243 174.563 82.3H174.163ZM174.223 82.6C174.223 82.9857 174.057 83.2909 173.819 83.3703L173.946 83.7497C174.428 83.5891 174.623 83.0543 174.623 82.6H174.223ZM173.803 83.3764C171.57 84.3421 169.097 85.7293 166.925 87.2979L167.16 87.6221C169.308 86.0707 171.755 84.6979 173.962 83.7436L173.803 83.3764ZM166.918 87.3038C165.709 88.2704 164.553 89.3647 163.637 90.7073L163.968 90.9327C164.852 89.6353 165.976 88.5696 167.167 87.6162L166.918 87.3038ZM163.638 90.7062C163.094 91.4925 162.452 92.6894 162.645 93.9112L163.04 93.8488C162.873 92.7906 163.431 91.7075 163.967 90.9338L163.638 90.7062ZM162.645 93.9104C162.779 94.7817 163.461 95.4085 164.235 95.8534C165.016 96.3017 165.936 96.592 166.632 96.7735L166.733 96.3865C166.049 96.208 165.169 95.9283 164.435 95.5066C163.694 95.0815 163.146 94.5383 163.04 93.8496L162.645 93.9104ZM166.658 96.7785C167.132 96.8377 167.567 96.9 168.003 96.9V96.5C167.598 96.5 167.193 96.4423 166.707 96.3815L166.658 96.7785ZM168.003 96.9C168.495 96.9 169.048 96.8385 169.642 96.779L169.603 96.381C168.997 96.4415 168.47 96.5 168.003 96.5V96.9ZM169.817 96.6285C169.874 96.3994 169.987 96.0615 170.16 95.786C170.337 95.5028 170.539 95.34 170.763 95.34V94.94C170.326 94.94 170.018 95.2572 169.82 95.574C169.618 95.8985 169.491 96.2806 169.428 96.5315L169.817 96.6285ZM170.763 95.34C170.905 95.34 171.051 95.4123 171.165 95.5327C171.281 95.6546 171.343 95.8025 171.343 95.92H171.743C171.743 95.6775 171.624 95.4354 171.455 95.2572C171.284 95.0777 171.04 94.94 170.763 94.94V95.34ZM171.343 95.92V96.22H171.743V95.92H171.343ZM171.588 96.4148C175.196 95.573 178.988 94.4296 182.302 92.9833L182.143 92.6167C178.857 94.0504 175.089 95.187 171.497 96.0252L171.588 96.4148ZM182.297 92.9857C182.465 92.9185 182.605 92.8534 182.766 92.7919C182.923 92.7322 183.043 92.7 183.123 92.7V92.3C182.962 92.3 182.782 92.3578 182.624 92.4181C182.47 92.4766 182.28 92.5615 182.148 92.6143L182.297 92.9857ZM183.123 92.7C183.273 92.7 183.412 92.7382 183.507 92.8014C183.595 92.8607 183.643 92.9376 183.643 93.04H184.043C184.043 92.7824 183.91 92.5893 183.728 92.4686C183.553 92.3518 183.332 92.3 183.123 92.3V92.7ZM183.645 93.0704C183.65 93.1058 183.643 93.1612 183.592 93.2445C183.54 93.3285 183.451 93.4267 183.32 93.5372C183.058 93.7582 182.66 94.0019 182.156 94.2597C181.15 94.7739 179.761 95.3236 178.3 95.8441C175.381 96.8844 172.208 97.7976 171.305 98.0684L171.42 98.4516C172.317 98.1824 175.504 97.2656 178.435 96.2209C179.899 95.6989 181.308 95.1423 182.338 94.6159C182.852 94.3534 183.281 94.0932 183.578 93.8429C183.726 93.7178 183.849 93.5884 183.932 93.455C184.015 93.321 184.065 93.1692 184.04 93.0096L183.645 93.0704ZM171.166 98.2231C170.984 99.1948 170.908 100.197 170.818 101.174C170.728 102.157 170.624 103.117 170.389 104.03L170.776 104.13C171.021 103.183 171.127 102.193 171.217 101.211C171.307 100.223 171.381 99.2452 171.559 98.2969L171.166 98.2231ZM170.397 104.006C170.332 104.167 170.302 104.224 170.269 104.254C170.249 104.272 170.205 104.3 170.043 104.3V104.7C170.24 104.7 170.406 104.668 170.536 104.551C170.653 104.446 170.713 104.293 170.768 104.154L170.397 104.006ZM255.333 94.78L255.412 94.9638L255.412 94.9638L255.333 94.78ZM259.473 93.1L259.553 93.2834L259.659 93.2373L259.672 93.1225L259.473 93.1ZM260.373 85.6L260.175 85.5717L260.174 85.5764L260.373 85.6ZM261.153 79.24L261.351 79.2683L261.352 79.2638L261.153 79.24ZM263.853 58.24L263.656 58.2042L263.656 58.2077L263.853 58.24ZM265.533 49.06L265.366 48.9489L265.36 48.9592L265.533 49.06ZM267.213 50.08L267.014 50.0619L267.013 50.0686L267.213 50.08ZM265.533 62.68L265.335 62.6541L265.335 62.655L265.533 62.68ZM262.953 84.1L263.151 84.1276L263.152 84.1234L262.953 84.1ZM261.933 92.02L261.734 92.0015L261.707 92.2926L261.988 92.2123L261.933 92.02ZM273.393 88.72L273.439 88.9147L273.441 88.9143L273.393 88.72ZM308.673 84.1L308.676 84.3L308.825 84.2977L308.866 84.1538L308.673 84.1ZM306.753 61.3L306.572 61.385L306.573 61.3865L306.753 61.3ZM216.813 66.22L216.978 66.3327L216.978 66.3323L216.813 66.22ZM217.473 82.36L217.614 82.2186L217.608 82.2122L217.601 82.2064L217.473 82.36ZM217.653 82.54H217.853V82.4572L217.794 82.3986L217.653 82.54ZM213.093 79.96L212.925 80.069L212.928 80.0733L213.093 79.96ZM211.833 76.84L212.03 76.8041L212.027 76.7915L211.833 76.84ZM216.513 63.64L216.671 63.7619L216.672 63.7611L216.513 63.64ZM307.833 58.84L307.656 58.9337L307.657 58.9346L307.833 58.84ZM311.673 79.72L311.475 79.6895L311.474 79.7034L311.673 79.72ZM311.013 84.1L310.819 84.0495L310.754 84.3H311.013V84.1ZM323.493 86.68L323.44 86.8731L323.45 86.8752L323.493 86.68ZM315.933 85.96L315.947 85.7605L315.946 85.7604L315.933 85.96ZM310.533 85.9V85.7H310.394L310.346 85.8298L310.533 85.9ZM304.293 98.44L304.13 98.3238L304.13 98.324L304.293 98.44ZM293.553 107.44L293.679 107.595L293.679 107.595L293.553 107.44ZM302.733 97.24L302.567 97.1291L302.566 97.1303L302.733 97.24ZM308.133 85.78L308.326 85.8335L308.399 85.568L308.124 85.5802L308.133 85.78ZM300.033 86.26L300.02 86.0604L300.016 86.0607L300.033 86.26ZM267.273 92.32L267.329 92.5119L267.33 92.5118L267.273 92.32ZM261.753 94.06L261.679 93.8743L261.572 93.9168L261.555 94.03L261.753 94.06ZM261.033 100.6L260.834 100.577L260.834 100.58L261.033 100.6ZM258.753 100.18L258.554 100.159L258.554 100.159L258.753 100.18ZM259.233 95.02L259.432 95.0342L259.456 94.7007L259.151 94.8375L259.233 95.02ZM253.593 97.54L253.506 97.3599L253.504 97.3611L253.593 97.54ZM257.013 122.66C253.765 122.66 249.054 121.959 245.162 120.217C241.265 118.474 238.253 115.721 238.253 111.64H237.853C237.853 115.959 241.051 118.816 244.999 120.583C248.952 122.351 253.721 123.06 257.013 123.06V122.66ZM238.253 111.64C238.253 107.864 240.936 104.376 244.458 101.474C247.971 98.5803 252.273 96.3092 255.412 94.9638L255.254 94.5962C252.093 95.9508 247.755 98.2397 244.203 101.166C240.66 104.084 237.853 107.676 237.853 111.64H238.253ZM255.412 94.9638C256.038 94.6953 256.725 94.4265 257.431 94.1486C258.136 93.8712 258.859 93.585 259.553 93.2834L259.393 92.9166C258.707 93.215 257.99 93.4988 257.285 93.7764C256.581 94.0535 255.888 94.3247 255.254 94.5962L255.412 94.9638ZM259.672 93.1225C260.032 89.9427 260.271 88.1468 260.572 85.6236L260.174 85.5764C259.875 88.0932 259.634 89.8973 259.274 93.0775L259.672 93.1225ZM260.571 85.6283C260.721 84.5748 260.842 83.5069 260.962 82.4424C261.082 81.3769 261.201 80.3148 261.351 79.2683L260.955 79.2117C260.804 80.2652 260.684 81.3331 260.564 82.3976C260.444 83.4631 260.324 84.5252 260.175 85.5717L260.571 85.6283ZM261.352 79.2638C262.192 72.2392 262.911 65.2267 264.05 58.2723L263.656 58.2077C262.515 65.1733 261.794 72.2007 260.954 79.2162L261.352 79.2638ZM264.05 58.2758C264.17 57.6148 264.487 55.49 264.823 53.4576C264.991 52.4382 265.165 51.4396 265.323 50.6518C265.402 50.2576 265.476 49.9185 265.544 49.6568C265.613 49.3854 265.67 49.2227 265.706 49.1608L265.36 48.9592C265.291 49.0773 265.224 49.2952 265.156 49.5572C265.086 49.829 265.01 50.1761 264.931 50.5732C264.772 51.3679 264.597 52.3718 264.428 53.3924C264.089 55.44 263.776 57.5452 263.656 58.2042L264.05 58.2758ZM265.699 49.1709C265.778 49.0534 265.951 48.96 266.133 48.96V48.56C265.835 48.56 265.528 48.7066 265.367 48.9491L265.699 49.1709ZM266.133 48.96C266.494 48.96 266.715 49.0979 266.846 49.2869C266.984 49.4849 267.041 49.7637 267.014 50.0619L267.412 50.0981C267.445 49.7363 267.382 49.3551 267.175 49.0581C266.961 48.7521 266.612 48.56 266.133 48.56V48.96ZM267.013 50.0686C266.774 54.2607 265.878 58.491 265.335 62.6541L265.731 62.7059C266.268 58.589 267.172 54.2993 267.413 50.0914L267.013 50.0686ZM265.335 62.655C264.434 69.7959 263.594 76.9368 262.754 84.0766L263.152 84.1234C263.992 76.9832 264.832 69.8441 265.731 62.705L265.335 62.655ZM262.755 84.0724C262.395 86.6486 261.974 89.4155 261.734 92.0015L262.132 92.0385C262.372 89.4645 262.791 86.7114 263.151 84.1276L262.755 84.0724ZM261.988 92.2123C265.783 91.128 269.604 89.8135 273.439 88.9147L273.347 88.5253C269.502 89.4265 265.643 90.752 261.878 91.8277L261.988 92.2123ZM273.441 88.9143C284.707 86.1576 297.052 84.4797 308.676 84.3L308.67 83.9C297.014 84.0803 284.639 85.7624 273.345 88.5257L273.441 88.9143ZM308.866 84.1538C309.59 81.5563 310.073 78.0583 310.073 75.34H309.673C309.673 78.0217 309.195 81.4837 308.48 84.0462L308.866 84.1538ZM310.073 75.34C310.073 70.5123 309.047 65.6224 306.933 61.2135L306.573 61.3865C308.659 65.7376 309.673 70.5677 309.673 75.34H310.073ZM306.934 61.215C299.925 46.2905 285.484 41.96 270.093 41.96V42.36C285.422 42.36 299.661 46.6695 306.572 61.385L306.934 61.215ZM270.093 41.96C251.097 41.96 227.739 49.7717 216.648 66.1077L216.978 66.3323C227.967 50.1483 251.169 42.36 270.093 42.36V41.96ZM216.648 66.1073C214.838 68.7617 213.253 72.1618 213.253 75.46H213.653C213.653 72.2781 215.188 68.9583 216.978 66.3327L216.648 66.1073ZM213.253 75.46C213.253 78.4938 215.175 80.7053 217.345 82.5136L217.601 82.2064C215.451 80.4147 213.653 78.3062 213.653 75.46H213.253ZM217.332 82.5014L217.512 82.6814L217.794 82.3986L217.614 82.2186L217.332 82.5014ZM217.453 82.54C217.453 82.7154 217.437 82.9067 217.378 83.0481C217.35 83.1161 217.316 83.1624 217.278 83.1915C217.243 83.2186 217.193 83.24 217.113 83.24V83.64C217.273 83.64 217.411 83.5939 217.522 83.5085C217.63 83.4251 217.701 83.3139 217.748 83.2019C217.839 82.9833 217.853 82.7246 217.853 82.54H217.453ZM217.113 83.24C216.857 83.24 216.53 83.1089 216.156 82.8638C215.786 82.6225 215.395 82.2873 215.018 81.9172C214.263 81.1769 213.581 80.317 213.258 79.8467L212.928 80.0733C213.265 80.563 213.963 81.4431 214.738 82.2028C215.125 82.5827 215.537 82.9375 215.937 83.1987C216.331 83.4561 216.739 83.64 217.113 83.64V83.24ZM213.261 79.851C212.873 79.2553 212.626 78.8177 212.446 78.3702C212.266 77.9232 212.149 77.4582 212.03 76.8042L211.636 76.8758C211.757 77.5418 211.88 78.0368 212.075 78.5198C212.27 79.0023 212.532 79.4647 212.925 80.069L213.261 79.851ZM212.027 76.7915C211.914 76.3401 211.913 75.7665 211.913 75.28H211.513C211.513 75.7535 211.512 76.3799 211.639 76.8885L212.027 76.7915ZM211.913 75.28C211.913 71.3264 214.281 66.8702 216.671 63.7619L216.354 63.5181C213.945 66.6498 211.513 71.1936 211.513 75.28H211.913ZM216.672 63.7611C228.443 48.2861 250.693 40.5 269.733 40.5V40.1C250.613 40.1 228.223 47.9139 216.354 63.5189L216.672 63.7611ZM269.733 40.5C285.248 40.5 299.909 44.3332 307.656 58.9337L308.01 58.7463C300.157 43.9468 285.298 40.1 269.733 40.1V40.5ZM307.657 58.9346C310.283 63.8287 311.833 69.4365 311.833 74.92H312.233C312.233 69.3635 310.663 63.6913 308.009 58.7454L307.657 58.9346ZM311.833 74.92C311.833 76.4705 311.714 78.1403 311.475 79.6896L311.871 79.7504C312.112 78.1797 312.233 76.4895 312.233 74.92H311.833ZM311.474 79.7034C311.354 81.1409 311.175 82.6868 310.819 84.0495L311.206 84.1505C311.571 82.7532 311.752 81.1791 311.872 79.7366L311.474 79.7034ZM311.013 84.3C312.032 84.3 315.654 84.3151 319.019 84.644C320.703 84.8087 322.311 85.051 323.494 85.4053C324.086 85.5829 324.558 85.7845 324.878 86.0092C325.198 86.2347 325.333 86.4586 325.333 86.68H325.733C325.733 86.2714 325.478 85.9422 325.108 85.682C324.737 85.4211 324.218 85.2046 323.608 85.0222C322.388 84.6565 320.748 84.4113 319.057 84.2459C315.672 83.9149 312.034 83.9 311.013 83.9V84.3ZM325.333 86.68C325.333 86.7152 325.31 86.7934 325.254 86.8656C325.199 86.9372 325.146 86.96 325.113 86.96V87.36C325.32 87.36 325.477 87.2328 325.571 87.1094C325.666 86.9866 325.733 86.8248 325.733 86.68H325.333ZM325.113 86.96C324.853 86.96 324.612 86.8822 324.355 86.7793C324.108 86.6804 323.827 86.5494 323.536 86.4848L323.45 86.8752C323.699 86.9306 323.928 87.0396 324.206 87.1507C324.474 87.2578 324.773 87.36 325.113 87.36V86.96ZM323.546 86.4872C322.326 86.1517 321.05 86.0156 319.77 85.9403C318.473 85.8641 317.215 85.851 315.947 85.7605L315.919 86.1595C317.171 86.249 318.493 86.2659 319.746 86.3397C321.016 86.4144 322.26 86.5483 323.44 86.8728L323.546 86.4872ZM315.946 85.7604C315.039 85.6999 314.132 85.7 313.233 85.7V86.1C314.134 86.1 315.027 86.1001 315.92 86.1596L315.946 85.7604ZM313.233 85.7H310.533V86.1H313.233V85.7ZM310.346 85.8298C308.727 90.1455 306.815 94.5656 304.13 98.3238L304.456 98.5562C307.171 94.7544 309.099 90.2945 310.72 85.9702L310.346 85.8298ZM304.13 98.324C293.787 112.852 274.828 122.66 257.013 122.66V123.06C274.958 123.06 294.039 113.188 304.456 98.556L304.13 98.324ZM257.373 121.26C269.727 121.26 284.17 115.299 293.679 107.595L293.427 107.285C283.976 114.941 269.619 120.86 257.373 120.86V121.26ZM293.679 107.595C297.236 104.702 300.369 101.206 302.9 97.3497L302.566 97.1303C300.057 100.954 296.95 104.418 293.427 107.285L293.679 107.595ZM302.899 97.3509C303.569 96.347 304.774 94.0093 305.884 91.663C306.992 89.3183 308.02 86.9328 308.326 85.8335L307.94 85.7265C307.646 86.7872 306.634 89.1417 305.522 91.492C304.412 93.8407 303.217 96.153 302.567 97.1291L302.899 97.3509ZM308.124 85.5802C305.422 85.7003 302.719 85.8805 300.02 86.0604L300.046 86.4596C302.747 86.2795 305.444 86.0997 308.142 85.9798L308.124 85.5802ZM300.016 86.0607C288.844 87.0218 277.971 88.944 267.216 92.1282L267.33 92.5118C278.055 89.336 288.902 87.4182 300.05 86.4593L300.016 86.0607ZM267.217 92.1281C266.206 92.4253 263.49 93.1496 261.679 93.8743L261.827 94.2457C263.616 93.5304 266.3 92.8147 267.329 92.5119L267.217 92.1281ZM261.555 94.03C261.255 96.0118 261.072 98.5532 260.834 100.577L261.232 100.623C261.474 98.5668 261.651 96.0682 261.951 94.09L261.555 94.03ZM260.834 100.58C260.475 104.228 259.933 107.967 259.933 111.64H260.333C260.333 107.993 260.871 104.292 261.232 100.62L260.834 100.58ZM259.933 111.64V112.18H260.333V111.64H259.933ZM259.933 112.18C259.933 112.425 259.914 112.59 259.84 112.697C259.78 112.785 259.65 112.88 259.293 112.88V113.28C259.716 113.28 260.006 113.165 260.171 112.923C260.322 112.7 260.333 112.415 260.333 112.18H259.933ZM259.293 112.88C259.065 112.88 258.901 112.815 258.776 112.713C258.649 112.609 258.549 112.455 258.475 112.259C258.324 111.861 258.293 111.339 258.293 110.86H257.893C257.893 111.341 257.922 111.929 258.101 112.401C258.192 112.64 258.325 112.861 258.523 113.023C258.725 113.188 258.981 113.28 259.293 113.28V112.88ZM258.293 110.86C258.293 107.27 258.592 103.679 258.952 100.201L258.554 100.159C258.194 103.641 257.893 107.25 257.893 110.86H258.293ZM258.952 100.201C259.132 98.5207 259.312 96.7178 259.432 95.0342L259.033 95.0058C258.914 96.6822 258.734 98.4793 258.554 100.159L258.952 100.201ZM259.151 94.8375C257.419 95.6139 255.249 96.5185 253.506 97.3599L253.68 97.7201C255.417 96.8815 257.567 95.9861 259.315 95.2025L259.151 94.8375ZM253.504 97.3611C251.096 98.5648 247.63 100.553 244.763 103.006C241.906 105.449 239.593 108.395 239.593 111.52H239.993C239.993 108.585 242.18 105.741 245.023 103.309C247.856 100.887 251.29 98.9152 253.682 97.7189L253.504 97.3611ZM239.593 111.52C239.593 115.43 242.67 117.863 246.373 119.311C250.085 120.763 254.507 121.26 257.373 121.26V120.86C254.539 120.86 250.171 120.367 246.518 118.939C242.856 117.507 239.993 115.17 239.993 111.52H239.593ZM346.474 86.14L346.653 86.0506L346.598 85.94H346.474V86.14ZM340.714 91.6L340.808 91.7765L340.811 91.7748L340.714 91.6ZM333.394 88L333.592 87.9671L333.521 87.543L333.242 87.8703L333.394 88ZM328.354 91.42L328.157 91.386L328.058 91.962L328.489 91.5676L328.354 91.42ZM333.094 84.46L333.275 84.546L333.336 84.4185L333.236 84.3186L333.094 84.46ZM327.814 93.56C327.291 93.56 326.898 93.3022 326.629 92.9115C326.356 92.5155 326.214 91.9868 326.214 91.48H325.814C325.814 92.0532 325.973 92.6645 326.3 93.1385C326.63 93.6178 327.137 93.96 327.814 93.96V93.56ZM326.214 91.48C326.214 89.9021 326.876 87.5211 328.018 85.5346C329.166 83.537 330.749 82.02 332.554 82.02V81.62C330.52 81.62 328.833 83.313 327.671 85.3354C326.502 87.3689 325.814 89.8179 325.814 91.48H326.214ZM332.554 82.02C332.779 82.02 333.065 82.1061 333.377 82.2676C333.687 82.4275 334.006 82.6535 334.296 82.9137C334.585 83.174 334.838 83.464 335.018 83.7491C335.199 84.0374 335.294 84.3034 335.294 84.52H335.694C335.694 84.1966 335.557 83.8551 335.356 83.5359C335.153 83.2135 334.874 82.896 334.563 82.6163C334.252 82.3365 333.905 82.09 333.561 81.9124C333.221 81.7364 332.869 81.62 332.554 81.62V82.02ZM335.294 84.52C335.294 85.3723 335.203 86.9782 335.471 88.3605C335.604 89.0531 335.832 89.714 336.224 90.2051C336.623 90.7052 337.186 91.02 337.954 91.02V90.62C337.313 90.62 336.863 90.3648 336.537 89.9556C336.203 89.5373 335.992 88.9494 335.863 88.2845C335.606 86.9518 335.694 85.4077 335.694 84.52H335.294ZM337.954 91.02C338.665 91.02 339.504 90.704 340.353 90.2563C341.208 89.8055 342.1 89.2066 342.924 88.6122C343.746 88.0189 344.512 87.4214 345.102 86.9809C345.4 86.7589 345.651 86.5776 345.848 86.4522C345.946 86.3894 346.026 86.3434 346.088 86.3138C346.158 86.2808 346.181 86.28 346.174 86.28V85.88C346.085 85.88 345.993 85.9162 345.916 85.9526C345.833 85.9925 345.737 86.0483 345.632 86.1151C345.423 86.249 345.161 86.4379 344.863 86.6604C344.263 87.1086 343.51 87.6961 342.69 88.2878C341.871 88.8784 340.997 89.4645 340.166 89.9025C339.33 90.3435 338.564 90.62 337.954 90.62V91.02ZM346.174 86.28C346.199 86.28 346.216 86.2848 346.261 86.2997C346.306 86.3148 346.379 86.34 346.474 86.34V85.94C346.45 85.94 346.433 85.9352 346.388 85.9203C346.343 85.9052 346.27 85.88 346.174 85.88V86.28ZM346.295 86.2294C346.313 86.264 346.334 86.3019 346.353 86.3361C346.373 86.372 346.391 86.4061 346.408 86.4394C346.425 86.473 346.437 86.5016 346.445 86.5254C346.454 86.5506 346.454 86.5608 346.454 86.56H346.854C346.854 86.4477 346.803 86.3344 346.766 86.2606C346.745 86.2189 346.722 86.178 346.703 86.1426C346.682 86.1056 346.666 86.076 346.653 86.0506L346.295 86.2294ZM346.454 86.56C346.454 86.6308 346.409 86.7584 346.279 86.9487C346.153 87.1312 345.968 87.3439 345.736 87.5779C345.272 88.0453 344.639 88.5792 343.967 89.1021C342.621 90.1489 341.145 91.1321 340.617 91.4252L340.811 91.7748C341.364 91.4679 342.858 90.4711 344.212 89.4179C344.89 88.8908 345.539 88.3447 346.02 87.8596C346.26 87.6174 346.464 87.3856 346.608 87.1753C346.747 86.9729 346.854 86.7592 346.854 86.56H346.454ZM340.62 91.4235C339.733 91.8967 338.627 92.3 337.654 92.3V92.7C338.722 92.7 339.896 92.2633 340.808 91.7765L340.62 91.4235ZM337.654 92.3C336.495 92.3 335.573 91.7512 334.891 90.932C334.205 90.1094 333.767 89.0193 333.592 87.9671L333.197 88.0329C333.382 89.1407 333.844 90.3006 334.583 91.188C335.326 92.0788 336.353 92.7 337.654 92.7V92.3ZM333.242 87.8703C332.887 88.2875 332.512 88.8621 332.118 89.4754C331.721 90.0934 331.301 90.7563 330.849 91.3686C330.396 91.9813 329.917 92.5328 329.407 92.93C328.898 93.3266 328.37 93.56 327.814 93.56V93.96C328.488 93.96 329.101 93.6759 329.653 93.2456C330.204 92.8159 330.708 92.2312 331.17 91.6064C331.632 90.9812 332.06 90.3053 332.455 89.6915C332.852 89.0729 333.212 88.5225 333.547 88.1297L333.242 87.8703ZM328.489 91.5676C330.618 89.6209 332.072 87.0724 333.275 84.546L332.914 84.374C331.717 86.8876 330.29 89.379 328.219 91.2724L328.489 91.5676ZM333.236 84.3186C333.209 84.2916 333.176 84.2557 333.131 84.207C333.088 84.161 333.037 84.108 332.983 84.058C332.929 84.0087 332.867 83.9574 332.801 83.9175C332.738 83.8793 332.652 83.84 332.554 83.84V84.24C332.547 84.24 332.558 84.2382 332.594 84.26C332.628 84.2801 332.667 84.3113 332.711 84.352C332.755 84.392 332.797 84.4365 332.839 84.4805C332.877 84.5218 332.92 84.5684 332.953 84.6014L333.236 84.3186ZM332.554 83.84C331.925 83.84 331.36 84.2487 330.877 84.8191C330.388 85.3951 329.95 86.1732 329.575 86.9945C328.825 88.6375 328.31 90.499 328.157 91.386L328.551 91.454C328.699 90.601 329.203 88.7725 329.939 87.1605C330.307 86.3543 330.727 85.6137 331.182 85.0778C331.641 84.5363 332.104 84.24 332.554 84.24V83.84ZM354.154 92.62L354.303 92.7529L354.304 92.7521L354.154 92.62ZM359.614 76.42L359.441 76.5215L359.445 76.5268L359.614 76.42ZM352.054 95.78C350.789 95.78 350.034 94.9661 349.585 93.8432C349.134 92.7157 349.014 91.3205 349.014 90.28H348.614C348.614 91.3395 348.734 92.7943 349.213 93.9918C349.694 95.1939 350.559 96.18 352.054 96.18V95.78ZM349.014 90.28C349.014 89.6615 349.133 87.6775 349.439 85.8505C349.592 84.936 349.79 84.073 350.038 83.443C350.162 83.1271 350.295 82.8824 350.431 82.72C350.568 82.5575 350.689 82.5 350.794 82.5V82.1C350.524 82.1 350.302 82.2525 350.125 82.4624C349.948 82.6724 349.797 82.9626 349.666 83.2964C349.402 83.9657 349.199 84.8615 349.044 85.7845C348.735 87.6325 348.614 89.6385 348.614 90.28H349.014ZM350.794 82.5C351.079 82.5 351.314 82.6831 351.314 82.96H351.714C351.714 82.3969 351.229 82.1 350.794 82.1V82.5ZM351.314 82.96C351.314 84.1422 351.137 85.2972 350.956 86.4696C350.777 87.6372 350.594 88.8222 350.594 90.04H350.994C350.994 88.8578 351.171 87.7028 351.352 86.5304C351.531 85.3628 351.714 84.1778 351.714 82.96H351.314ZM350.594 90.04C350.594 90.4586 350.593 91.4801 350.754 92.3995C350.835 92.8574 350.957 93.3079 351.152 93.6489C351.347 93.9914 351.637 94.26 352.054 94.26V93.86C351.841 93.86 351.659 93.7311 351.499 93.4511C351.339 93.1696 351.226 92.7726 351.148 92.3305C350.994 91.4499 350.994 90.4614 350.994 90.04H350.594ZM352.054 94.26C352.515 94.26 352.965 93.9982 353.341 93.699C353.723 93.3949 354.063 93.0236 354.303 92.7529L354.004 92.4871C353.765 92.7564 353.445 93.1051 353.092 93.386C352.733 93.6718 352.373 93.86 352.054 93.86V94.26ZM354.304 92.7521C356.973 89.7188 359.034 84.6328 359.034 80.62H358.634C358.634 84.5272 356.614 89.5212 354.004 92.4879L354.304 92.7521ZM359.034 80.62C359.034 79.9583 358.771 78.5982 358.308 77.4051C358.075 76.8071 357.787 76.2366 357.446 75.8118C357.107 75.3908 356.688 75.08 356.194 75.08V75.48C356.509 75.48 356.826 75.6792 357.134 76.0625C357.439 76.4422 357.71 76.9704 357.935 77.5499C358.386 78.7118 358.634 80.0217 358.634 80.62H359.034ZM356.194 75.08C356.003 75.08 355.852 75.1385 355.734 75.1827C355.612 75.2285 355.523 75.26 355.414 75.26V75.66C355.605 75.66 355.756 75.6015 355.874 75.5573C355.996 75.5115 356.085 75.48 356.194 75.48V75.08ZM355.414 75.26C355.224 75.26 355.074 75.1095 355.074 74.92H354.674C354.674 75.3305 355.003 75.66 355.414 75.66V75.26ZM355.074 74.92C355.074 74.677 355.231 74.4292 355.49 74.2315C355.748 74.0349 356.066 73.92 356.314 73.92V73.52C355.962 73.52 355.56 73.6751 355.248 73.9135C354.937 74.1508 354.674 74.503 354.674 74.92H355.074ZM356.314 73.92C356.895 73.92 357.522 74.295 358.097 74.8335C358.666 75.3656 359.149 76.0246 359.442 76.5214L359.786 76.3186C359.478 75.7953 358.972 75.1044 358.371 74.5415C357.776 73.985 357.053 73.52 356.314 73.52V73.92ZM359.445 76.5268C360.135 77.6192 360.254 78.6537 360.254 79.96H360.654C360.654 78.6263 360.533 77.5008 359.783 76.3132L359.445 76.5268ZM360.254 79.96C360.254 81.9665 359.437 85.9448 357.982 89.4228C357.255 91.1603 356.374 92.7588 355.367 93.9196C354.358 95.0824 353.246 95.78 352.054 95.78V96.18C353.412 96.18 354.625 95.3851 355.669 94.1817C356.715 92.9762 357.615 91.3347 358.351 89.5772C359.821 86.0652 360.654 82.0335 360.654 79.96H360.254ZM366.905 83.44L366.763 83.2985L366.76 83.3019L366.905 83.44ZM368.645 85.42L368.452 85.365L368.45 85.3731L368.645 85.42ZM380.225 85.84L380.264 85.6439L380.151 85.6213L380.075 85.7078L380.225 85.84ZM379.505 88.6L379.658 88.7288L379.661 88.7249L379.505 88.6ZM368.885 80.86L368.87 81.0594L368.877 81.06H368.885V80.86ZM369.005 76.66L368.996 76.86H369.005V76.66ZM369.005 94.94C367.628 94.94 366.621 94.3695 365.954 93.4961C365.282 92.6164 364.945 91.4174 364.945 90.16H364.545C364.545 91.4826 364.898 92.7736 365.636 93.7389C366.378 94.7105 367.502 95.34 369.005 95.34V94.94ZM364.945 90.16C364.945 89.6478 365.164 88.319 365.545 86.9434C365.735 86.2591 365.963 85.5707 366.219 84.9741C366.478 84.3736 366.759 83.8822 367.05 83.5781L366.76 83.3019C366.42 83.6578 366.117 84.2014 365.852 84.8159C365.586 85.4343 365.352 86.1409 365.16 86.8366C364.776 88.221 364.545 89.5922 364.545 90.16H364.945ZM367.046 83.5814C367.219 83.4092 367.489 83.4 367.745 83.4V83C367.521 83 367.071 82.9908 366.763 83.2986L367.046 83.5814ZM367.745 83.4C368.066 83.4 368.278 83.4927 368.411 83.631C368.545 83.7708 368.625 83.985 368.625 84.28H369.025C369.025 83.915 368.925 83.5892 368.699 83.354C368.472 83.1173 368.144 83 367.745 83V83.4ZM368.625 84.28C368.625 84.6165 368.569 84.9575 368.453 85.3651L368.837 85.4749C368.961 85.0425 369.025 84.6635 369.025 84.28H368.625ZM368.45 85.3731C368.243 86.2312 367.859 87.2341 367.518 88.2355C367.182 89.2213 366.885 90.2118 366.885 91H367.285C367.285 90.2882 367.558 89.3587 367.897 88.3645C368.23 87.3859 368.626 86.3488 368.839 85.4669L368.45 85.3731ZM366.885 91C366.885 91.6863 367.04 92.3489 367.412 92.845C367.791 93.3497 368.377 93.66 369.185 93.66V93.26C368.492 93.26 368.029 93.0003 367.732 92.605C367.429 92.2011 367.285 91.6337 367.285 91H366.885ZM369.185 93.66C370.1 93.66 371.119 93.3261 372.156 92.8023C373.196 92.277 374.27 91.5527 375.3 90.753C377.36 89.1536 379.259 87.2394 380.375 85.9722L380.075 85.7078C378.971 86.9606 377.09 88.8564 375.055 90.437C374.037 91.2273 372.985 91.9355 371.976 92.4452C370.963 92.9564 370.01 93.26 369.185 93.26V93.66ZM380.186 86.0361C380.301 86.0591 380.417 86.1175 380.501 86.1962C380.585 86.2747 380.625 86.3601 380.625 86.44H381.025C381.025 86.2199 380.915 86.0353 380.774 85.9038C380.633 85.7725 380.449 85.6809 380.264 85.6439L380.186 86.0361ZM380.625 86.44C380.625 86.7627 380.449 87.1084 380.184 87.4691C380.054 87.6462 379.908 87.8195 379.762 87.9885C379.618 88.1553 379.472 88.3213 379.349 88.4751L379.661 88.7249C379.778 88.5787 379.916 88.4222 380.065 88.2496C380.212 88.0793 380.366 87.8963 380.506 87.7059C380.781 87.3316 381.025 86.8973 381.025 86.44H380.625ZM379.352 88.4713C378.252 89.7792 376.57 91.4017 374.703 92.6956C372.831 93.9935 370.803 94.94 369.005 94.94V95.34C370.927 95.34 373.038 94.3365 374.931 93.0244C376.83 91.7083 378.538 90.0608 379.658 88.7287L379.352 88.4713ZM368.9 80.6606C368.539 80.6328 368.222 80.5225 368 80.3385C367.784 80.1594 367.645 79.9011 367.645 79.54H367.245C367.245 80.0189 367.436 80.3906 367.745 80.6465C368.048 80.8975 368.451 81.0272 368.87 81.0594L368.9 80.6606ZM367.645 79.54C367.645 79.0359 367.69 78.3295 367.895 77.7632C367.998 77.481 368.135 77.2483 368.312 77.0907C368.484 76.9377 368.703 76.8471 368.996 76.8598L369.014 76.4602C368.617 76.4429 368.296 76.5698 368.046 76.7918C367.801 77.0092 367.635 77.3089 367.519 77.6268C367.29 78.2605 367.245 79.0241 367.245 79.54H367.645ZM369.005 76.86C369.079 76.86 369.193 76.9085 369.339 77.0413C369.479 77.1688 369.622 77.3499 369.751 77.5543C369.879 77.7577 369.99 77.977 370.067 78.1757C370.147 78.3796 370.185 78.5428 370.185 78.64H370.585C370.585 78.4672 370.525 78.2479 370.44 78.03C370.353 77.8067 370.23 77.5648 370.089 77.3407C369.948 77.1176 369.783 76.905 369.608 76.7456C369.439 76.5915 369.231 76.46 369.005 76.46V76.86ZM370.185 78.64C370.185 79.0647 370.085 79.5852 369.864 79.9921C369.645 80.3958 369.326 80.66 368.885 80.66V81.06C369.523 81.06 369.955 80.6642 370.216 80.1829C370.475 79.7048 370.585 79.1153 370.585 78.64H370.185ZM391.244 86.14L391.442 86.1105L391.421 85.9715L391.283 85.9439L391.244 86.14ZM390.164 84.94L390.351 84.8698L390.206 84.4817L389.993 84.8371L390.164 84.94ZM389.864 81.82L389.839 82.0185L389.948 82.032L390.018 81.948L389.864 81.82ZM391.904 76.96L392.101 76.9969L392.101 76.9954L391.904 76.96ZM393.584 67.96L393.39 67.9115L393.39 67.9124L393.584 67.96ZM394.304 75.04L394.488 75.1199L394.488 75.1185L394.304 75.04ZM397.604 95.14L397.62 94.9406L397.62 94.9406L397.604 95.14ZM409.064 86.68L408.91 86.5518L408.904 86.56L409.064 86.68ZM409.664 85.72L409.625 85.5239L409.529 85.5431L409.485 85.6306L409.664 85.72ZM409.964 85.66L410.039 85.4743L409.983 85.4522L409.925 85.4639L409.964 85.66ZM410.264 85.78L410.457 85.7251L410.43 85.6307L410.339 85.5943L410.264 85.78ZM410.384 86.2H410.584V86.172L410.577 86.1451L410.384 86.2ZM409.724 87.7L409.56 87.5853L409.559 87.5871L409.724 87.7ZM383.624 92.5L383.428 92.4608L383.35 92.85L383.709 92.681L383.624 92.5ZM388.904 83.68H389.104V83.4957L388.92 83.4807L388.904 83.68ZM383.684 91.6L383.484 91.59V91.6H383.684ZM391.124 82.9L390.93 82.9485L390.983 83.158L391.187 83.0897L391.124 82.9ZM391.304 82.84L391.367 83.0297L391.504 82.9841V82.84H391.304ZM391.304 82.48H391.504V82.28H391.304V82.48ZM391.184 82.48V82.28H391.077L391.018 82.3691L391.184 82.48ZM391.064 82.66L390.898 82.5491L390.849 82.6227L390.87 82.7085L391.064 82.66ZM396.044 66.52L396.204 66.64L396.226 66.6105L396.237 66.5749L396.044 66.52ZM397.724 60.88L397.924 60.8953L397.555 60.774L397.724 60.88ZM395.864 66.76H395.664V67.36L396.024 66.88L395.864 66.76ZM397.724 96.32C396.324 96.32 395.282 95.9345 394.49 95.3068C393.696 94.6766 393.14 93.7901 392.735 92.7641C391.921 90.6999 391.746 88.1453 391.442 86.1105L391.046 86.1695C391.343 88.1547 391.527 90.7901 392.363 92.9109C392.784 93.9774 393.375 94.9322 394.242 95.6201C395.112 96.3105 396.245 96.72 397.724 96.72V96.32ZM391.283 85.9439C391.045 85.8961 390.858 85.7527 390.705 85.5533C390.551 85.3518 390.439 85.1037 390.351 84.8698L389.977 85.0102C390.069 85.2563 390.197 85.5482 390.388 85.7967C390.58 86.0473 390.844 86.2639 391.205 86.3361L391.283 85.9439ZM389.993 84.8371C389.67 85.3755 389.259 86.3011 388.787 87.3669C388.312 88.4394 387.771 89.6663 387.181 90.8269C386.59 91.9892 385.957 93.0741 385.302 93.8659C384.639 94.6677 383.993 95.12 383.384 95.12V95.52C384.185 95.52 384.935 94.9373 385.61 94.1209C386.294 93.2946 386.943 92.1783 387.538 91.0081C388.133 89.8362 388.679 88.5994 389.153 87.5288C389.63 86.4514 390.029 85.5545 390.336 85.0429L389.993 84.8371ZM383.384 95.12C383.007 95.12 382.725 95.01 382.51 94.8369C382.292 94.6614 382.129 94.4109 382.01 94.1132C381.77 93.5132 381.724 92.7656 381.724 92.2H381.324C381.324 92.7744 381.369 93.5868 381.639 94.2618C381.774 94.6016 381.972 94.9174 382.26 95.1487C382.551 95.3825 382.922 95.52 383.384 95.52V95.12ZM381.724 92.2C381.724 90.3736 382.316 87.7505 383.456 85.5883C384.601 83.4176 386.259 81.78 388.364 81.78V81.38C386.029 81.38 384.268 83.1924 383.102 85.4017C381.933 87.6195 381.324 90.3064 381.324 92.2H381.724ZM388.364 81.78C388.613 81.78 388.851 81.8214 389.095 81.8731C389.333 81.9236 389.588 81.9871 389.839 82.0185L389.889 81.6215C389.66 81.5929 389.435 81.5364 389.178 81.4819C388.927 81.4286 388.656 81.38 388.364 81.38V81.78ZM390.018 81.948C390.184 81.7481 390.385 81.3951 390.59 80.9807C390.798 80.5609 391.019 80.0614 391.227 79.5559C391.639 78.5515 392.007 77.4993 392.101 76.9969L391.708 76.9231C391.622 77.3807 391.269 78.3985 390.857 79.4041C390.652 79.9036 390.434 80.3941 390.232 80.8031C390.026 81.2174 389.844 81.5319 389.711 81.692L390.018 81.948ZM392.101 76.9954C392.643 73.9842 393.06 70.9397 393.778 68.0076L393.39 67.9124C392.668 70.8603 392.245 73.9358 391.707 76.9246L392.101 76.9954ZM393.778 68.0085C394.017 67.055 394.854 64.123 395.893 61.432C396.413 60.0856 396.98 58.8082 397.544 57.8706C397.826 57.4011 398.103 57.0257 398.366 56.77C398.633 56.5103 398.86 56.4 399.044 56.4V56C398.704 56 398.381 56.1972 398.087 56.4831C397.789 56.7731 397.492 57.1814 397.201 57.6644C396.62 58.6318 396.043 59.9344 395.52 61.288C394.474 63.997 393.632 66.945 393.39 67.9115L393.778 68.0085ZM399.044 56.4C399.249 56.4 399.471 56.5045 399.645 56.6789C399.82 56.8533 399.924 57.075 399.924 57.28H400.324C400.324 56.945 400.159 56.6266 399.928 56.3961C399.698 56.1655 399.379 56 399.044 56V56.4ZM399.924 57.28C399.924 58.3035 399.675 59.6633 399.266 61.2018C398.859 62.737 398.296 64.4372 397.679 66.1367C396.443 69.5357 394.991 72.9207 394.12 74.9615L394.488 75.1185C395.358 73.0793 396.815 69.6843 398.055 66.2733C398.675 64.5678 399.241 62.8555 399.653 61.3044C400.064 59.7567 400.324 58.3565 400.324 57.28H399.924ZM394.121 74.9601C393.598 76.16 393.266 78.0012 393.063 79.8634C392.86 81.7316 392.784 83.6439 392.784 85H393.184C393.184 83.6561 393.259 81.7584 393.461 79.9066C393.663 78.0488 393.991 76.26 394.488 75.1199L394.121 74.9601ZM392.784 85C392.784 86.6152 392.783 89.0878 393.369 91.2034C393.662 92.2627 394.107 93.2479 394.785 93.9939C395.468 94.7448 396.381 95.2453 397.589 95.3394L397.62 94.9406C396.517 94.8547 395.698 94.4027 395.081 93.7248C394.46 93.0421 394.039 92.1223 393.754 91.0966C393.185 89.0422 393.184 86.6248 393.184 85H392.784ZM397.588 95.3394C398.587 95.4187 399.692 95.0737 400.804 94.4932C401.918 93.9111 403.06 93.0817 404.139 92.1649C406.297 90.3315 408.227 88.1303 409.224 86.8L408.904 86.56C407.922 87.8697 406.012 90.0485 403.88 91.8601C402.814 92.7658 401.698 93.5752 400.619 94.1387C399.536 94.7038 398.511 95.0113 397.62 94.9406L397.588 95.3394ZM409.218 86.808C409.534 86.4286 409.723 86.0502 409.843 85.8094L409.485 85.6306C409.366 85.8698 409.194 86.2113 408.911 86.552L409.218 86.808ZM409.703 85.9161L410.003 85.8561L409.925 85.4639L409.625 85.5239L409.703 85.9161ZM409.89 85.8457L410.19 85.9657L410.339 85.5943L410.039 85.4743L409.89 85.8457ZM410.072 85.8349L410.192 86.2549L410.577 86.1451L410.457 85.7251L410.072 85.8349ZM410.184 86.2C410.184 86.3404 410.136 86.536 410.029 86.7793C409.923 87.0195 409.765 87.2931 409.56 87.5853L409.888 87.8147C410.104 87.5069 410.276 87.2105 410.395 86.9407C410.512 86.674 410.584 86.4196 410.584 86.2H410.184ZM409.559 87.5871C408.4 89.2814 406.463 91.4722 404.295 93.2374C402.119 95.0097 399.751 96.32 397.724 96.32V96.72C399.897 96.72 402.359 95.3303 404.548 93.5476C406.746 91.7578 408.709 89.5386 409.889 87.8129L409.559 87.5871ZM383.709 92.681C383.8 92.6385 383.893 92.5671 383.986 92.4833C384.081 92.3975 384.184 92.2896 384.294 92.1645C384.514 91.9141 384.769 91.5853 385.042 91.2048C385.589 90.4433 386.22 89.4633 386.818 88.4626C387.417 87.4619 387.984 86.4369 388.402 85.585C388.611 85.1594 388.785 84.774 388.906 84.455C389.024 84.1451 389.104 83.8709 389.104 83.68H388.704C388.704 83.7891 388.651 84.0005 388.532 84.3126C388.417 84.6156 388.249 84.9888 388.043 85.4087C387.631 86.2481 387.069 87.2631 386.475 88.2574C385.881 89.2517 385.256 90.2217 384.717 90.9714C384.448 91.3466 384.202 91.6637 383.994 91.9004C383.89 92.0187 383.797 92.1146 383.717 92.1867C383.635 92.2609 383.576 92.3015 383.539 92.319L383.709 92.681ZM388.92 83.4807C388.113 83.4148 387.376 83.763 386.733 84.3286C386.091 84.8937 385.528 85.6883 385.061 86.555C384.127 88.2856 383.546 90.3544 383.484 91.59L383.884 91.61C383.942 90.4456 384.501 88.4344 385.413 86.745C385.868 85.9017 386.404 85.1513 386.997 84.6289C387.59 84.107 388.225 83.8252 388.888 83.8793L388.92 83.4807ZM383.484 91.6C383.484 91.9031 383.484 92.1833 383.428 92.4608L383.82 92.5392C383.885 92.2167 383.884 91.8969 383.884 91.6H383.484ZM391.187 83.0897L391.367 83.0297L391.241 82.6503L391.061 82.7103L391.187 83.0897ZM391.504 82.84V82.48H391.104V82.84H391.504ZM391.304 82.28H391.184V82.68H391.304V82.28ZM391.018 82.3691L390.898 82.5491L391.231 82.7709L391.351 82.5909L391.018 82.3691ZM390.87 82.7085L390.93 82.9485L391.318 82.8515L391.258 82.6115L390.87 82.7085ZM396.237 66.5749C396.475 65.7414 396.86 64.7354 397.208 63.7199C397.553 62.7167 397.861 61.7041 397.924 60.8953L397.525 60.8647C397.467 61.6159 397.176 62.5833 396.83 63.5901C396.489 64.5846 396.094 65.6186 395.852 66.4651L396.237 66.5749ZM397.555 60.774C397.507 60.8506 397.444 60.9909 397.373 61.1619C397.301 61.3383 397.214 61.5627 397.119 61.8184C396.93 62.33 396.706 62.9715 396.492 63.6143C396.278 64.2569 396.073 64.9026 395.921 65.4223C395.845 65.682 395.782 65.912 395.737 66.0953C395.695 66.27 395.664 66.4246 395.664 66.52H396.064C396.064 66.4804 396.082 66.3725 396.126 66.1893C396.168 66.0147 396.23 65.7914 396.305 65.5345C396.455 65.0212 396.658 64.3806 396.871 63.7407C397.085 63.101 397.307 62.4638 397.495 61.9572C397.588 61.7039 397.673 61.4844 397.743 61.3142C397.815 61.1384 397.867 61.0294 397.894 60.986L397.555 60.774ZM395.664 66.52V66.76H396.064V66.52H395.664ZM396.024 66.88L396.204 66.64L395.884 66.4L395.704 66.64L396.024 66.88Z" fill="#4B6CFF" mask="url(#path-1-outside-1_334_4035)"/>
</svg>
