<svg width="4000" height="2756" viewBox="0 0 4000 2756" fill="none" xmlns="http://www.w3.org/2000/svg">
<g clip-path="url(#clip0_255_168)">
<rect width="4000" height="2756" fill="#FF0000" fill-opacity="0.2"/>
<rect width="2658" height="1154.84" transform="translate(1282 1063.16)" fill="#FF0000" fill-opacity="0.2"/>
<mask id="mask0_255_168" style="mask-type:alpha" maskUnits="userSpaceOnUse" x="1431" y="1773" width="945" height="454">
<path d="M2329.5 2052.5C2329.5 2052.5 2041.19 2113.48 1814 2165.5C1618.5 2201 1536.5 2229.5 1532 2198.5C1527.5 2167.5 1492.61 2098.56 1481.5 2043C1454.5 1908 1425.53 1845.79 1467.5 1851C1645 1873 2021.9 1761.4 2051.5 1794.5C2115 1865.5 2178.5 1913 2361 2029.5" stroke="white" stroke-width="30" stroke-linecap="round"/>
</mask>
<g mask="url(#mask0_255_168)">
<path fill-rule="evenodd" clip-rule="evenodd" d="M2041.75 1785.08C2040.79 1785.64 2040 1786.91 2040 1787.91C2040 1789.53 2038.65 1789.8 2027.25 1790.4C1967.77 1793.55 1900.55 1801.72 1805 1817.41C1783.27 1820.98 1750.42 1826.38 1732 1829.41C1655.99 1841.91 1611.48 1847.99 1561.5 1852.69C1541.19 1854.6 1472.21 1855.3 1462.83 1853.7C1458.91 1853.03 1458 1852.44 1457.16 1850.02C1455.71 1845.88 1451.6 1843.4 1448.51 1844.81C1444.64 1846.57 1443.65 1852.33 1444.36 1869C1444.92 1882.24 1446.03 1890.77 1452.06 1928C1458.52 1967.82 1467.93 2014.76 1476.04 2047.5C1484.24 2080.64 1490.13 2100.35 1499.96 2127.5C1516.31 2172.69 1526.98 2205.41 1526.4 2208.57C1525.57 2213.14 1529.88 2218 1534.77 2218C1536.86 2218 1539.23 2217.22 1540.43 2216.14C1542.05 2214.69 1546.59 2213.81 1561.5 2212.05C1585.37 2209.24 1619.55 2204.12 1645.5 2199.48C1667.68 2195.51 1735.83 2183.65 1763 2179.02C1870.31 2160.76 1886.14 2157.34 2026.5 2122.15C2096.07 2104.7 2135.06 2096.04 2187 2086.52C2220.3 2080.41 2241.7 2076.03 2263.41 2070.87C2274.92 2068.13 2292.21 2064.33 2301.85 2062.41C2311.49 2060.5 2319.96 2058.44 2320.69 2057.84C2322.7 2056.17 2322.26 2054.21 2319.45 2052.37C2314.89 2049.39 2296.08 2051.67 2253.31 2060.39C2236.88 2063.75 2223.86 2066.17 2172 2075.5C2120.97 2084.69 2085.01 2092.86 2000 2114.55C1894.03 2141.58 1860.85 2148.77 1765 2165.44C1735.02 2170.65 1697.67 2177.21 1682 2180.01C1635.53 2188.3 1620.61 2190.81 1599 2193.92C1573.81 2197.55 1542.46 2201.24 1540.44 2200.81C1539.43 2200.6 1535.81 2191.15 1529.59 2172.5C1524.45 2157.1 1516.75 2134.82 1512.49 2123C1491.54 2064.82 1479.15 2013.03 1463.11 1916.5C1457.67 1883.76 1455.86 1869.85 1456.15 1863.13L1456.34 1858.77L1460.92 1859.42C1463.44 1859.78 1473.37 1860.53 1483 1861.09C1532.82 1863.97 1619.59 1855.06 1736.27 1835.07C1775.59 1828.33 1866.04 1813.9 1886.5 1811.09C1941.52 1803.54 1996.39 1798.07 2033 1796.48L2046.5 1795.89L2064.5 1813.55C2085 1833.67 2106.35 1853.03 2119.5 1863.46C2143.27 1882.3 2187.51 1912.5 2310.48 1993.83C2336.69 2011.17 2359.57 2028.24 2360.29 2031C2360.88 2033.27 2364.19 2033.68 2365.84 2031.68C2367.56 2029.62 2363.32 2024.3 2352.8 2015.31C2337.47 2002.22 2329.83 1996.83 2271.96 1958.33C2164.5 1886.84 2131.27 1863.57 2109.5 1844.53C2094.97 1831.83 2061.02 1799.8 2053.08 1791.3C2046.18 1783.92 2044.92 1783.23 2041.75 1785.08Z" fill="#00B4AC"/>
</g>
<mask id="mask1_255_168" style="mask-type:alpha" maskUnits="userSpaceOnUse" x="2264" y="1677" width="923" height="401">
<path d="M3171.15 1928.19C3171.15 1928.19 3129 1941 2909.5 1998C2738 2047.5 2689 2081 2652.5 2051C2616 2021 2540.82 2000.31 2496.5 1965C2383.5 1875 2245.59 1776.65 2287.5 1771C2465.5 1747 2662.58 1684.53 2681.5 1693.5C2769 1735 2879.5 1810.5 3097.5 1890.5" stroke="white" stroke-width="30" stroke-linecap="round"/>
</mask>
<g mask="url(#mask1_255_168)">
<path fill-rule="evenodd" clip-rule="evenodd" d="M2660 1683.58C2658.07 1684.47 2650.2 1686.71 2642.5 1688.55C2634.8 1690.39 2619.27 1694.41 2608 1697.48C2547.24 1714.03 2518.01 1720.86 2464.5 1731.01C2446.9 1734.35 2415.62 1740.42 2395 1744.5C2374.37 1748.59 2344.22 1754.21 2328 1757C2295.08 1762.67 2293.47 1763.01 2283.24 1766.64C2274.71 1769.66 2273.62 1771.59 2276.62 1778.3C2281.15 1788.39 2296.25 1804.06 2329 1832.67C2339.72 1842.03 2353.69 1854.6 2360.03 1860.6C2389.58 1888.52 2420.01 1914.55 2443.98 1932.4C2493.08 1968.97 2571.76 2016.5 2620.5 2039.03C2628.19 2042.59 2641.55 2048.96 2650.17 2053.19C2664.36 2060.15 2665.89 2061.15 2666.18 2063.67C2667.13 2071.88 2680.52 2070.73 2731.85 2058.01C2787.41 2044.25 2840.09 2029.52 2903 2010.14C2965.05 1991.04 2986.87 1984.57 3048.5 1967.02C3115.27 1948 3130.62 1943.41 3150.46 1936.47C3168.3 1930.23 3174 1927.44 3174 1924.92C3174 1919.51 3157.33 1921.63 3121.88 1931.56C3109.02 1935.16 3088.6 1940.81 3076.5 1944.12C3013.87 1961.27 2958.04 1977.58 2895 1997.15C2875.47 2003.21 2851.17 2010.63 2841 2013.63C2800.13 2025.7 2710.92 2049.69 2691 2053.97C2685.77 2055.09 2680.49 2056.24 2679.25 2056.52C2677.49 2056.92 2677 2056.6 2677 2055.02C2677 2053.65 2676.34 2053 2674.96 2053C2673.85 2053 2668.56 2050.36 2663.21 2047.13C2657.87 2043.9 2646.97 2037.99 2639 2034C2574.3 2001.59 2491.2 1950.9 2442.68 1914.24C2425.22 1901.05 2396.7 1876.59 2366.5 1848.91C2357.7 1840.84 2343.58 1828.31 2335.11 1821.07C2313.79 1802.8 2300.77 1790.63 2294.4 1783.02C2289.58 1777.26 2289.19 1776.47 2290.88 1775.85C2292.64 1775.2 2304.09 1773.26 2337.5 1767.96C2353.08 1765.49 2388.85 1758.99 2405.5 1755.61C2412.1 1754.26 2428.75 1751.08 2442.5 1748.54C2518.67 1734.43 2534.42 1730.61 2615 1706.66C2630.67 1702.01 2649.29 1696.77 2656.38 1695.03L2669.26 1691.86L2701.88 1707.54C2737 1724.43 2758.02 1735.58 2789.5 1754.03C2800.5 1760.48 2817.15 1770.24 2826.5 1775.72C2863.31 1797.32 2889.79 1811.13 2922.07 1825.56C2950.19 1838.14 2971.67 1846.53 3029.5 1867.52C3042.15 1872.11 3062.15 1879.5 3073.95 1883.94C3085.75 1888.37 3096.19 1892 3097.16 1892C3098.13 1892 3099.42 1891.07 3100.03 1889.94C3100.98 1888.17 3100.61 1887.41 3097.37 1884.44C3093.51 1880.91 3092 1880.23 3092 1882.02C3092 1882.62 3090.79 1882.43 3089.13 1881.57C3085.48 1879.68 3055.64 1867.82 3013.5 1851.5C2930.08 1819.21 2899.22 1804.13 2817.87 1755.92C2758.3 1720.6 2734.95 1708.43 2690.6 1689.55C2672.86 1682 2666.2 1680.7 2660 1683.58Z" fill="#00B4AC"/>
</g>
<mask id="mask2_255_168" style="mask-type:alpha" maskUnits="userSpaceOnUse" x="3651" y="1387" width="106" height="668">
<path d="M3666 2040C3672.47 1975.93 3685.72 1841.5 3687.02 1816.39C3688.63 1784.99 3743.06 1473.48 3741.98 1449.81C3740.91 1426.15 3741.98 1416.49 3741.98 1402" stroke="white" stroke-width="30" stroke-linecap="round"/>
</mask>
<g mask="url(#mask2_255_168)">
<path fill-rule="evenodd" clip-rule="evenodd" d="M3743.71 1388.3L3731.97 1383L3731.2 1385.9C3730.78 1387.49 3730.5 1389.7 3730.58 1390.8C3730.65 1391.9 3731.04 1401.57 3731.43 1412.3C3732.55 1443.06 3729.94 1470.18 3716.84 1564.3C3704.54 1652.64 3690.13 1782.24 3682.88 1869.8C3676.21 1950.31 3673.65 1974.93 3668.8 2005.07C3665.34 2026.54 3665.22 2029.41 3667.69 2031.64C3670.1 2033.82 3674.14 2033.75 3676.19 2031.48C3678.18 2029.28 3678.5 2027.64 3680.37 2009.8C3681.18 2002.1 3682.5 1989.72 3683.31 1982.3C3684.97 1967.04 3687.68 1936.31 3691.38 1890.8C3694.6 1851.21 3697.23 1822.83 3700.41 1793.3C3703.55 1764.1 3713.71 1676.69 3714.36 1673.3C3714.62 1671.92 3716.89 1654.82 3719.39 1635.3C3721.9 1615.77 3726.82 1580.22 3730.33 1556.3C3742.61 1472.6 3745.52 1441.6 3743.85 1412.3C3743.33 1403.22 3742.61 1394.11 3742.25 1392.05C3741.67 1388.69 3741.82 1388.3 3743.71 1388.3Z" fill="#004B48"/>
</g>
<mask id="mask3_255_168" style="mask-type:alpha" maskUnits="userSpaceOnUse" x="3543" y="1198" width="397" height="290">
<rect x="3543" y="1198" width="397" height="290" fill="white"/>
</mask>
<g mask="url(#mask3_255_168)">
<path fill-rule="evenodd" clip-rule="evenodd" d="M3642.1 1222.54C3623.24 1226.64 3611.53 1233.78 3613.5 1239.99C3614.37 1242.73 3617.23 1243.3 3623.55 1241.99C3628.22 1241.02 3628.99 1240.55 3628.5 1239.01C3628 1237.42 3629.15 1236.89 3637.21 1234.98C3656.74 1230.36 3673.94 1232.93 3701.89 1244.64C3723.12 1253.53 3736.67 1264.49 3743.47 1278.23C3747.24 1285.88 3747.86 1289.73 3746.48 1297.13C3743.4 1313.73 3737.3 1300.35 3727.32 1290.94C3718.82 1282.92 3707.38 1276.8 3694.22 1273.23C3685.17 1270.78 3683.02 1270.59 3663 1270.55C3645.94 1270.51 3639.74 1270.87 3633 1272.3C3618.17 1275.45 3606.57 1282.28 3602.34 1290.36C3599.3 1296.15 3603.44 1301.45 3608.74 1298.55C3612.73 1296.37 3615 1294.43 3615 1293.22C3615 1291.66 3626.16 1288.26 3637 1286.53C3650.9 1284.3 3675.04 1284.52 3687 1286.97C3700.58 1289.76 3713 1296.11 3721.48 1304.59C3725.06 1308.17 3728 1311.51 3728 1311.99C3728 1312.48 3723.84 1310.9 3718.75 1308.5C3700.7 1299.96 3679.66 1295.76 3665.48 1297.87C3654.68 1299.48 3642.36 1304.46 3637.69 1309.1C3634.43 1312.34 3633.92 1313.43 3634.19 1316.59C3634.65 1322.07 3636.65 1322.78 3643.09 1319.76C3659.37 1312.15 3673.08 1311.73 3695.5 1318.16C3702.25 1320.1 3724.39 1329.94 3723.65 1330.68C3723.46 1330.88 3720.19 1330.32 3716.4 1329.43C3696.28 1324.76 3662.19 1329.65 3639.25 1340.5C3617.15 1350.95 3589.76 1372.55 3574.4 1391.65C3567.36 1400.41 3566.66 1401 3565.07 1399.56C3564.12 1398.7 3563.04 1398 3562.67 1398C3562.3 1398 3562 1400.92 3562 1404.5C3562 1409.67 3562.41 1411.41 3564 1413C3568.3 1417.3 3570.28 1416.02 3589.62 1396.41C3615.25 1370.43 3641.37 1353.28 3664 1347.59C3688.97 1341.31 3711.2 1341.81 3726.21 1349.01C3732.75 1352.14 3734.03 1353.43 3735.54 1358.45L3736.93 1363.09L3734.03 1361.02C3729.67 1357.92 3719.31 1354.31 3709.38 1352.44C3702.48 1351.14 3696.93 1350.88 3684.5 1351.27C3666.99 1351.82 3655.81 1354.11 3641.47 1360.07C3622.32 1368.05 3616.36 1383.28 3631.5 1385.55C3636.62 1386.32 3639.39 1384.98 3637.2 1382.8C3636.54 1382.14 3636 1381.29 3636 1380.92C3636 1380.54 3639.71 1379.05 3644.25 1377.61C3667.05 1370.36 3688.75 1368.57 3709.94 1372.17L3716.38 1373.27L3707.44 1375.97C3681.37 1383.83 3660.05 1396.8 3638.68 1417.82C3628.82 1427.52 3624.03 1433.42 3618.19 1443.06C3608.33 1459.32 3607.22 1476 3615.99 1476C3619.35 1476 3621 1473.74 3621 1469.15C3621 1459.33 3637.53 1435.96 3656.32 1419.21C3676.8 1400.96 3707.2 1385.31 3725.97 1383.34L3732.11 1382.7L3731.34 1385.6C3730.92 1387.19 3732.28 1387.5 3733.5 1387.5C3734.72 1387.5 3737.54 1388.5 3742 1388.5C3743 1388.5 3743.5 1388.5 3745 1388C3746.42 1387.53 3747.28 1387.5 3749.5 1387C3753 1386.21 3754.76 1387.34 3762.53 1390.01C3774.67 1394.19 3793.47 1406.47 3804.31 1417.3C3807.52 1420.52 3810.83 1422.98 3811.7 1422.81C3816.26 1421.91 3815.75 1414.44 3810.68 1407.8C3808.89 1405.46 3803.85 1400.53 3799.47 1396.83C3784.47 1384.19 3768.31 1376.29 3755.24 1375.23C3747.99 1374.64 3748.14 1373.48 3755.95 1369.52C3774.81 1359.97 3797.6 1362.42 3818.63 1376.26C3835.15 1387.13 3846.2 1398.91 3862.93 1423.51C3867.95 1430.88 3872.54 1437.22 3873.14 1437.58C3875.96 1439.33 3875.54 1434.89 3871.87 1424.24C3866.79 1409.51 3862.55 1401.18 3855.11 1391.31C3833.36 1362.45 3801.87 1346.3 3774.43 1349.95C3765.17 1351.18 3759.5 1352.44 3751.89 1356.06L3748.28 1357.9C3744.7 1319.4 3828.83 1353.11 3846.14 1359.55C3858.25 1364.06 3864.86 1364.99 3865.73 1362.32C3866.48 1360.04 3858.87 1353.15 3851.22 1349.17C3836.03 1341.27 3805.5 1332.56 3782.03 1329.44C3776.24 1328.67 3771.28 1328 3771 1327.95C3769.63 1327.73 3776.74 1325.56 3787.48 1322.93C3801.24 1319.56 3811.35 1319.11 3816.3 1321.63C3818.06 1322.53 3821.46 1325.05 3823.84 1327.24C3829.14 1332.08 3831.01 1331.3 3829.13 1325.04C3826.46 1316.12 3815.68 1309.99 3802.71 1310.01C3793.87 1310.03 3779.85 1312.91 3766.8 1317.37C3755.51 1321.24 3754.38 1320.48 3761.75 1313.99C3768.7 1307.86 3782.56 1301.55 3795 1298.84C3803.44 1297 3808.44 1296.56 3820.5 1296.61C3839.21 1296.69 3846.67 1298.53 3862.7 1307.02C3872.44 1312.18 3874.14 1312.79 3874.69 1311.35C3875.62 1308.93 3860.09 1294.16 3852.99 1290.72C3842.49 1285.62 3836.05 1284.5 3817.5 1284.54C3802.36 1284.57 3799.29 1284.88 3789.41 1287.34C3783.05 1288.92 3774.52 1291.96 3769.41 1294.46C3764.51 1296.86 3760.33 1298.66 3760.13 1298.46C3757.52 1295.87 3783.76 1268.23 3795 1261.72C3804.31 1256.34 3815.78 1252.12 3829 1249.23C3838.9 1247.06 3842.9 1246.72 3857.75 1246.77C3871.1 1246.81 3875 1246.54 3875 1245.55C3875 1244.26 3861.67 1239.11 3852.65 1236.9C3845.51 1235.15 3828.48 1236.38 3817.19 1239.46C3795.64 1245.33 3783.44 1252.55 3766.99 1269.19C3756.39 1279.91 3756.22 1280.02 3755.54 1277.28C3754.33 1272.42 3748.92 1263.99 3742.87 1257.52C3731.69 1245.57 3714.42 1235.72 3691.05 1227.96C3670.1 1221.01 3656.25 1219.48 3642.1 1222.54Z" fill="#00B4AC"/>
</g>
<mask id="mask4_255_168" style="mask-type:alpha" maskUnits="userSpaceOnUse" x="1267" y="1056" width="1402" height="726">
<path d="M1282 1266.5C1337.83 1213.83 1459.5 1100.5 1467 1084.5C1475.11 1067.2 1496 1068.5 1508 1081.5C1517.6 1091.9 1669.5 1170.5 1730 1204.5C1702.32 1222.08 1723.72 1279.55 1730 1350.5C1743.02 1497.43 1786.5 1708.76 1771 1704C1655.5 1668.5 1340.5 1726.31 1340.5 1710.5C1340.5 1670.5 1356.5 1423.01 1324 1269C1320.44 1252.13 1618.25 1232.49 1664.5 1229.49C1710.75 1226.49 2236 1204.49 2257 1204.49C2278 1204.49 2259.98 1243.79 2280 1229.49C2304.5 1211.99 2439.5 1106.5 2449.5 1093.5C2459.5 1080.5 2471.5 1092.5 2484.5 1102.5C2497.5 1112.49 2645.39 1207.09 2634.5 1215.5C2562 1271.5 2680.74 1642.09 2647 1635C2578 1620.5 2350.5 1663 2336.5 1645C2322.5 1627 2318 1585.5 2318 1560C2318 1507.61 2341 1296 2303.5 1247C2280.67 1217.17 2498 1256.5 2592 1224C2652.01 1203.25 2340.5 1606.5 2348 1662C2351.49 1687.84 2387.95 1706.59 2367.5 1704C2292.5 1694.5 1809 1765 1789.5 1766C1770 1767 1757.12 1723.05 1781.5 1717.5C1860.5 1699.5 1765.86 1419.17 1781.5 1420C1895 1426.01 2113 1427.51 2268.5 1410.5" stroke="white" stroke-width="30" stroke-linecap="round"/>
</mask>
<g mask="url(#mask4_255_168)">
<path fill-rule="evenodd" clip-rule="evenodd" d="M1474 1065C1472.9 1066.1 1472 1067.49 1472 1068.08C1472 1069.74 1477.03 1077.92 1478.59 1078.79C1479.64 1079.38 1478.08 1081.67 1472.32 1088.04C1438.79 1125.09 1396.28 1167.66 1354.49 1206.04C1317.7 1239.82 1295.02 1260.29 1288.75 1265.39C1283.83 1269.38 1282.67 1272.66 1285.38 1274.9C1288.44 1277.44 1291.55 1274.95 1327.48 1241.13C1366.11 1204.77 1413.06 1159.71 1421.51 1150.88C1473.13 1096.94 1478.24 1091.48 1483.87 1084.32L1487.95 1079.13L1521.22 1098.7C1609.18 1150.43 1657.26 1176.12 1706 1197.43C1715.62 1201.64 1725.7 1206.07 1728.4 1207.28L1733.29 1209.48L1729.03 1210.21C1724.43 1211 1722.08 1213.19 1722.03 1216.75C1721.98 1220.71 1725.2 1222.76 1732.66 1223.5C1736.42 1223.88 1745.8 1225.23 1753.5 1226.51C1761.2 1227.79 1773.35 1229.43 1780.5 1230.16C1797.16 1231.86 1855.45 1231.87 1891 1230.17C1986.31 1225.63 2007.73 1224.4 2093.5 1218.51C2113.3 1217.15 2147.05 1214.9 2168.5 1213.52C2225.59 1209.83 2233.14 1209.24 2247.78 1207.31C2258.59 1205.89 2261.01 1205.28 2260.77 1204.04C2259.82 1199.09 2236.92 1197.33 2194 1198.88C2176.12 1199.53 2155.42 1200.5 2148 1201.04C2140.57 1201.58 2102.55 1203.58 2063.5 1205.48C1972.22 1209.93 1975.44 1209.78 1935 1211.55C1916.02 1212.39 1893.3 1213.52 1884.5 1214.07C1857.85 1215.74 1796 1216.37 1781.5 1215.12C1760.46 1213.3 1744.87 1210.79 1745.44 1209.3C1746.63 1206.2 1739.24 1201.89 1694.5 1179.57C1635.2 1150 1609.41 1135.93 1522 1085.5C1481.83 1062.32 1478.22 1060.78 1474 1065ZM2450.92 1085.25C2433.57 1105.39 2385.82 1151.48 2359.5 1173.48C2330.87 1197.41 2278.53 1236 2274.71 1236C2274.4 1236 2273.99 1234.99 2273.82 1233.75C2273.31 1230.16 2271.53 1231.15 2271.19 1235.21C2270.74 1240.66 2272.36 1243 2276.56 1243C2279.84 1243 2289.04 1239.02 2293.5 1235.66C2295.29 1234.31 2295.69 1234.33 2297.38 1235.83C2299.06 1237.33 2299.36 1237.34 2300.25 1235.95C2301.13 1234.57 2303.71 1234.88 2323.08 1238.65C2349.65 1243.83 2364.89 1245.67 2393 1247.1C2436.15 1249.3 2495.46 1244.3 2585.3 1230.88C2596.74 1229.17 2606.28 1227.95 2606.5 1228.17C2606.71 1228.38 2606.5 1230.35 2606.03 1232.53C2604.34 1240.33 2603.84 1265.86 2604.95 1287.5C2606.27 1313.31 2609.65 1347.98 2614.47 1385C2618.44 1415.59 2619.65 1426.42 2624.51 1475C2628.56 1515.43 2631.22 1538.57 2634.06 1558C2636.03 1571.42 2643.29 1615.38 2644.62 1621.92C2645.24 1624.97 2645.12 1625.26 2643.47 1624.63C2635.81 1621.69 2606.56 1622.05 2577.5 1625.43C2570.35 1626.26 2547.17 1628.53 2526 1630.47C2477.63 1634.91 2466.09 1636.2 2432 1641.03C2404.04 1644.98 2365.37 1648.37 2354.49 1647.81L2348.5 1647.5L2340.7 1631.77C2331.96 1614.15 2328.71 1603.42 2327.05 1586.76C2326.45 1580.79 2325.94 1538.05 2325.83 1484.5C2325.65 1406.55 2325.9 1387.62 2327.42 1360.52C2329.66 1320.88 2329.24 1293.81 2326.23 1283.91C2320.51 1265.06 2311.79 1254.2 2303.17 1255.19C2299.47 1255.62 2298.86 1259.5 2302.36 1260.38C2307.06 1261.56 2313.49 1271.93 2316.7 1283.5C2319 1291.82 2319.35 1313.52 2317.63 1342C2314.86 1387.81 2312.38 1496.51 2312.58 1563C2312.7 1602.47 2314.73 1612.08 2329.05 1641C2333.82 1650.63 2338.29 1660.53 2338.97 1663C2341.27 1671.27 2349.68 1685.69 2356.33 1692.75L2359.39 1696L2355.95 1696.02C2352.09 1696.03 2317.22 1698.44 2298 1700.02C2223.84 1706.11 2144.36 1715.8 2040 1731.48C1978.31 1740.75 1962.9 1742.54 1906.5 1746.98C1871.91 1749.7 1844.36 1752.51 1822.7 1755.54C1812.92 1756.91 1800.32 1758.3 1794.7 1758.64L1784.5 1759.25L1779.23 1739.61L1773.96 1719.98L1775.95 1717.24C1777.84 1714.63 1777.89 1713.73 1776.97 1698C1776.43 1688.93 1775.33 1673.4 1774.52 1663.5C1773.7 1653.6 1772.11 1630.65 1770.99 1612.5C1767.54 1557 1765.78 1541.67 1752.49 1451.5C1750.06 1435 1746.03 1405.98 1743.55 1387C1736.3 1331.79 1730.08 1300.55 1717.02 1253.75C1712.61 1237.96 1709 1224.4 1709 1223.63C1709 1222.85 1709.67 1221.96 1710.5 1221.64C1712.6 1220.84 1712.39 1215.66 1710.17 1213.66C1707.93 1211.63 1703.21 1211.51 1701.08 1213.42C1700.21 1214.19 1694.55 1215.74 1688.5 1216.85C1682.45 1217.96 1670.52 1220.45 1662 1222.4C1627.77 1230.21 1608.73 1232.48 1548 1236C1497.29 1238.95 1470.86 1241.67 1421.5 1249.03C1371.72 1256.45 1372.08 1256.42 1345.9 1256.46C1327.9 1256.49 1320.91 1256.17 1319.83 1255.28C1318.7 1254.34 1318.08 1254.33 1317.18 1255.23C1315.71 1256.69 1315.65 1259.67 1317.06 1260.54C1317.77 1260.98 1317.59 1261.8 1316.52 1262.98C1314.77 1264.92 1312.83 1274.78 1314.05 1275.54C1314.47 1275.8 1315.43 1275.78 1316.17 1275.49C1317.2 1275.1 1318.22 1278.44 1320.38 1289.24C1321.95 1297.08 1325.19 1312.28 1327.58 1323C1341.39 1384.96 1342.76 1402.62 1341.15 1497.5C1340.52 1534.35 1340.12 1591.73 1340.25 1625C1340.46 1678.21 1340.29 1686.5 1338.82 1693.79C1337.53 1700.18 1336.45 1702.87 1334.07 1705.57C1330.32 1709.84 1330.25 1711.34 1333.6 1714.7L1336.2 1717.3L1355.35 1716.61C1383.44 1715.61 1405.88 1714.21 1429 1712.01C1461.91 1708.9 1485.92 1707.18 1527.5 1705C1570.74 1702.72 1583.99 1701.93 1630 1698.91C1689.19 1695.01 1733.73 1696.19 1749.42 1702.06C1755.51 1704.34 1761 1709.72 1761 1713.4C1761 1716.03 1767.58 1739.68 1771.45 1750.95C1772.86 1755.04 1773.8 1759.09 1773.53 1759.95C1773.27 1760.8 1774.39 1763.64 1776.03 1766.25C1779.29 1771.46 1783.04 1772.67 1784.94 1769.12C1785.73 1767.64 1787.58 1767.1 1793.72 1766.54C1798 1766.16 1810.5 1764.55 1821.5 1762.97C1850.09 1758.85 1872.84 1756.44 1910.5 1753.53C1966.79 1749.19 1986.46 1746.99 2053.5 1737.56C2155.42 1723.23 2212.39 1716.59 2307 1708.01C2358.28 1703.36 2374.11 1701.55 2376.96 1700.02C2380.61 1698.07 2379.32 1694.88 2371.34 1686C2367.13 1681.33 2361.51 1674.13 2358.84 1670C2354.21 1662.86 2354.09 1662.49 2356.24 1662.27C2357.48 1662.14 2369.75 1661.36 2383.5 1660.54C2398.68 1659.63 2416.55 1657.83 2429 1655.97C2466.7 1650.33 2477.07 1649.12 2536.5 1643.42C2545.3 1642.58 2562.85 1640.72 2575.5 1639.3C2591.9 1637.46 2604.09 1636.7 2618 1636.64C2635.73 1636.57 2638.06 1636.76 2643.72 1638.78C2647.14 1640 2651.23 1641 2652.81 1641C2656.4 1641 2659.34 1637.9 2659.2 1634.26C2659.14 1632.74 2656.63 1616.43 2653.61 1598C2645.91 1551 2644.55 1540.51 2637.04 1470C2632.94 1431.5 2630.81 1413.96 2625.98 1379C2617.37 1316.63 2613.38 1271.46 2614.14 1244.69C2614.54 1230.52 2614.56 1230.48 2622.69 1226.09C2626.46 1224.06 2627.5 1222.95 2627.5 1221C2627.5 1217.34 2624.71 1217.38 2598.94 1221.41C2535.35 1231.35 2477.09 1237.99 2436.78 1239.91C2415.43 1240.92 2380.67 1239.81 2360.13 1237.46C2348.36 1236.11 2307.35 1228.69 2306.39 1227.73C2306.21 1227.54 2313.81 1221.57 2323.28 1214.46C2358.12 1188.28 2385.36 1164.51 2423.5 1127.01C2436.7 1114.04 2450.2 1101.13 2453.5 1098.33L2459.5 1093.24L2463.5 1096.72C2469.32 1101.79 2486.31 1114.38 2512.5 1133.02C2525.15 1142.03 2545.99 1156.98 2558.82 1166.26C2615.42 1207.19 2638.87 1219.88 2641.79 1211.14C2642.43 1209.22 2636.08 1203.86 2620.71 1193.33C2612.89 1187.97 2598.85 1177.98 2589.5 1171.12C2580.15 1164.27 2565.97 1153.88 2558 1148.03C2550.02 1142.19 2530.9 1128.46 2515.5 1117.53C2500.1 1106.59 2481.95 1093.45 2475.17 1088.32C2459.53 1076.51 2458.56 1076.38 2450.92 1085.25ZM1683 1224C1675.57 1225.55 1663.2 1228.18 1655.5 1229.84C1627.2 1235.95 1602.73 1238.67 1546 1242.02C1493.74 1245.1 1476.07 1247 1420 1255.53C1369.18 1263.26 1367.64 1263.43 1344.85 1263.47C1325.16 1263.5 1324.24 1263.59 1325.18 1265.33C1326.85 1268.46 1328.66 1275.5 1335.87 1307C1353.51 1383.98 1354.7 1395.43 1353.42 1475.5C1352.5 1532.83 1352.44 1563.13 1353.09 1641C1353.41 1679.09 1353.21 1690.76 1352.16 1695.33C1351.43 1698.54 1350.98 1701.31 1351.16 1701.5C1352.25 1702.59 1398.71 1699.42 1445.5 1695.08C1472.64 1692.56 1490.99 1691.37 1531.5 1689.5C1549.65 1688.66 1575.75 1687.29 1589.5 1686.45C1603.25 1685.62 1625.52 1684.28 1639 1683.48C1667.75 1681.77 1712.41 1681.56 1727.14 1683.06C1741.1 1684.48 1751.43 1686.65 1757.75 1689.52L1763 1691.89L1762.97 1687.2C1762.96 1684.62 1762.51 1678 1761.97 1672.5C1761.43 1667 1759.87 1644.05 1758.5 1621.5C1754.75 1559.67 1753.1 1543.49 1743.06 1470.32C1736.94 1425.71 1736.28 1420.58 1732.49 1388C1726.45 1336.23 1720.68 1303.44 1711.01 1266C1708.24 1255.28 1704.53 1240.77 1702.76 1233.75C1700.37 1224.25 1699.16 1221.03 1698.03 1221.09C1697.19 1221.14 1690.42 1222.44 1683 1224ZM2235 1413.1C2228.67 1413.5 2170.62 1414.29 2106 1414.87C2041.37 1415.44 1964.87 1416.66 1936 1417.58C1880.85 1419.32 1855.43 1419.06 1828.71 1416.45C1784.58 1412.15 1782 1412.23 1782 1417.91C1782 1419.85 1782.6 1421.06 1783.75 1421.42C1786.96 1422.43 1829.28 1426.89 1847 1428.09C1864.93 1429.31 1905.48 1428.94 1964 1427.02C1979.67 1426.51 2030.3 1426.07 2076.5 1426.04C2160.69 1425.98 2191.78 1425.27 2230 1422.49C2258.57 1420.41 2269.11 1419.1 2271.93 1417.28L2274.37 1415.72L2272.07 1413.86C2270.1 1412.26 2268.16 1412.03 2258.14 1412.19C2251.74 1412.29 2241.32 1412.7 2235 1413.1Z" fill="#4B6CFF"/>
</g>
</g>
<defs>
<clipPath id="clip0_255_168">
<rect width="4000" height="2756" fill="white"/>
</clipPath>
</defs>
</svg>
