<svg width="441" height="100" fill="none" xmlns="http://www.w3.org/2000/svg"><mask id="a" maskUnits="userSpaceOnUse" x="0" y="7.5" width="441" height="93" fill="#000"><path fill="#fff" d="M0 7.5h441v93H0z"/><path d="M7.102 99.484c-4.48 0-6.656-4.992-6.656-8.768 0-6.976 4.736-13.504 11.136-16.128 3.264-1.344 7.104-1.92 10.56-2.112.576-2.048 1.216-4.032 1.728-6.08 3.456-13.184 5.568-26.56 8.256-39.872.448-2.112 3.008-14.848 4.736-14.848.704 0 .832.128.832.768 0 2.944-1.472 6.464-2.048 9.344-.512 2.752-1.152 5.504-1.664 8.256-2.752 14.272-5.376 28.544-9.344 42.496 13.888 1.344 25.408 5.952 38.528 10.24 17.216 5.568 37.44 11.456 55.552 11.456 3.136 0 12.096 0 12.096-4.544 0-1.088-1.344-1.6-1.344-2.24 0-.256.192-.448.448-.448 1.152 0 2.112 1.92 2.112 2.88 0 5.824-9.472 6.272-13.632 6.272-17.792 0-38.592-6.08-55.616-11.392-11.648-3.584-23.104-8.064-35.264-9.6-1.216-.128-2.432-.256-3.584-.256-.896 2.56-1.728 5.12-2.752 7.552-2.048 5.184-7.616 17.024-14.08 17.024m-.384-2.112c1.088 0 2.816-.64 3.648-1.344 3.776-3.136 6.592-9.216 8.384-13.632.96-2.496 1.856-5.12 2.752-7.552-6.144.576-12.48 1.92-16.128 7.296-1.728 2.56-2.752 5.504-2.752 8.576 0 2.368 1.152 6.656 4.096 6.656m33.047-32.128c-1.28 0-1.92-1.28-1.92-2.432 0-3.456 2.88-10.304 6.976-10.304 1.152 0 3.136 1.728 3.136 2.88 0 1.856-.384 6.72 2.624 6.72 2.816 0 8.064-5.056 8.768-5.056.128 0 .192.064.32.064.064.128.192.32.192.448 0 1.152-5.184 4.736-6.336 5.376-.96.512-2.176.96-3.264.96-2.624 0-4.16-2.496-4.544-4.8-1.472 1.728-3.328 6.144-5.952 6.144m.576-2.496c2.24-2.048 3.776-4.736 5.056-7.424-.128-.128-.384-.448-.576-.448-2.304 0-4.16 6.016-4.48 7.872m20.287 1.856c-1.6 0-1.6-2.048-1.6-3.136 0-1.344 1.024-7.04 1.6-8.064.256-.384.576-.512 1.024-.512.512.064.896.512.896 1.024 0 2.56-1.472 4.928-1.472 7.552v.384c1.024.064 5.12-8 6.4-7.872.448 0 .832.512.832.96 0 1.664-.384 3.264-.384 4.928 0 .448 0 2.816.768 2.816 2.112 0 6.336-5.824 7.296-5.76.256 0 .512.256.512.512-1.024 2.176-5.632 7.232-8.128 7.104-2.944-.256-2.432-3.712-2.752-5.44-.768 1.088-3.712 5.504-4.992 5.504m22.862 6.4c-2.048 0-2.304-2.496-2.304-4.032 0-2.432.64-4.864 1.024-7.232-1.792-.96-6.464-.192-6.464-3.2 0-1.216 1.024-3.392 2.432-3.392.832 0 1.28.704 1.28 1.472 0 .832-.512 1.536-.832 2.24.704.832 5.568-.192 5.568 3.328 0 2.752-1.024 5.44-1.024 8.192 0 .32.064.64.32.896 2.496-.576 10.56-12.224 11.264-12.224.256 0 .448.256.448.512 0 1.792-9.664 13.44-11.712 13.44m27.226-3.072c-1.472 0-1.728-1.6-1.6-2.688.384-3.2.064-4.416.832-6.912-.256.128-.448.384-.64.576-2.816 3.136-6.912 7.808-11.456 7.808-2.752 0-3.904-2.112-3.904-4.608 0-2.432 2.496-9.728 5.44-9.728.96 0 1.6.832 1.6 1.728 0 2.176-2.688 6.144-4.8 6.784a6.3 6.3 0 0 0-.192 1.536c0 1.408.256 2.624 1.984 2.624 6.336 0 12.48-11.776 14.144-11.776.768 0 1.152.896 1.152 1.536 0 1.408-.512 2.816-.768 4.16-.384 1.856-.576 3.712-.832 5.568l.064.192c1.92-3.008 5.696-10.432 7.872-10.432 3.136 0 .576 9.856 3.392 9.856 3.52 0 9.024-7.296 9.6-7.296.384 0 .576.32.576.64 0 2.496-7.616 8.512-10.112 8.512-3.968 0-3.648-6.144-4.096-8.448-1.856 1.216-4.8 7.424-6.72 9.664a1.95 1.95 0 0 1-1.536.704m-13.824-9.28c.768-.704 2.368-2.944 2.368-4.032v-.192c-1.216.96-2.048 2.752-2.56 4.16zM186.55 76.7c-.704 0-.832-.896-.896-1.344-.128-.64-.128-1.216-.128-1.792 0-.96.064-1.984.128-3.072-3.712 0-8.96-1.152-8.96-5.888 0-5.504 7.552-9.088 11.392-11.584-1.856-.576-6.976-1.728-6.976-4.352 0-3.008 5.568-4.992 7.872-5.76.064-.896.128-4.736 1.152-4.736.448 0 .704.448.704.832.128 1.152-.128 2.24-.192 3.456.832-.064 1.728-.256 2.56-.256 1.024 0 3.84.192 3.968 1.664v.192c0 .32-.32.832-.704.832-.448 0-.576-.512-.704-.832-.384-.192-.768-.192-1.152-.192-1.472 0-2.88.064-4.16.576 0 .448-.128 1.28-.64 1.28-.448 0-.64-.448-.832-.832-1.344.192-6.528 2.432-6.208 3.84.192 1.792 8 1.856 8.384 4.288 0 .128.064.192.064.32 0 .448-.192.896-.576 1.024a40 40 0 0 0-7.296 4.16c-1.28 1.024-2.496 2.176-3.456 3.584-.576.832-1.216 2.048-1.024 3.264.256 1.664 2.624 2.496 4.096 2.88.512.064.96.128 1.408.128.512 0 1.088-.064 1.728-.128.128-.512.512-1.536 1.216-1.536.448 0 .832.448.832.832v.32c3.84-.896 7.872-2.112 11.392-3.648.32-.128.704-.32.96-.32.384 0 .768.192.768.576.256 1.664-11.392 4.992-13.312 5.568-.384 2.048-.32 4.224-.832 6.208-.128.32-.192.448-.576.448m100.44 19.584c-6.976 0-20.224-3.008-20.224-11.968 0-8.256 11.712-15.104 18.432-17.984 1.344-.576 2.944-1.152 4.416-1.792.384-3.392.64-5.312.96-8 .32-2.24.512-4.544.832-6.784.896-7.488 1.664-14.976 2.88-22.4.256-1.408 1.344-9.024 1.792-9.792.128-.192.384-.32.64-.32.896 0 1.216.704 1.152 1.408-.256 4.48-1.216 9.024-1.792 13.44-.96 7.616-1.856 15.232-2.752 22.848-.384 2.752-.832 5.696-1.088 8.448 4.032-1.152 8.128-2.56 12.224-3.52 12.032-2.944 25.216-4.736 37.632-4.928.768-2.752 1.28-6.464 1.28-9.344 0-5.12-1.088-10.304-3.328-14.976-7.424-15.808-22.72-20.416-39.104-20.416-20.224 0-45.056 8.32-56.832 25.664-1.92 2.816-3.584 6.4-3.584 9.856 0 3.136 1.984 5.44 4.288 7.36l.192.192c0 .384-.064.96-.576.96-1.344 0-3.584-2.688-4.288-3.712-.832-1.28-1.088-1.92-1.344-3.328-.128-.512-.128-1.152-.128-1.664 0-4.288 2.56-9.088 5.12-12.416C256.398 16.54 280.206 8.22 300.558 8.22c16.576 0 32.32 4.096 40.64 19.776 2.816 5.248 4.48 11.264 4.48 17.152a34.5 34.5 0 0 1-.384 5.12c-.128 1.536-.32 3.2-.704 4.672 2.176 0 15.488.064 15.488 2.752 0 .192-.192.512-.448.512-.64 0-1.152-.384-1.728-.512-2.56-.704-5.376-.576-8.064-.768-.96-.064-1.92-.064-2.88-.064h-2.88c-1.728 4.608-3.776 9.344-6.656 13.376-11.072 15.552-31.36 26.048-50.432 26.048m.384-1.92c13.12 0 28.48-6.336 38.592-14.528 3.776-3.072 7.104-6.784 9.792-10.88 1.408-2.112 5.12-9.92 5.76-12.224-2.88.128-5.76.32-8.64.512-11.904 1.024-23.488 3.072-34.944 6.464-1.088.32-3.968 1.088-5.888 1.856-.32 2.112-.512 4.8-.768 6.976-.384 3.904-.96 7.872-.96 11.776v.576c0 .512-.064.96-.896.96-1.152 0-1.28-1.344-1.28-2.368 0-3.84.32-7.68.704-11.392.192-1.792.384-3.712.512-5.504-1.856.832-4.16 1.792-6.016 2.688-5.12 2.56-14.72 8.448-14.72 14.912 0 8.064 12.672 10.176 18.752 10.176m72.578-29.12c-1.28 0-1.92-1.28-1.92-2.432 0-3.456 2.88-10.304 6.976-10.304 1.152 0 3.136 1.728 3.136 2.88 0 1.856-.384 6.72 2.624 6.72 2.816 0 8.064-5.056 8.768-5.056.128 0 .192.064.32.064.064.128.192.32.192.448 0 1.152-5.184 4.736-6.336 5.376-.96.512-2.176.96-3.264.96-2.624 0-4.16-2.496-4.544-4.8-1.472 1.728-3.328 6.144-5.952 6.144m.576-2.496c2.24-2.048 3.776-4.736 5.056-7.424-.128-.128-.384-.448-.576-.448-2.304 0-4.16 6.016-4.48 7.872m22.719 4.864c-2.944 0-3.456-3.84-3.456-6.08 0-1.344.512-8.512 2.112-8.512.384 0 .768.256.768.704 0 2.56-.768 4.992-.768 7.552 0 .896 0 4.288 1.344 4.288.832 0 1.728-.96 2.24-1.536 2.816-3.2 4.992-8.576 4.992-12.8 0-1.344-1.088-5.696-2.816-5.696-.32 0-.512.192-.832.192a.574.574 0 0 1-.576-.576c0-.704.896-1.28 1.536-1.28 1.408 0 2.88 1.792 3.52 2.88.768 1.216.896 2.368.896 3.776 0 4.352-3.52 17.088-8.96 17.088m15.521-.896c-3.072 0-4.544-2.56-4.544-5.312 0-1.152.96-5.76 2.304-7.168.256-.256.64-.256.896-.256.768 0 1.152.448 1.152 1.152 0 .384-.064.768-.192 1.216-.448 1.856-1.664 4.352-1.664 5.952 0 1.408.64 2.624 2.24 2.624 3.712 0 9.408-5.44 11.776-8.128.32.064.64.32.64.64 0 .832-.896 1.664-1.408 2.304-2.368 2.816-7.232 6.976-11.2 6.976m-.128-15.232c-.832-.064-1.536-.512-1.536-1.408 0-1.088.192-3.136 1.664-3.072.64 0 1.472 1.536 1.472 2.112 0 .96-.448 2.368-1.6 2.368m28.202 16.704c-6.144 0-6.272-6.784-6.912-11.072-.64-.128-.96-.768-1.152-1.28-1.344 2.24-4.224 11.072-7.232 11.072-1.792 0-1.984-2.112-1.984-3.328 0-3.968 2.56-11.328 7.296-11.328.576 0 1.088.192 1.6.256.64-.768 1.984-4.16 2.176-5.184.576-3.2 1.024-6.464 1.792-9.6.512-2.048 3.584-12.544 5.824-12.544.576 0 1.152.576 1.152 1.152 0 4.48-4.352 14.592-6.208 18.944-1.088 2.496-1.408 7.744-1.408 10.624 0 3.456 0 10.432 4.928 10.816 4.032.32 10.112-6.208 12.224-9.024.32-.384.512-.768.64-1.024l.32-.064.32.128.128.448c0 .384-.256.96-.704 1.6-2.496 3.648-8.32 9.408-12.8 9.408m-15.04-4.288c1.088-.512 5.632-8.128 5.632-9.408-3.136-.256-5.44 5.888-5.568 8.448 0 .32 0 .64-.064.96m8-10.24.192-.064v-.384h-.128l-.128.192zm5.248-17.472c.512-1.792 1.664-4.352 1.792-6.016-.32.512-1.984 5.44-1.984 6.016v.256z"/></mask><path d="M7.102 99.484c-4.48 0-6.656-4.992-6.656-8.768 0-6.976 4.736-13.504 11.136-16.128 3.264-1.344 7.104-1.92 10.56-2.112.576-2.048 1.216-4.032 1.728-6.08 3.456-13.184 5.568-26.56 8.256-39.872.448-2.112 3.008-14.848 4.736-14.848.704 0 .832.128.832.768 0 2.944-1.472 6.464-2.048 9.344-.512 2.752-1.152 5.504-1.664 8.256-2.752 14.272-5.376 28.544-9.344 42.496 13.888 1.344 25.408 5.952 38.528 10.24 17.216 5.568 37.44 11.456 55.552 11.456 3.136 0 12.096 0 12.096-4.544 0-1.088-1.344-1.6-1.344-2.24 0-.256.192-.448.448-.448 1.152 0 2.112 1.92 2.112 2.88 0 5.824-9.472 6.272-13.632 6.272-17.792 0-38.592-6.08-55.616-11.392-11.648-3.584-23.104-8.064-35.264-9.6-1.216-.128-2.432-.256-3.584-.256-.896 2.56-1.728 5.12-2.752 7.552-2.048 5.184-7.616 17.024-14.08 17.024m-.384-2.112c1.088 0 2.816-.64 3.648-1.344 3.776-3.136 6.592-9.216 8.384-13.632.96-2.496 1.856-5.12 2.752-7.552-6.144.576-12.48 1.92-16.128 7.296-1.728 2.56-2.752 5.504-2.752 8.576 0 2.368 1.152 6.656 4.096 6.656m33.047-32.128c-1.28 0-1.92-1.28-1.92-2.432 0-3.456 2.88-10.304 6.976-10.304 1.152 0 3.136 1.728 3.136 2.88 0 1.856-.384 6.72 2.624 6.72 2.816 0 8.064-5.056 8.768-5.056.128 0 .192.064.32.064.064.128.192.32.192.448 0 1.152-5.184 4.736-6.336 5.376-.96.512-2.176.96-3.264.96-2.624 0-4.16-2.496-4.544-4.8-1.472 1.728-3.328 6.144-5.952 6.144m.576-2.496c2.24-2.048 3.776-4.736 5.056-7.424-.128-.128-.384-.448-.576-.448-2.304 0-4.16 6.016-4.48 7.872m20.287 1.856c-1.6 0-1.6-2.048-1.6-3.136 0-1.344 1.024-7.04 1.6-8.064.256-.384.576-.512 1.024-.512.512.064.896.512.896 1.024 0 2.56-1.472 4.928-1.472 7.552v.384c1.024.064 5.12-8 6.4-7.872.448 0 .832.512.832.96 0 1.664-.384 3.264-.384 4.928 0 .448 0 2.816.768 2.816 2.112 0 6.336-5.824 7.296-5.76.256 0 .512.256.512.512-1.024 2.176-5.632 7.232-8.128 7.104-2.944-.256-2.432-3.712-2.752-5.44-.768 1.088-3.712 5.504-4.992 5.504m22.862 6.4c-2.048 0-2.304-2.496-2.304-4.032 0-2.432.64-4.864 1.024-7.232-1.792-.96-6.464-.192-6.464-3.2 0-1.216 1.024-3.392 2.432-3.392.832 0 1.28.704 1.28 1.472 0 .832-.512 1.536-.832 2.24.704.832 5.568-.192 5.568 3.328 0 2.752-1.024 5.44-1.024 8.192 0 .32.064.64.32.896 2.496-.576 10.56-12.224 11.264-12.224.256 0 .448.256.448.512 0 1.792-9.664 13.44-11.712 13.44m27.226-3.072c-1.472 0-1.728-1.6-1.6-2.688.384-3.2.064-4.416.832-6.912-.256.128-.448.384-.64.576-2.816 3.136-6.912 7.808-11.456 7.808-2.752 0-3.904-2.112-3.904-4.608 0-2.432 2.496-9.728 5.44-9.728.96 0 1.6.832 1.6 1.728 0 2.176-2.688 6.144-4.8 6.784a6.3 6.3 0 0 0-.192 1.536c0 1.408.256 2.624 1.984 2.624 6.336 0 12.48-11.776 14.144-11.776.768 0 1.152.896 1.152 1.536 0 1.408-.512 2.816-.768 4.16-.384 1.856-.576 3.712-.832 5.568l.064.192c1.92-3.008 5.696-10.432 7.872-10.432 3.136 0 .576 9.856 3.392 9.856 3.52 0 9.024-7.296 9.6-7.296.384 0 .576.32.576.64 0 2.496-7.616 8.512-10.112 8.512-3.968 0-3.648-6.144-4.096-8.448-1.856 1.216-4.8 7.424-6.72 9.664a1.95 1.95 0 0 1-1.536.704m-13.824-9.28c.768-.704 2.368-2.944 2.368-4.032v-.192c-1.216.96-2.048 2.752-2.56 4.16zM186.55 76.7c-.704 0-.832-.896-.896-1.344-.128-.64-.128-1.216-.128-1.792 0-.96.064-1.984.128-3.072-3.712 0-8.96-1.152-8.96-5.888 0-5.504 7.552-9.088 11.392-11.584-1.856-.576-6.976-1.728-6.976-4.352 0-3.008 5.568-4.992 7.872-5.76.064-.896.128-4.736 1.152-4.736.448 0 .704.448.704.832.128 1.152-.128 2.24-.192 3.456.832-.064 1.728-.256 2.56-.256 1.024 0 3.84.192 3.968 1.664v.192c0 .32-.32.832-.704.832-.448 0-.576-.512-.704-.832-.384-.192-.768-.192-1.152-.192-1.472 0-2.88.064-4.16.576 0 .448-.128 1.28-.64 1.28-.448 0-.64-.448-.832-.832-1.344.192-6.528 2.432-6.208 3.84.192 1.792 8 1.856 8.384 4.288 0 .128.064.192.064.32 0 .448-.192.896-.576 1.024a40 40 0 0 0-7.296 4.16c-1.28 1.024-2.496 2.176-3.456 3.584-.576.832-1.216 2.048-1.024 3.264.256 1.664 2.624 2.496 4.096 2.88.512.064.96.128 1.408.128.512 0 1.088-.064 1.728-.128.128-.512.512-1.536 1.216-1.536.448 0 .832.448.832.832v.32c3.84-.896 7.872-2.112 11.392-3.648.32-.128.704-.32.96-.32.384 0 .768.192.768.576.256 1.664-11.392 4.992-13.312 5.568-.384 2.048-.32 4.224-.832 6.208-.128.32-.192.448-.576.448m100.44 19.584c-6.976 0-20.224-3.008-20.224-11.968 0-8.256 11.712-15.104 18.432-17.984 1.344-.576 2.944-1.152 4.416-1.792.384-3.392.64-5.312.96-8 .32-2.24.512-4.544.832-6.784.896-7.488 1.664-14.976 2.88-22.4.256-1.408 1.344-9.024 1.792-9.792.128-.192.384-.32.64-.32.896 0 1.216.704 1.152 1.408-.256 4.48-1.216 9.024-1.792 13.44-.96 7.616-1.856 15.232-2.752 22.848-.384 2.752-.832 5.696-1.088 8.448 4.032-1.152 8.128-2.56 12.224-3.52 12.032-2.944 25.216-4.736 37.632-4.928.768-2.752 1.28-6.464 1.28-9.344 0-5.12-1.088-10.304-3.328-14.976-7.424-15.808-22.72-20.416-39.104-20.416-20.224 0-45.056 8.32-56.832 25.664-1.92 2.816-3.584 6.4-3.584 9.856 0 3.136 1.984 5.44 4.288 7.36l.192.192c0 .384-.064.96-.576.96-1.344 0-3.584-2.688-4.288-3.712-.832-1.28-1.088-1.92-1.344-3.328-.128-.512-.128-1.152-.128-1.664 0-4.288 2.56-9.088 5.12-12.416C256.398 16.54 280.206 8.22 300.558 8.22c16.576 0 32.32 4.096 40.64 19.776 2.816 5.248 4.48 11.264 4.48 17.152a34.5 34.5 0 0 1-.384 5.12c-.128 1.536-.32 3.2-.704 4.672 2.176 0 15.488.064 15.488 2.752 0 .192-.192.512-.448.512-.64 0-1.152-.384-1.728-.512-2.56-.704-5.376-.576-8.064-.768-.96-.064-1.92-.064-2.88-.064h-2.88c-1.728 4.608-3.776 9.344-6.656 13.376-11.072 15.552-31.36 26.048-50.432 26.048m.384-1.92c13.12 0 28.48-6.336 38.592-14.528 3.776-3.072 7.104-6.784 9.792-10.88 1.408-2.112 5.12-9.92 5.76-12.224-2.88.128-5.76.32-8.64.512-11.904 1.024-23.488 3.072-34.944 6.464-1.088.32-3.968 1.088-5.888 1.856-.32 2.112-.512 4.8-.768 6.976-.384 3.904-.96 7.872-.96 11.776v.576c0 .512-.064.96-.896.96-1.152 0-1.28-1.344-1.28-2.368 0-3.84.32-7.68.704-11.392.192-1.792.384-3.712.512-5.504-1.856.832-4.16 1.792-6.016 2.688-5.12 2.56-14.72 8.448-14.72 14.912 0 8.064 12.672 10.176 18.752 10.176m72.578-29.12c-1.28 0-1.92-1.28-1.92-2.432 0-3.456 2.88-10.304 6.976-10.304 1.152 0 3.136 1.728 3.136 2.88 0 1.856-.384 6.72 2.624 6.72 2.816 0 8.064-5.056 8.768-5.056.128 0 .192.064.32.064.064.128.192.32.192.448 0 1.152-5.184 4.736-6.336 5.376-.96.512-2.176.96-3.264.96-2.624 0-4.16-2.496-4.544-4.8-1.472 1.728-3.328 6.144-5.952 6.144m.576-2.496c2.24-2.048 3.776-4.736 5.056-7.424-.128-.128-.384-.448-.576-.448-2.304 0-4.16 6.016-4.48 7.872m22.719 4.864c-2.944 0-3.456-3.84-3.456-6.08 0-1.344.512-8.512 2.112-8.512.384 0 .768.256.768.704 0 2.56-.768 4.992-.768 7.552 0 .896 0 4.288 1.344 4.288.832 0 1.728-.96 2.24-1.536 2.816-3.2 4.992-8.576 4.992-12.8 0-1.344-1.088-5.696-2.816-5.696-.32 0-.512.192-.832.192a.574.574 0 0 1-.576-.576c0-.704.896-1.28 1.536-1.28 1.408 0 2.88 1.792 3.52 2.88.768 1.216.896 2.368.896 3.776 0 4.352-3.52 17.088-8.96 17.088m15.521-.896c-3.072 0-4.544-2.56-4.544-5.312 0-1.152.96-5.76 2.304-7.168.256-.256.64-.256.896-.256.768 0 1.152.448 1.152 1.152 0 .384-.064.768-.192 1.216-.448 1.856-1.664 4.352-1.664 5.952 0 1.408.64 2.624 2.24 2.624 3.712 0 9.408-5.44 11.776-8.128.32.064.64.32.64.64 0 .832-.896 1.664-1.408 2.304-2.368 2.816-7.232 6.976-11.2 6.976m-.128-15.232c-.832-.064-1.536-.512-1.536-1.408 0-1.088.192-3.136 1.664-3.072.64 0 1.472 1.536 1.472 2.112 0 .96-.448 2.368-1.6 2.368m28.202 16.704c-6.144 0-6.272-6.784-6.912-11.072-.64-.128-.96-.768-1.152-1.28-1.344 2.24-4.224 11.072-7.232 11.072-1.792 0-1.984-2.112-1.984-3.328 0-3.968 2.56-11.328 7.296-11.328.576 0 1.088.192 1.6.256.64-.768 1.984-4.16 2.176-5.184.576-3.2 1.024-6.464 1.792-9.6.512-2.048 3.584-12.544 5.824-12.544.576 0 1.152.576 1.152 1.152 0 4.48-4.352 14.592-6.208 18.944-1.088 2.496-1.408 7.744-1.408 10.624 0 3.456 0 10.432 4.928 10.816 4.032.32 10.112-6.208 12.224-9.024.32-.384.512-.768.64-1.024l.32-.064.32.128.128.448c0 .384-.256.96-.704 1.6-2.496 3.648-8.32 9.408-12.8 9.408m-15.04-4.288c1.088-.512 5.632-8.128 5.632-9.408-3.136-.256-5.44 5.888-5.568 8.448 0 .32 0 .64-.064.96m8-10.24.192-.064v-.384h-.128l-.128.192zm5.248-17.472c.512-1.792 1.664-4.352 1.792-6.016-.32.512-1.984 5.44-1.984 6.016v.256z" fill="#4B6CFF"/><path d="m11.582 74.588.076.185zm10.56-2.112.011.2.143-.008.039-.138zm1.728-6.08-.193-.05v.001zm8.256-39.872-.195-.041v.001zm3.52-4.736-.196-.04v.003zm-1.664 8.256.197.038v-.001zM24.638 72.54l-.192-.055-.066.231.239.023zm38.528 10.24-.062.19zm-.384 1.984.06-.19-.001-.001zm-35.264-9.6.025-.198h-.004zm-3.584-.256v-.2h-.142l-.047.134zm-2.752 7.552-.184-.078-.002.004zM10.366 96.028l-.128-.154-.001.001zm8.384-13.632.186.075v-.003zm2.752-7.552.188.07.11-.299-.317.03zM5.374 82.14l-.165-.112zm1.728 17.144c-2.154 0-3.761-1.196-4.84-2.876-1.08-1.684-1.616-3.837-1.616-5.692h-.4c0 1.921.553 4.152 1.68 5.908 1.13 1.76 2.85 3.06 5.176 3.06zM.646 90.716c0-6.888 4.681-13.347 11.012-15.943l-.152-.37C5.037 77.055.246 83.653.246 90.716zm11.012-15.943c3.235-1.332 7.05-1.906 10.495-2.097l-.022-.4c-3.467.193-7.332.771-10.625 2.127zm10.677-2.243c.573-2.037 1.217-4.035 1.73-6.085l-.389-.097c-.511 2.045-1.147 4.015-1.726 6.074zm1.729-6.083c3.457-13.191 5.573-26.583 8.258-39.883l-.392-.08c-2.69 13.324-4.8 26.684-8.253 39.861zm8.258-39.881c.224-1.059.975-4.765 1.886-8.207.455-1.722.949-3.37 1.434-4.586.243-.609.48-1.1.705-1.434q.169-.25.31-.365c.093-.077.16-.098.205-.098v-.4a.73.73 0 0 0-.46.19c-.135.11-.263.265-.387.45-.248.37-.498.89-.745 1.509-.494 1.238-.993 2.906-1.45 4.632-.913 3.454-1.666 7.172-1.89 8.226zm4.54-14.69c.173 0 .297.008.388.026.09.018.133.043.156.064.022.02.045.055.062.132.018.08.026.19.026.346h.4c0-.164-.008-.31-.036-.434a.64.64 0 0 0-.18-.336.7.7 0 0 0-.35-.164 2.5 2.5 0 0 0-.466-.034zm.632.568c0 1.443-.361 3.037-.8 4.643-.437 1.596-.954 3.213-1.244 4.662l.392.078c.287-1.43.794-3.014 1.237-4.634.44-1.61.815-3.248.815-4.749zm-2.044 9.307a188 188 0 0 1-.832 4.124 192 192 0 0 0-.833 4.132l.394.074c.255-1.374.543-2.748.83-4.124.289-1.376.577-2.754.834-4.132zm-1.664 8.255c-2.753 14.275-5.375 28.538-9.34 42.48l.384.109c3.971-13.962 6.597-28.244 9.349-42.513zM24.619 72.74c13.86 1.341 25.35 5.938 38.485 10.231l.124-.38c-13.105-4.283-24.654-8.902-38.57-10.25zm38.486 10.23c17.214 5.568 37.466 11.466 55.613 11.466v-.4c-18.076 0-38.273-5.878-55.49-11.446zm55.613 11.466c1.565 0 4.61 0 7.266-.573 1.327-.286 2.576-.72 3.498-1.382.928-.667 1.532-1.574 1.532-2.789h-.4c0 1.057-.516 1.854-1.366 2.465-.856.615-2.043 1.034-3.348 1.316-2.608.562-5.611.563-7.182.563zm12.296-4.744c0-.632-.392-1.083-.729-1.428-.177-.181-.331-.326-.45-.471-.117-.145-.165-.252-.165-.341h-.4c0 .23.121.428.255.593s.315.336.474.499c.336.343.615.692.615 1.148zm-1.344-2.24c0-.145.103-.248.248-.248v-.4a.64.64 0 0 0-.648.648zm.248-.248c.231 0 .465.096.694.273s.442.428.626.715c.37.58.592 1.262.592 1.692h.4c0-.53-.258-1.287-.655-1.908a3.3 3.3 0 0 0-.718-.815c-.276-.213-.594-.357-.939-.357zm1.912 2.68c0 1.394-.563 2.461-1.479 3.289-.921.832-2.203 1.423-3.633 1.839-2.859.832-6.242.944-8.32.944v.4c2.083 0 5.515-.111 8.432-.96 1.459-.424 2.805-1.037 3.789-1.927.991-.894 1.611-2.067 1.611-3.585zm-13.432 6.072c-17.757 0-38.528-6.07-55.556-11.383l-.12.382c17.02 5.31 37.849 11.401 55.676 11.401zM62.841 84.573c-11.629-3.578-23.115-8.068-35.298-9.607l-.05.396c12.137 1.534 23.563 6.003 35.23 9.593zm-35.302-9.608c-1.214-.128-2.44-.257-3.605-.257v.4c1.14 0 2.345.127 3.563.255zm-3.794-.123c-.898 2.566-1.726 5.116-2.747 7.54l.368.156c1.028-2.44 1.863-5.01 2.757-7.564zm-2.749 7.544c-1.021 2.586-2.92 6.827-5.363 10.418-1.222 1.795-2.576 3.42-4.018 4.594-1.443 1.175-2.96 1.886-4.513 1.886v.4c1.679 0 3.282-.769 4.765-1.976 1.484-1.208 2.863-2.867 4.096-4.68 2.468-3.625 4.379-7.896 5.405-10.495zM6.718 97.572c.577 0 1.305-.168 1.99-.42.684-.253 1.347-.599 1.787-.971l-.258-.306c-.392.332-1.008.658-1.668.901-.66.244-1.34.396-1.85.396zm3.776-1.39c1.915-1.59 3.577-3.918 4.982-6.391 1.406-2.475 2.562-5.108 3.46-7.32l-.371-.15c-.895 2.204-2.043 4.82-3.437 7.272-1.395 2.455-3.029 4.736-4.89 6.281zm8.443-13.714c.96-2.497 1.86-5.13 2.753-7.555l-.376-.138c-.898 2.44-1.79 5.054-2.75 7.55zm2.546-7.823c-6.146.576-12.57 1.924-16.274 7.383l.33.224c3.593-5.293 9.84-6.633 15.982-7.209zM5.209 82.028c-1.747 2.588-2.786 5.57-2.786 8.688h.4c0-3.027 1.009-5.932 2.718-8.464zm-2.786 8.688c0 1.21.293 2.903.964 4.303.668 1.394 1.745 2.553 3.332 2.553v-.4c-1.356 0-2.328-.985-2.972-2.326-.64-1.337-.924-2.971-.924-4.13zm57.247-33.6.178-.09-.055-.11h-.123zm-6.144 5.824.094.177.003-.002zm-7.808-3.84.197-.033-.07-.424-.28.327zm-5.376 3.648-.197-.034-.1.576.432-.394zm5.056-7.424.18.086.061-.127-.1-.1zm-5.632 9.72c-.563 0-.986-.278-1.276-.697-.293-.425-.444-.992-.444-1.535h-.4c0 .61.168 1.258.515 1.761.35.509.888.871 1.605.871zm-1.72-2.232c0-1.686.707-4.228 1.925-6.348 1.225-2.132 2.917-3.756 4.85-3.756v-.4c-2.162 0-3.958 1.8-5.197 3.956-1.245 2.168-1.978 4.778-1.978 6.548zm6.776-10.104c.243 0 .55.093.884.266.33.17.673.413.982.69.31.279.58.59.772.895.195.308.298.594.298.829h.4c0-.341-.145-.703-.36-1.043a4.8 4.8 0 0 0-.843-.978c-.33-.297-.7-.56-1.065-.749-.362-.187-.735-.31-1.068-.31zm2.936 2.68c0 .91-.097 2.621.187 4.094.143.738.385 1.44.801 1.962.424.53 1.02.864 1.836.864v-.4c-.689 0-1.172-.274-1.523-.714-.358-.448-.584-1.078-.721-1.788-.275-1.423-.18-3.072-.18-4.018zm2.824 6.92c.755 0 1.647-.336 2.552-.813.911-.48 1.862-1.119 2.74-1.753s1.695-1.27 2.324-1.74c.317-.236.586-.43.796-.564q.157-.1.258-.149c.074-.035.101-.037.098-.037v-.4a.7.7 0 0 0-.27.076q-.133.065-.301.173c-.223.142-.502.343-.82.58-.64.479-1.444 1.106-2.318 1.737-.874.63-1.807 1.255-2.694 1.723-.892.47-1.712.767-2.365.767zm8.768-5.056c.028 0 .049.006.096.022.048.016.124.042.224.042v-.4a.3.3 0 0 1-.097-.022c-.048-.016-.124-.042-.223-.042zm.14-.047.062.114.059.11a1 1 0 0 1 .05.124v.011h.4a.74.74 0 0 0-.093-.313l-.066-.126-.054-.098zm.172.359c0 .08-.05.219-.19.422a5 5 0 0 1-.58.673c-.495.5-1.172 1.07-1.89 1.627-1.435 1.117-3.01 2.166-3.573 2.48l.194.349c.588-.327 2.181-1.39 3.625-2.513.723-.562 1.415-1.144 1.928-1.661.256-.258.472-.505.626-.728.148-.216.26-.44.26-.649zm-6.23 5.2c-.948.505-2.13.936-3.17.936v.4c1.135 0 2.385-.465 3.358-.983zm-3.17.936c-1.241 0-2.229-.588-2.959-1.464-.733-.88-1.2-2.045-1.388-3.169l-.395.066c.197 1.18.689 2.415 1.476 3.359.79.948 1.883 1.608 3.266 1.608zm-4.697-4.73c-.378.444-.777 1.057-1.198 1.71-.423.66-.871 1.368-1.354 2.021-.484.654-.995 1.243-1.54 1.668s-1.11.675-1.707.675v.4c.715 0 1.365-.301 1.953-.76.586-.456 1.123-1.08 1.615-1.745.493-.667.95-1.387 1.37-2.042.424-.66.808-1.247 1.166-1.667zm-5.088 3.926c2.269-2.075 3.818-4.792 5.101-7.486l-.36-.172c-1.278 2.682-2.8 5.341-5.011 7.362zm5.062-7.713-.112-.12a3 3 0 0 0-.158-.158 1.2 1.2 0 0 0-.191-.148.5.5 0 0 0-.256-.081v.4c-.005 0 .01 0 .05.023q.055.033.126.1.07.065.137.138c.041.044.086.093.121.128zm-.717-.507c-.666 0-1.265.432-1.78 1.04-.52.613-.987 1.441-1.386 2.317-.8 1.752-1.349 3.736-1.511 4.681l.394.068c.157-.911.696-2.862 1.48-4.583.393-.86.842-1.652 1.328-2.225.49-.578.988-.898 1.475-.898zm15.807-1.272-.166-.11-.004.005-.004.007zm1.024-.512.025-.199-.012-.001h-.013zm-.576 8.96h-.2v.188l.188.012zm6.4-7.872-.02.199.01.001h.01zm8.512 2.944-.013.2h.013zm.512.512.181.085.02-.04v-.045zm-8.128 7.104-.017.2h.007zM65.62 59.1l.197-.036-.087-.467-.273.388zm-4.992 5.304c-.353 0-.603-.111-.789-.283-.19-.177-.326-.431-.42-.736-.19-.614-.19-1.367-.19-1.917h-.4c0 .538-.002 1.353.208 2.035.106.343.27.67.53.91.264.246.614.391 1.061.391zm-1.4-2.936c0-.65.252-2.392.58-4.115.164-.857.345-1.703.521-2.397.178-.704.345-1.225.474-1.454l-.35-.196c-.158.283-.336.858-.512 1.552a43 43 0 0 0-.525 2.42c-.328 1.718-.588 3.496-.588 4.19zm1.567-7.953a.9.9 0 0 1 .36-.33 1.14 1.14 0 0 1 .497-.093v-.4c-.242 0-.466.035-.67.131a1.3 1.3 0 0 0-.52.47zm.832-.425c.41.052.721.412.721.826h.4c0-.61-.456-1.146-1.071-1.222zm.721.826c0 1.246-.358 2.45-.728 3.695-.366 1.236-.744 2.511-.744 3.857h.4c0-1.278.359-2.499.728-3.743.366-1.235.744-2.495.744-3.809zm-1.472 7.552v.384h.4v-.384zm.188.584a.6.6 0 0 0 .347-.11c.103-.068.212-.162.324-.274.223-.225.479-.544.754-.919.552-.75 1.204-1.754 1.858-2.747.657-.997 1.316-1.984 1.89-2.713.288-.366.548-.659.77-.855q.168-.146.29-.208c.082-.043.133-.05.16-.047l.04-.398a.7.7 0 0 0-.384.09c-.12.062-.244.153-.37.263-.25.22-.527.535-.82.907-.586.745-1.255 1.746-1.91 2.741-.658.999-1.302 1.99-1.846 2.73-.272.37-.514.67-.716.874a1.6 1.6 0 0 1-.256.218.4.4 0 0 1-.08.042c-.02.007-.028.006-.026.006zm6.412-7.872c.146 0 .302.085.43.24.127.153.202.35.202.52h.4c0-.277-.117-.561-.294-.775-.176-.214-.436-.385-.738-.385zm.632.76c0 .818-.094 1.623-.19 2.44-.096.815-.194 1.642-.194 2.488h.4c0-.818.095-1.623.19-2.44.097-.815.194-1.642.194-2.488zm-.384 4.928c0 .224 0 .941.098 1.605.05.33.125.663.245.92.117.246.31.491.625.491v-.4c-.07 0-.163-.05-.263-.262-.095-.203-.164-.49-.211-.807a11 11 0 0 1-.094-1.547zm.968 3.016c.308 0 .637-.105.97-.271a6.6 6.6 0 0 0 1.048-.68c.72-.553 1.483-1.287 2.204-2.012.726-.73 1.402-1.444 1.964-1.98.28-.266.525-.48.725-.626q.15-.108.253-.155a.3.3 0 0 1 .119-.036l.026-.4a.66.66 0 0 0-.314.073c-.1.046-.207.114-.319.194a8 8 0 0 0-.766.661c-.566.54-1.257 1.269-1.972 1.987-.719.723-1.467 1.441-2.164 1.977a6 6 0 0 1-.982.639q-.46.228-.792.229zm7.296-5.76c.063 0 .143.033.21.101a.32.32 0 0 1 .102.211h.4a.7.7 0 0 0-.218-.493.7.7 0 0 0-.494-.219zm.331.227c-.497 1.056-1.885 2.844-3.469 4.356-.79.754-1.62 1.432-2.403 1.913-.79.484-1.503.75-2.065.72l-.02.4c.686.035 1.485-.284 2.294-.78.815-.5 1.668-1.197 2.47-1.963 1.6-1.528 3.028-3.356 3.555-4.476zm-7.93 6.99c-.693-.06-1.166-.306-1.5-.654-.337-.353-.547-.826-.683-1.364-.135-.538-.193-1.125-.235-1.695-.043-.562-.072-1.118-.154-1.564l-.393.072c.077.418.104.942.148 1.522.043.572.102 1.189.246 1.763s.379 1.12.783 1.542c.408.426.975.708 1.754.776zm-2.932-5.356c-.387.548-1.31 1.916-2.297 3.15-.494.617-.998 1.194-1.455 1.615-.229.21-.44.377-.63.49-.191.116-.34.164-.447.164v.4c.213 0 .437-.09.654-.22.22-.133.454-.32.694-.54.479-.441.998-1.036 1.496-1.66.997-1.245 1.93-2.63 2.312-3.169zm16.753.755.197.032.023-.14-.126-.068zm-3.584-2.88-.182-.083-.053.115.082.097zm4.864 12.416-.142.141.079.079.108-.025zm0 1.528c-.468 0-.822-.141-1.097-.368-.278-.23-.485-.557-.637-.945-.306-.78-.37-1.756-.37-2.519h-.4c0 .773.063 1.813.397 2.665.168.428.41.82.755 1.107.35.29.795.46 1.352.46zm-2.104-3.832c0-2.41.633-4.805 1.021-7.2l-.395-.064c-.38 2.342-1.026 4.81-1.026 7.264zm.918-7.408c-.481-.258-1.14-.394-1.829-.504-.702-.111-1.438-.197-2.127-.347-.687-.15-1.291-.359-1.72-.696-.419-.329-.682-.787-.682-1.477h-.4c0 .814.32 1.388.834 1.791.502.395 1.179.619 1.883.772.703.154 1.471.244 2.15.352.691.11 1.288.24 1.702.461zm-6.358-3.024c0-.564.241-1.376.658-2.047.42-.678.976-1.145 1.574-1.145v-.4c-.811 0-1.471.62-1.914 1.334-.448.722-.718 1.606-.718 2.258zm2.232-3.192c.353 0 .616.147.795.372.183.23.285.553.285.9h.4c0-.42-.123-.835-.372-1.148a1.37 1.37 0 0 0-1.108-.524zm1.08 1.272c0 .375-.115.728-.278 1.085q-.124.266-.267.532c-.092.177-.187.358-.27.54l.365.166q.117-.253.26-.52c.093-.178.189-.362.276-.552.173-.38.314-.794.314-1.251zm-.785 2.37c.127.15.328.238.538.3.215.062.476.106.755.144.567.078 1.223.136 1.864.277.64.142 1.23.36 1.66.739.421.371.704.91.704 1.738h.4c0-.933-.326-1.585-.839-2.038-.505-.445-1.174-.682-1.838-.83-.663-.146-1.355-.208-1.897-.282a5 5 0 0 1-.697-.132c-.191-.056-.296-.118-.345-.175zm5.52 3.198c0 1.354-.251 2.696-.508 4.059-.255 1.357-.515 2.735-.515 4.133h.4c0-1.354.252-2.696.508-4.059.256-1.357.516-2.735.516-4.133zM82.97 68.38c0 .345.069.728.378 1.037l.283-.282c-.203-.203-.261-.46-.261-.755zm.565 1.09c.36-.082.789-.353 1.252-.73.47-.38 1-.89 1.561-1.479 1.124-1.18 2.392-2.694 3.601-4.187.605-.747 1.195-1.49 1.746-2.182.55-.693 1.062-1.335 1.508-1.885.447-.55.826-1.003 1.114-1.318a5 5 0 0 1 .353-.355 1 1 0 0 1 .101-.078c.03-.018.019-.004-.017-.004v-.4c-.08 0-.15.037-.192.063q-.075.046-.155.117a5 5 0 0 0-.385.387 32 32 0 0 0-1.13 1.336c-.447.551-.96 1.196-1.51 1.888-.55.693-1.14 1.434-1.744 2.18-1.207 1.49-2.467 2.995-3.58 4.162-.555.584-1.071 1.079-1.523 1.445-.457.371-.826.59-1.09.651zm11.219-12.218c.057 0 .116.028.166.088a.36.36 0 0 1 .082.224h.4a.76.76 0 0 0-.175-.48.62.62 0 0 0-.473-.232zm.248.312c0 .074-.027.197-.096.374a6 6 0 0 1-.299.622 20 20 0 0 1-1.111 1.745c-.934 1.338-2.202 2.957-3.535 4.521s-2.727 3.071-3.914 4.184c-.594.557-1.132 1.012-1.58 1.326a4 4 0 0 1-.593.356c-.172.08-.299.112-.384.112v.4c.17 0 .36-.06.553-.15.198-.092.417-.225.653-.39.47-.33 1.024-.8 1.624-1.362 1.202-1.127 2.607-2.645 3.946-4.216s2.615-3.201 3.558-4.551c.47-.675.86-1.284 1.134-1.783a6 6 0 0 0 .321-.67c.074-.19.123-.368.123-.518zm14.114 7.68-.198-.024zm.832-6.912.191.059.138-.447-.418.21zm-.64.576-.141-.142-.008.008zm-13.12 1.984-.058-.191-.108.032-.028.11zm16.32-1.92.196.04.001-.003zm-.832 5.568-.198-.027-.006.046.014.044zm.064.192-.19.063.133.398.226-.353zm7.232-7.168.196-.038-.056-.293-.249.164zm-6.72 9.664.152.13zm-15.36-8.576-.063.19.112.037.086-.08zm2.368-4.224h.2v-.413l-.324.256zm-2.56 4.16-.188-.068-.07.193.195.065zm14.016 9.144c-.329 0-.579-.089-.771-.229a1.4 1.4 0 0 1-.445-.586c-.213-.493-.247-1.126-.185-1.65l-.397-.046c-.067.564-.036 1.275.215 1.854.126.293.312.559.576.752.267.194.601.305 1.007.305zm-1.401-2.464c.193-1.608.209-2.725.273-3.731.063-1.006.173-1.918.551-3.146l-.382-.118c-.39 1.268-.504 2.212-.568 3.238-.065 1.026-.08 2.117-.271 3.71zm.544-7.115a1.5 1.5 0 0 0-.396.302l-.157.164-.139.148.283.282c.051-.05.102-.106.15-.158q.073-.08.146-.154c.098-.098.192-.176.292-.226zm-.7.621c-1.41 1.571-3.127 3.51-5.056 5.058-1.931 1.55-4.047 2.684-6.25 2.684v.4c2.339 0 4.543-1.201 6.5-2.772 1.959-1.572 3.699-3.537 5.104-5.102zm-11.307 7.742c-1.318 0-2.233-.502-2.824-1.288-.598-.794-.88-1.899-.88-3.12h-.4c0 1.275.294 2.474.96 3.36.673.894 1.71 1.448 3.144 1.448zm-3.704-4.408c0-.582.15-1.474.43-2.493a20.6 20.6 0 0 1 1.167-3.199c.492-1.054 1.07-2.023 1.7-2.724.634-.707 1.292-1.112 1.943-1.112v-.4c-.82 0-1.579.507-2.24 1.244-.667.743-1.265 1.75-1.765 2.824a21 21 0 0 0-1.192 3.261c-.282 1.033-.443 1.965-.443 2.599zm5.24-9.528c.825 0 1.4.717 1.4 1.528h.4c0-.98-.705-1.928-1.8-1.928zm1.4 1.528c0 .507-.158 1.136-.438 1.812-.278.672-.673 1.38-1.134 2.042s-.985 1.273-1.52 1.758c-.539.486-1.077.833-1.566.98l.116.383c.568-.172 1.157-.56 1.717-1.067a10.8 10.8 0 0 0 1.581-1.826c.475-.682.885-1.414 1.176-2.117.29-.7.468-1.384.468-1.965zm-4.794 6.736a6.5 6.5 0 0 0-.198 1.584h.4q0-.742.186-1.487zm-.198 1.584c0 .706.062 1.41.371 1.94.324.555.894.884 1.813.884v-.4c-.809 0-1.23-.279-1.467-.685-.25-.43-.317-1.037-.317-1.739zm2.184 2.824c1.645 0 3.259-.763 4.768-1.88 1.511-1.116 2.936-2.601 4.208-4.078 1.268-1.472 2.4-2.956 3.302-4.05.454-.552.848-1.004 1.178-1.317q.248-.234.431-.35c.125-.078.208-.101.257-.101v-.4c-.159 0-.319.069-.469.163-.154.096-.32.232-.494.398-.349.331-.757.8-1.212 1.352-.917 1.113-2.029 2.573-3.296 4.044-1.265 1.468-2.667 2.927-4.143 4.018-1.477 1.093-3.007 1.801-4.53 1.801zm14.144-11.776c.294 0 .527.168.695.435.17.269.257.615.257.901h.4c0-.354-.105-.776-.319-1.115-.215-.341-.559-.621-1.033-.621zm.952 1.336c0 .681-.124 1.368-.283 2.06-.157.681-.353 1.387-.481 2.063l.393.074c.127-.668.315-1.339.478-2.048.161-.7.293-1.422.293-2.149zm-.764 4.12c-.386 1.864-.579 3.733-.834 5.58l.396.055c.258-1.864.448-3.707.83-5.554zm-.826 5.671.064.192.38-.126-.064-.192zm.423.237c.482-.756 1.081-1.79 1.738-2.906a86 86 0 0 1 2.101-3.437c.726-1.113 1.454-2.123 2.133-2.854.339-.365.66-.654.957-.851.299-.199.558-.292.774-.292v-.4c-.327 0-.663.139-.995.358-.333.221-.679.535-1.029.913-.702.755-1.445 1.789-2.175 2.908a89 89 0 0 0-2.111 3.453c-.66 1.121-1.253 2.144-1.73 2.892zm7.703-10.34c.331 0 .58.127.78.355.207.236.365.588.484 1.036.238.899.3 2.108.352 3.345.052 1.224.094 2.478.304 3.423.105.473.256.891.488 1.195.238.313.562.502.984.502v-.4c-.282 0-.494-.119-.666-.345-.18-.235-.315-.587-.416-1.038-.2-.903-.242-2.113-.294-3.353-.052-1.227-.114-2.482-.366-3.431-.126-.476-.304-.894-.569-1.197a1.38 1.38 0 0 0-1.081-.492zm3.392 9.856c.942 0 1.987-.484 3.016-1.174 1.034-.694 2.08-1.615 3.027-2.53.948-.916 1.804-1.832 2.454-2.514.326-.343.599-.624.807-.819q.156-.147.25-.216l.068-.043c.018-.01.007 0-.022 0v-.4a.4.4 0 0 0-.158.042 1 1 0 0 0-.124.079q-.125.092-.288.247c-.217.204-.497.492-.823.834-.653.686-1.502 1.594-2.442 2.502-.94.909-1.967 1.812-2.972 2.486-1.012.678-1.974 1.106-2.793 1.106zm9.6-7.296c.13 0 .217.051.276.125a.5.5 0 0 1 .1.315h.4a.9.9 0 0 0-.188-.565.73.73 0 0 0-.588-.275zm.376.44c0 .265-.102.598-.309.989a8 8 0 0 1-.874 1.267c-.743.902-1.762 1.879-2.864 2.781s-2.277 1.726-3.33 2.322c-.527.298-1.02.538-1.455.703-.437.165-.803.25-1.08.25v.4c.347 0 .766-.103 1.222-.276.46-.174.971-.424 1.51-.729 1.076-.61 2.272-1.446 3.387-2.36s2.155-1.909 2.919-2.837a8.3 8.3 0 0 0 .919-1.334c.22-.416.355-.817.355-1.176zm-9.912 8.312c-.932 0-1.602-.357-2.1-.928-.506-.578-.842-1.383-1.074-2.282-.232-.897-.357-1.869-.452-2.767-.094-.89-.159-1.722-.274-2.31l-.392.077c.11.565.172 1.365.268 2.275.095.902.223 1.898.463 2.825.239.925.595 1.8 1.16 2.446.571.653 1.349 1.064 2.401 1.064zm-4.205-8.415c-.498.326-1.049.97-1.616 1.758-.572.795-1.177 1.76-1.782 2.753-1.215 1.996-2.419 4.086-3.365 5.19l.304.26c.974-1.136 2.203-3.27 3.403-5.242.604-.992 1.202-1.946 1.765-2.727.566-.788 1.08-1.376 1.51-1.658zm-6.763 9.7a1.75 1.75 0 0 1-1.384.635v.4c.701 0 1.267-.283 1.688-.774zM97.027 58.8c.402-.368 1.005-1.12 1.506-1.912.252-.398.481-.811.649-1.197.165-.382.278-.757.278-1.07h-.4c0 .23-.087.544-.245.91a8.6 8.6 0 0 1-.62 1.143c-.49.776-1.072 1.496-1.438 1.832zm2.433-4.179v-.192h-.4v.192zm-.324-.349c-1.264.998-2.111 2.839-2.624 4.249l.376.136c.511-1.406 1.328-3.149 2.496-4.071zm-2.5 4.507.193.064.126-.38-.192-.064zm89.018 16.578.198-.028-.002-.011zm0-4.864.199.012.013-.212h-.212zm2.432-17.472.109.168.357-.233-.407-.126zm.896-10.112.063.19.127-.042.009-.134zm1.856-3.904h-.2v.011l.001.011zm-.192 3.456-.2-.01-.012.227.227-.018zm6.528 1.408h.2v-.009l-.001-.008zm-1.408.192.185-.074-.028-.07-.068-.035zm-5.312.384-.075-.186-.125.05v.136zm-1.472.448.179-.09-.065-.128-.143.02zm-6.208 3.84.199-.021-.002-.012-.002-.011zm8.384 4.288h.2v-.016l-.003-.015zm-.512 1.344-.064-.19-.008.003-.008.003zm-7.296 4.16-.118-.162-.007.006zm-3.456 3.584.164.114.001-.001zm-1.024 3.264.197-.03v-.001zm4.096 2.88-.051.194.013.003.013.002zm3.136 0 .02.199.14-.014.034-.136zm2.048-.384h-.2v.252l.245-.057zm11.392-3.648-.075-.186-.005.003zm1.728.256h-.2v.015l.002.015zm-13.312 5.568-.058-.192-.116.035-.023.12zm-.832 6.208.185.074.005-.012.003-.012zm-.576.248c-.242 0-.395-.144-.506-.387-.114-.25-.16-.557-.192-.785l-.396.056c.031.22.082.585.224.895.144.317.407.621.87.621zm-.7-1.183c-.124-.618-.124-1.175-.124-1.753h-.4c0 .575-.001 1.17.132 1.831zm-.124-1.753c0-.953.063-1.97.127-3.06l-.399-.024c-.064 1.086-.128 2.117-.128 3.084zm-.072-3.272c-1.841 0-4.047-.287-5.784-1.147-1.726-.856-2.976-2.268-2.976-4.541h-.4c0 2.463 1.373 3.995 3.199 4.9 1.815.898 4.09 1.188 5.961 1.188zm-8.76-5.688c0-2.656 1.823-4.876 4.181-6.764s5.178-3.39 7.12-4.652l-.218-.336c-1.898 1.234-4.775 2.772-7.152 4.676-2.378 1.904-4.331 4.228-4.331 7.076zm11.251-11.775c-.944-.293-2.664-.718-4.161-1.399-.746-.34-1.421-.737-1.907-1.2-.484-.463-.767-.978-.767-1.562h-.4c0 .728.357 1.34.891 1.85.532.509 1.253.928 2.018 1.276 1.527.695 3.295 1.134 4.207 1.417zm-6.835-4.161c0-.686.317-1.329.854-1.927.539-.6 1.287-1.141 2.118-1.62 1.661-.957 3.612-1.64 4.763-2.023l-.127-.38c-1.152.384-3.137 1.078-4.836 2.057-.85.49-1.637 1.055-2.215 1.698-.578.644-.957 1.377-.957 2.195zm7.871-5.746c.033-.461.064-1.627.215-2.69.075-.532.178-1.02.32-1.371q.108-.264.223-.386c.073-.078.137-.103.195-.103v-.4a.66.66 0 0 0-.487.23 1.6 1.6 0 0 0-.302.51c-.16.396-.269.924-.345 1.464-.154 1.08-.187 2.283-.218 2.718zm.953-4.55a.44.44 0 0 1 .36.192.76.76 0 0 1 .144.44h.4a1.16 1.16 0 0 0-.224-.68.84.84 0 0 0-.68-.352zm.505.654c.062.555.031 1.099-.024 1.662-.055.558-.137 1.148-.169 1.761l.399.022c.032-.603.111-1.165.168-1.743.056-.573.09-1.15.023-1.746zm.022 3.633c.423-.032.864-.097 1.29-.153a10 10 0 0 1 1.255-.102v-.4c-.43 0-.873.05-1.306.106-.437.056-.861.12-1.27.15zm2.545-.255c.504 0 1.444.048 2.267.273.412.113.781.266 1.05.47.266.2.426.441.451.738l.399-.034c-.038-.44-.279-.774-.609-1.024-.326-.246-.75-.417-1.186-.536-.872-.239-1.853-.287-2.372-.287zm3.768 1.464v.192h.4v-.192zm0 .192a.77.77 0 0 1-.167.415c-.111.145-.235.217-.337.217v.4c.281 0 .509-.184.655-.375.146-.192.249-.442.249-.657zm-.504.632c-.129 0-.218-.066-.302-.201-.092-.148-.144-.323-.217-.505l-.371.148c.055.138.131.38.248.567.124.2.322.391.642.391zm-.615-.81c-.432-.217-.862-.214-1.241-.214v.4c.389 0 .726.003 1.062.17zm-1.241-.214c-1.473 0-2.916.063-4.235.59l.149.372c1.241-.497 2.614-.562 4.086-.562zm-4.36.776c0 .21-.031.505-.116.74-.09.247-.203.34-.324.34v.4c.391 0 .597-.323.7-.604.106-.293.14-.639.14-.876zm-.44 1.08c-.144 0-.252-.067-.356-.197-.111-.139-.196-.322-.297-.524l-.358.178c.09.182.198.415.342.596.152.19.364.347.669.347zm-.861-.83c-.36.051-.953.235-1.625.494a20 20 0 0 0-2.169.992c-.717.383-1.393.81-1.872 1.236-.24.212-.438.432-.567.654s-.196.464-.141.706l.39-.088c-.025-.11-.001-.247.097-.417.099-.171.264-.358.487-.557.444-.395 1.089-.805 1.795-1.182a20 20 0 0 1 2.124-.97c.668-.259 1.226-.427 1.538-.472zm-6.378 4.06c.032.3.222.541.477.736s.597.362.986.512c.778.301 1.799.557 2.804.827 1.014.273 2.015.56 2.785.928.783.373 1.254.794 1.333 1.294l.395-.062c-.113-.715-.761-1.215-1.556-1.593-.808-.386-1.843-.682-2.853-.953-1.02-.274-2.011-.523-2.763-.813-.376-.146-.678-.297-.888-.458-.211-.161-.307-.314-.322-.461zm8.383 4.266c0 .1.026.175.042.223a.3.3 0 0 1 .022.097h.4c0-.1-.027-.175-.043-.223a.3.3 0 0 1-.021-.097zm.064.32c0 .414-.177.747-.44.834l.127.38c.506-.169.713-.732.713-1.214zm-.456.84a40.3 40.3 0 0 0-7.333 4.182l.234.324a40 40 0 0 1 7.258-4.138zm-7.341 4.188c-1.289 1.03-2.521 2.197-3.497 3.627l.331.226c.944-1.386 2.144-2.523 3.416-3.54zm-3.496 3.626c-.58.839-1.262 2.111-1.057 3.41l.395-.063c-.179-1.134.419-2.293.991-3.12zm-1.057 3.408c.142.924.865 1.59 1.69 2.063.831.478 1.811.787 2.553.98l.101-.386c-.73-.191-1.67-.49-2.455-.94-.79-.454-1.38-1.037-1.494-1.777zm4.269 3.049c.506.063.969.129 1.433.129v-.4c-.433 0-.865-.062-1.384-.127zm1.433.129c.524 0 1.113-.066 1.748-.129l-.04-.398c-.645.065-1.209.127-1.708.127zm1.922-.28c.061-.245.183-.606.367-.902.19-.303.41-.482.655-.482v-.4c-.459 0-.783.333-.994.67-.215.344-.35.75-.416 1.017zm1.022-1.384c.156 0 .315.08.439.21a.65.65 0 0 1 .193.422h.4c0-.255-.125-.51-.303-.698a1.02 1.02 0 0 0-.729-.334zm.632.632v.32h.4v-.32zm.245.515c3.848-.898 7.892-2.117 11.427-3.66l-.16-.366c-3.506 1.53-7.525 2.742-11.358 3.636zm11.421-3.657c.178-.072.329-.142.501-.207q.252-.097.385-.099v-.4c-.168 0-.359.06-.528.125-.163.063-.365.152-.507.21zm.886-.306a.77.77 0 0 1 .417.11.3.3 0 0 1 .151.266h.4a.7.7 0 0 0-.329-.598 1.17 1.17 0 0 0-.639-.178zm.57.406c.006.042-.003.105-.059.195a1.4 1.4 0 0 1-.292.316c-.28.236-.706.497-1.244.772-1.074.549-2.557 1.135-4.114 1.69-3.114 1.11-6.5 2.085-7.463 2.373l.115.384c.957-.288 4.356-1.265 7.482-2.38 1.562-.556 3.064-1.15 4.162-1.71.547-.28 1.005-.558 1.32-.824a1.8 1.8 0 0 0 .375-.41.68.68 0 0 0 .113-.466zm-13.311 5.501c-.194 1.036-.275 2.104-.371 3.147-.095 1.048-.206 2.073-.458 3.048l.387.1c.261-1.01.374-2.064.47-3.112.096-1.053.175-2.097.365-3.11zm-.821 6.17c-.069.172-.101.235-.14.27-.025.023-.076.053-.25.053v.4c.209 0 .382-.034.517-.155.122-.11.185-.27.244-.419zm98.258-9.845.079.184zm4.416-1.792.08.183.106-.046.013-.115zm.96-8-.198-.028v.004zm.832-6.784.198.028.001-.004zm2.88-22.4-.196-.036-.001.004zm1.792-9.792-.166-.111-.006.01zm1.792 1.088-.199-.018v.007zm-1.792 13.44-.198-.026v.001zm-2.752 22.848.198.028.001-.005zm-1.088 8.448-.199-.018-.027.29.281-.08zm12.224-3.52.046.195h.002zm37.632-4.928.003.2.15-.002.04-.144zm-2.048-24.32-.181.085.001.002zm-95.936 5.248.166.113zm.704 17.216.142-.141-.007-.007-.007-.006zm.192.192h.2v-.083l-.058-.058zm-4.864-2.752-.167.109.003.004zm-1.344-3.328.198-.036-.004-.012zm4.992-14.08.159.122h.001zm97.408-5.12-.176.094zm4.096 22.272-.198-.03-.001.013zm-.704 4.672-.193-.05-.066.25h.259zm13.312 2.752-.053.193.01.002zm-8.064-.768.015-.2h-.001zm-5.76-.064v-.2h-.138l-.049.13zm-6.656 13.376-.162-.116h-.001zm-11.456 9.6.126.155h.001zm9.792-10.88-.166-.11h-.001zm5.76-12.224.193.053.074-.265-.276.012zm-8.64.512-.013-.2h-.004zm-34.944 6.464.057.192zm-5.888 1.856-.074-.186-.106.043-.017.113zm-.768 6.976-.198-.023-.001.003zm-2.432-.448-.199-.021zm.512-5.504.2.014.024-.333-.305.136zm-6.016 2.688-.087-.18-.002.001zm3.648 26.808c-3.466 0-8.493-.749-12.646-2.607-4.158-1.86-7.378-4.8-7.378-9.161h-.4c0 4.6 3.405 7.643 7.615 9.527 4.215 1.885 9.3 2.641 12.809 2.641zm-20.024-11.768c0-4.034 2.866-7.758 6.624-10.854 3.748-3.088 8.338-5.51 11.687-6.946l-.157-.368c-3.371 1.445-7.997 3.886-11.785 7.006-3.779 3.112-6.769 6.94-6.769 11.162zm18.311-17.8c.669-.287 1.402-.574 2.155-.87a71 71 0 0 0 2.262-.923l-.159-.366c-.733.318-1.498.62-2.25.917-.751.296-1.49.585-2.165.874zm4.536-1.954c.384-3.391.64-5.307.96-7.998l-.397-.048c-.32 2.685-.576 4.61-.96 8.002zm.959-7.994c.161-1.123.289-2.262.417-3.398s.256-2.27.415-3.386l-.396-.056c-.16 1.123-.288 2.262-.416 3.398s-.256 2.27-.416 3.386zm.833-6.788c.896-7.493 1.664-14.973 2.879-22.392l-.395-.064c-1.217 7.43-1.986 14.925-2.881 22.408zm2.878-22.388c.128-.705.466-2.971.825-5.14.18-1.087.365-2.152.533-2.993.085-.42.164-.782.236-1.062q.113-.432.174-.532l-.345-.202c-.073.124-.145.355-.216.635-.075.29-.156.66-.241 1.083a98 98 0 0 0-.536 3.006c-.361 2.184-.696 4.43-.823 5.133zm1.762-9.717a.59.59 0 0 1 .473-.231v-.4c-.314 0-.636.155-.806.41zm.473-.231c.389 0 .629.149.772.354.15.215.21.516.181.836l.399.036c.034-.384-.033-.787-.252-1.1-.224-.323-.592-.526-1.1-.526zm.953 1.197c-.256 4.472-1.212 8.986-1.791 13.425l.397.052c.573-4.393 1.537-8.967 1.793-13.455zm-1.791 13.426c-.96 7.617-1.856 15.234-2.752 22.85l.397.046c.896-7.616 1.792-15.23 2.752-22.846zm-2.752 22.845c-.383 2.749-.832 5.7-1.089 8.458l.398.037c.256-2.746.703-5.684 1.087-8.44zm-.835 8.668c4.047-1.156 8.124-2.558 12.215-3.517l-.091-.39c-4.101.962-8.217 2.375-12.234 3.523zm12.217-3.518c12.018-2.94 25.187-4.73 37.587-4.922l-.006-.4c-12.432.192-25.631 1.986-37.676 4.934zm37.777-5.068c.773-2.77 1.287-6.5 1.287-9.398h-.4c0 2.862-.509 6.556-1.272 9.29zm1.287-9.398c0-5.148-1.093-10.362-3.347-15.062l-.361.172c2.226 4.644 3.308 9.798 3.308 14.89zm-3.347-15.061c-7.473-15.912-22.87-20.531-39.285-20.531v.4c16.354 0 31.548 4.598 38.923 20.301zm-39.285-20.531c-20.259 0-45.17 8.332-56.997 25.752l.331.224C256 18.712 280.754 10.404 300.942 10.404zm-56.997 25.751c-1.93 2.83-3.619 6.455-3.619 9.969h.4c0-3.398 1.639-6.942 3.55-9.743zm-3.619 9.969c0 3.23 2.046 5.585 4.36 7.514l.256-.308c-2.294-1.911-4.216-4.164-4.216-7.206zm4.347 7.501.192.192.283-.282-.192-.192zm.133.051c0 .187-.016.394-.08.547a.4.4 0 0 1-.112.158.3.3 0 0 1-.184.055v.4a.68.68 0 0 0 .665-.46c.096-.23.111-.503.111-.7zm-.376.76c-.276 0-.628-.142-1.028-.403a8.4 8.4 0 0 1-1.216-1.012 17 17 0 0 1-1.879-2.21l-.329.226c.358.522 1.102 1.46 1.928 2.27.413.405.852.783 1.277 1.06.419.275.852.469 1.247.469zm-4.12-3.621c-.413-.636-.677-1.103-.87-1.582-.193-.478-.318-.975-.445-1.673l-.393.072c.129.71.26 1.237.467 1.75.207.514.487 1.007.906 1.651zm-1.318-3.267c-.12-.484-.122-1.098-.122-1.616h-.4c0 .506-.001 1.172.134 1.713zm-.122-1.616c0-4.222 2.528-8.978 5.079-12.294l-.317-.244c-2.569 3.34-5.162 8.184-5.162 12.538zm5.08-12.295c12.558-16.51 36.297-24.817 56.608-24.817v-.4c-20.392 0-44.269 8.334-56.927 24.975zM300.558 8.42c16.551 0 32.196 4.09 40.464 19.67l.353-.188C333.002 12.122 317.16 8.02 300.558 8.02zm40.464 19.67c2.802 5.223 4.456 11.207 4.456 17.058h.4c0-5.925-1.674-11.973-4.503-17.247zm4.456 17.058c0 1.654-.127 3.436-.381 5.09l.395.06c.258-1.674.386-3.477.386-5.15zm-.383 5.103c-.128 1.534-.319 3.184-.698 4.639l.387.1c.388-1.489.581-3.167.71-4.705zm-.505 4.889c1.087 0 4.951.016 8.541.367 1.797.176 3.513.434 4.776.813.633.19 1.138.405 1.48.646.344.241.491.484.491.726h.4c0-.43-.268-.777-.661-1.054-.394-.277-.946-.507-1.595-.702-1.301-.39-3.049-.65-4.852-.827-3.611-.353-7.491-.369-8.58-.369zm15.288 2.552a.4.4 0 0 1-.086.206c-.06.078-.12.106-.162.106v.4c.215 0 .379-.132.479-.262s.169-.3.169-.45zm-.248.312c-.28 0-.539-.084-.813-.194-.265-.106-.562-.245-.871-.313l-.087.39c.267.06.514.177.809.295.285.114.603.222.962.222zm-1.675-.505c-1.3-.357-2.66-.502-4.025-.583-1.382-.08-2.726-.095-4.077-.191l-.029.398c1.337.096 2.744.114 4.083.193 1.355.08 2.682.222 3.942.569zm-8.103-.775c-.968-.064-1.935-.064-2.894-.064v.4c.961 0 1.915 0 2.867.064zm-2.894-.064h-2.88v.4h2.88zm-3.067.13c-1.726 4.604-3.767 9.32-6.631 13.33l.325.232c2.896-4.054 4.951-8.81 6.681-13.422zm-6.632 13.33c-11.034 15.5-31.262 25.964-50.269 25.964v.4c19.137 0 39.486-10.527 50.595-26.132zm-49.885 24.444c13.174 0 28.577-6.357 38.718-14.573l-.252-.31c-10.082 8.168-25.399 14.483-38.466 14.483zm38.719-14.573c3.792-3.085 7.134-6.813 9.833-10.925l-.335-.22c-2.677 4.08-5.991 7.776-9.751 10.835zm9.832-10.924c.713-1.07 1.999-3.563 3.182-6.065s2.279-5.045 2.604-6.217l-.385-.106c-.315 1.132-1.395 3.645-2.58 6.151s-2.459 4.973-3.154 6.015zm5.584-12.535c-2.882.128-5.764.32-8.644.512l.027.4c2.88-.193 5.758-.384 8.635-.512zm-8.648.513c-11.916 1.025-23.513 3.075-34.983 6.471l.113.384c11.442-3.388 23.012-5.434 34.904-6.457zm-34.983 6.471c-1.078.317-3.974 1.09-5.906 1.862l.149.372c1.908-.764 4.772-1.527 5.87-1.85zm-6.029 2.018c-.321 2.114-.515 4.823-.769 6.983l.397.046c.258-2.192.447-4.859.767-6.969zm-.77 6.986c-.382 3.892-.961 7.879-.961 11.796h.4c0-3.89.574-7.84.959-11.756zm-.961 11.796v.576h.4v-.576zm0 .576c0 .261-.02.44-.101.56-.067.098-.212.2-.595.2v.4c.449 0 .753-.122.926-.375.159-.234.17-.534.17-.785zm-.696.76a.85.85 0 0 1-.559-.18 1.13 1.13 0 0 1-.326-.49c-.162-.428-.195-.987-.195-1.498h-.4c0 .513.031 1.138.221 1.639.096.253.237.487.447.658.213.173.482.271.812.271zm-1.08-2.168c0-3.83.32-7.661.703-11.371l-.398-.042c-.384 3.715-.705 7.563-.705 11.413zm.703-11.37c.192-1.793.385-3.716.513-5.512l-.399-.028c-.128 1.788-.32 3.705-.512 5.497zm.232-5.709c-1.848.829-4.163 1.793-6.022 2.69l.174.361c1.853-.895 4.147-1.85 6.011-2.686zm-6.024 2.692c-2.568 1.284-6.263 3.404-9.321 6.019-3.046 2.606-5.51 5.746-5.51 9.072h.4c0-3.138 2.337-6.174 5.37-8.768 3.023-2.585 6.687-4.689 9.24-5.965zm-14.831 15.091c0 4.162 3.275 6.754 7.224 8.298 3.958 1.548 8.672 2.078 11.728 2.078v-.4c-3.023 0-7.685-.526-11.583-2.05-3.907-1.528-6.969-4.024-6.969-7.926zm111.434-27.072.179-.09-.056-.11h-.123zm-6.144 5.824.094.177.003-.002zm-7.808-3.84.197-.033-.071-.424-.278.327zm-5.376 3.648-.197-.034-.1.576.432-.394zm5.056-7.424.18.086.061-.127-.1-.1zm-5.632 9.72c-.563 0-.986-.278-1.276-.697-.293-.425-.444-.992-.444-1.535h-.4c0 .61.168 1.258.515 1.761.351.509.888.871 1.605.871zm-1.72-2.232c0-1.686.707-4.228 1.925-6.348 1.225-2.132 2.918-3.756 4.851-3.756v-.4c-2.163 0-3.958 1.8-5.198 3.956-1.245 2.168-1.978 4.778-1.978 6.548zm6.776-10.104c.243 0 .55.093.884.266.331.17.673.413.982.69.309.279.58.59.773.895.194.308.297.594.297.829h.4c0-.341-.145-.703-.359-1.043a4.8 4.8 0 0 0-.843-.978 5.2 5.2 0 0 0-1.066-.749c-.362-.187-.735-.31-1.068-.31zm2.936 2.68c0 .91-.097 2.621.187 4.094.143.738.385 1.44.802 1.962.423.53 1.019.864 1.835.864v-.4c-.689 0-1.172-.274-1.523-.714-.358-.448-.583-1.078-.721-1.788-.275-1.423-.18-3.072-.18-4.018zm2.824 6.92c.755 0 1.647-.336 2.552-.813.911-.48 1.862-1.119 2.741-1.753.877-.633 1.694-1.27 2.323-1.74.318-.236.586-.43.796-.564q.157-.1.258-.149c.075-.035.102-.037.098-.037v-.4a.7.7 0 0 0-.27.076 3 3 0 0 0-.301.173c-.223.142-.502.343-.82.58-.64.479-1.443 1.106-2.318 1.737-.873.63-1.807 1.255-2.693 1.723-.893.47-1.713.767-2.366.767zm8.768-5.056c.028 0 .049.006.097.022s.123.042.223.042v-.4a.3.3 0 0 1-.097-.022c-.048-.016-.123-.042-.223-.042zm.141-.047q.029.057.061.114l.059.11a1 1 0 0 1 .049.124l.002.011h.4a.75.75 0 0 0-.093-.313l-.067-.126-.053-.098zm.171.359c0 .08-.05.219-.19.422a5 5 0 0 1-.58.673c-.495.5-1.172 1.07-1.889 1.627-1.436 1.117-3.011 2.166-3.574 2.48l.194.349c.588-.327 2.181-1.39 3.626-2.513.722-.562 1.414-1.144 1.927-1.661.256-.258.472-.505.626-.728.148-.216.26-.44.26-.649zm-6.23 5.2c-.947.505-2.129.936-3.17.936v.4c1.135 0 2.385-.465 3.358-.983zm-3.17.936c-1.241 0-2.228-.588-2.959-1.464-.733-.88-1.201-2.045-1.388-3.169l-.394.066c.196 1.18.688 2.415 1.475 3.359.79.948 1.883 1.608 3.266 1.608zm-4.696-4.73c-.379.444-.778 1.057-1.198 1.71-.424.66-.872 1.368-1.355 2.021-.484.654-.995 1.243-1.54 1.668-.544.424-1.11.675-1.707.675v.4c.715 0 1.365-.301 1.953-.76.587-.456 1.123-1.08 1.616-1.745.492-.667.948-1.387 1.369-2.042.424-.66.808-1.247 1.166-1.667zm-5.089 3.926c2.269-2.075 3.818-4.792 5.101-7.486l-.361-.172c-1.277 2.682-2.799 5.341-5.01 7.362zm5.062-7.713-.112-.12a3 3 0 0 0-.157-.158 1.2 1.2 0 0 0-.192-.148.5.5 0 0 0-.256-.081v.4c-.005 0 .01 0 .049.023q.056.033.127.1.07.065.137.138c.041.044.086.093.121.128zm-.717-.507c-.666 0-1.264.432-1.78 1.04-.52.613-.987 1.441-1.386 2.317-.799 1.752-1.348 3.736-1.511 4.681l.394.068c.157-.911.696-2.862 1.481-4.583.392-.86.841-1.652 1.327-2.225.491-.578.988-.898 1.475-.898zm20.479 9.352.15.133zm5.824-17.28-.172.102.003.005zm-8.064 20.664c-1.357 0-2.166-.874-2.646-2.074-.482-1.205-.61-2.695-.61-3.806h-.4c0 1.13.129 2.68.639 3.954.512 1.28 1.43 2.326 3.017 2.326zm-3.256-5.88c0-.66.127-2.777.454-4.727.163-.976.374-1.897.639-2.57.133-.338.275-.6.422-.776.147-.175.28-.239.397-.239v-.4c-.282 0-.516.16-.703.382s-.348.53-.488.886c-.28.712-.497 1.667-.662 2.651-.33 1.97-.459 4.11-.459 4.793zm1.912-8.312c.31 0 .568.2.568.504h.4c0-.591-.509-.904-.968-.904zm.568.504c0 1.262-.189 2.495-.381 3.746-.192 1.245-.387 2.508-.387 3.806h.4c0-1.262.19-2.495.382-3.746.192-1.245.386-2.508.386-3.806zm-.768 7.552c0 .447 0 1.535.171 2.514.086.488.217.967.423 1.329.206.363.513.645.95.645v-.4c-.234 0-.432-.142-.603-.443-.172-.302-.293-.727-.376-1.2-.164-.94-.165-1.996-.165-2.445zm1.544 4.488c.487 0 .965-.277 1.365-.596.406-.323.768-.718 1.025-1.007l-.299-.266c-.256.287-.598.66-.975.96-.384.306-.77.509-1.116.509zm2.39-1.604c2.846-3.233 5.042-8.655 5.042-12.932h-.4c0 4.171-2.155 9.501-4.942 12.668zm5.042-12.932c0-.704-.279-2.153-.773-3.424-.248-.638-.555-1.245-.918-1.696-.36-.448-.803-.776-1.325-.776v.4c.343 0 .684.216 1.013.626.327.407.617.972.857 1.59.482 1.24.746 2.64.746 3.28zm-3.016-5.896c-.2 0-.36.062-.486.109a1 1 0 0 1-.346.083v.4c.201 0 .361-.062.487-.109a1 1 0 0 1 .345-.083zm-.832.192a.374.374 0 0 1-.376-.376h-.4c0 .43.346.776.776.776zm-.376-.376c0-.265.172-.533.45-.745.276-.211.619-.335.886-.335v-.4c-.372 0-.798.164-1.129.417-.33.252-.607.624-.607 1.063zm1.336-1.08c.626 0 1.297.403 1.912.978a8.6 8.6 0 0 1 1.436 1.803l.345-.202a9 9 0 0 0-1.508-1.893c-.634-.593-1.402-1.086-2.185-1.086zm3.351 2.787c.738 1.168.865 2.275.865 3.669h.4c0-1.422-.129-2.62-.927-3.883zm.865 3.669c0 2.142-.871 6.388-2.424 10.099-.776 1.854-1.716 3.56-2.792 4.8-1.077 1.242-2.267 1.989-3.544 1.989v.4c1.444 0 2.734-.845 3.846-2.127 1.115-1.284 2.075-3.034 2.859-4.908 1.567-3.745 2.455-8.044 2.455-10.253zm4.521 3.712-.141-.142-.003.004zm1.856 2.112-.192-.055-.002.008zm12.352.448.04-.196-.114-.023-.076.087zm-.768 2.944.153.129.004-.004zm-11.328-8.256-.015.2h.015zm.128-4.48-.008.2h.008zm0 19.512c-1.473 0-2.55-.61-3.265-1.545-.719-.942-1.079-2.224-1.079-3.567h-.4c0 1.409.377 2.783 1.161 3.81.79 1.032 1.985 1.702 3.583 1.702zm-4.344-5.112c0-.548.234-1.967.641-3.435.203-.73.446-1.465.72-2.102.276-.64.577-1.167.888-1.493l-.289-.276c-.361.378-.684.956-.966 1.61a17 17 0 0 0-.738 2.155c-.41 1.476-.656 2.937-.656 3.541zm2.246-7.027c.188-.188.482-.197.754-.197v-.4c-.239 0-.713-.01-1.037.315zm.754-.197c.345 0 .575.1.72.25.146.153.232.385.232.702h.4c0-.387-.106-.73-.343-.978-.24-.25-.586-.374-1.009-.374zm.952.952c0 .36-.06.726-.184 1.161l.385.11c.131-.46.199-.864.199-1.271zm-.186 1.17c-.221.915-.631 1.986-.995 3.053-.359 1.052-.675 2.107-.675 2.945h.4c0-.762.292-1.755.654-2.815.356-1.045.778-2.15 1.005-3.09zm-1.67 5.998c0 .73.166 1.434.56 1.96.401.535 1.023.864 1.88.864v-.4c-.742 0-1.241-.279-1.56-.704-.325-.434-.48-1.042-.48-1.72zm2.44 2.824c.973 0 2.058-.355 3.164-.913 1.108-.56 2.253-1.332 3.351-2.185 2.196-1.705 4.221-3.747 5.411-5.098l-.3-.264c-1.177 1.337-3.184 3.36-5.356 5.046-1.086.843-2.209 1.6-3.287 2.143-1.08.546-2.1.871-2.983.871zm11.737-8.132a.73.73 0 0 1 .343.174c.091.086.136.18.136.27h.4a.78.78 0 0 0-.263-.562 1.1 1.1 0 0 0-.537-.274zm.479.444c0 .349-.19.72-.473 1.106a9 9 0 0 1-.45.554c-.154.179-.31.355-.441.52l.313.249c.124-.156.272-.324.431-.507a10 10 0 0 0 .47-.58c.293-.398.55-.859.55-1.342zm-1.361 2.175a26.7 26.7 0 0 1-4.961 4.509c-1.997 1.384-4.164 2.396-6.086 2.396v.4c2.046 0 4.296-1.069 6.314-2.468a27 27 0 0 0 5.039-4.58zm-11.159-8.326c-.388-.03-.729-.148-.968-.347-.234-.194-.384-.473-.384-.862h-.4c0 .507.202.9.529 1.17.32.265.748.403 1.192.437zm-1.352-1.209c0-.538.049-1.294.268-1.9.11-.302.257-.553.448-.723a1 1 0 0 1 .74-.25l.017-.399a1.4 1.4 0 0 0-1.023.35c-.258.23-.435.548-.558.886-.244.674-.292 1.486-.292 2.036zm1.464-2.872c.085 0 .209.054.366.197.15.137.303.331.441.55.138.218.256.452.339.665.085.218.126.394.126.5h.4c0-.182-.063-.414-.153-.646a4.4 4.4 0 0 0-.374-.733 3 3 0 0 0-.51-.632c-.18-.163-.399-.301-.635-.301zm1.272 1.912c0 .455-.107 1.012-.343 1.449-.235.433-.579.719-1.057.719v.4c.675 0 1.131-.418 1.408-.929.275-.507.392-1.134.392-1.639zm19.89 8 .198-.03-.021-.139-.137-.027zm-1.152-1.28.188-.07-.146-.388-.213.355zm-.32-3.328-.024.198.108.014.07-.084zm2.176-5.184.197.037v-.002zm1.792-9.6-.194-.048zm.768 7.552.184.08v-.002zm3.52 21.44.016-.2zm12.224-9.024-.153-.128-.007.008zm.64-1.024-.039-.196-.096.02-.044.087zm.32-.064.075-.186-.056-.022-.058.012zm.32.128.193-.055-.027-.094-.091-.037zm.128.448h.2v-.028l-.007-.027zm-.704 1.6-.164-.115-.001.002zm-27.84 5.12-.196-.04-.078.39.36-.169zm5.632-9.408h.2v-.184l-.183-.015zm-5.568 8.448-.2-.01v.01zm7.936-9.28-.194.049.053.209.205-.068zm.192-.064.064.19.136-.046v-.144zm0-.384h.2v-.2h-.2zm-.128 0v-.2h-.107l-.059.09zm-.128.192-.166-.11-.049.073.021.086zm5.312-17.216.16.12.023-.03.01-.035zm1.792-6.016.2.015-.369-.121zm-1.984 6.272h-.2v.6l.36-.48zm1.984 31.544c-1.496 0-2.611-.412-3.457-1.084-.85-.674-1.445-1.622-1.877-2.717-.868-2.204-1.056-4.932-1.38-7.1l-.395.058c.316 2.12.512 4.928 1.403 7.188.448 1.137 1.078 2.153 2 2.885.926.734 2.131 1.17 3.706 1.17zM419.97 56.92c-.259-.052-.461-.207-.625-.422a2.8 2.8 0 0 1-.379-.732l-.375.14c.098.262.235.572.437.836.203.265.482.494.863.57zm-1.363-1.187c-.344.574-.782 1.56-1.286 2.697-.506 1.144-1.084 2.453-1.713 3.691-.63 1.24-1.306 2.399-2.006 3.244-.708.856-1.4 1.343-2.056 1.343v.4c.848 0 1.644-.617 2.364-1.487.729-.88 1.421-2.07 2.055-3.318.634-1.25 1.217-2.569 1.722-3.711.509-1.149.935-2.106 1.263-2.653zm-7.061 10.975c-.405 0-.708-.118-.94-.305-.236-.189-.41-.458-.538-.777-.257-.643-.306-1.442-.306-2.046h-.4c0 .612.048 1.477.335 2.194.144.361.353.696.658.94.308.248.701.394 1.191.394zm-1.784-3.128c0-1.95.632-4.75 1.849-7.059 1.222-2.316 2.994-4.069 5.247-4.069v-.4c-2.483 0-4.358 1.927-5.601 4.283-1.246 2.364-1.895 5.227-1.895 7.245zm7.096-11.128a3.7 3.7 0 0 1 .783.1c.254.054.525.121.793.154l.049-.397c-.245-.03-.485-.09-.759-.149a4 4 0 0 0-.866-.108zm1.754.184c.177-.212.39-.587.609-1.03.221-.447.457-.98.678-1.518.44-1.072.832-2.193.932-2.727l-.393-.074c-.092.49-.468 1.577-.909 2.65a24 24 0 0 1-.667 1.492c-.219.442-.414.779-.557.951zm2.219-5.277c.578-3.21 1.024-6.46 1.79-9.587l-.389-.096c-.77 3.144-1.221 6.424-1.794 9.613zm1.789-9.586c.255-1.018 1.148-4.146 2.257-7.017.555-1.436 1.16-2.8 1.762-3.8.301-.502.597-.904.878-1.178.286-.277.531-.398.733-.398v-.4c-.357 0-.699.207-1.011.512-.317.308-.633.742-.943 1.257-.62 1.03-1.235 2.42-1.792 3.863-1.116 2.889-2.014 6.033-2.272 7.064zm5.63-12.393c.223 0 .463.114.651.301.188.188.301.428.301.651h.4c0-.353-.174-.69-.418-.933-.244-.245-.581-.419-.934-.419zm.952.952c0 1.093-.266 2.545-.702 4.187-.435 1.638-1.035 3.452-1.694 5.265-1.317 3.626-2.867 7.237-3.796 9.414l.368.157c.928-2.176 2.482-5.797 3.804-9.435.661-1.819 1.266-3.645 1.705-5.299.438-1.65.715-3.142.715-4.289zm-6.191 18.864c-.557 1.278-.911 3.24-1.127 5.226a53 53 0 0 0-.298 5.478h.4c0-1.434.08-3.459.295-5.434.216-1.982.566-3.892 1.097-5.11zM421.586 55.9c0 1.723-.001 4.359.624 6.613.312 1.13.786 2.178 1.507 2.972.727.798 1.697 1.33 2.982 1.43l.031-.398c-1.18-.092-2.057-.576-2.717-1.302-.664-.73-1.115-1.713-1.418-2.808-.607-2.194-.609-4.774-.609-6.507zm5.113 11.015c1.062.085 2.237-.282 3.422-.9 1.188-.621 2.404-1.505 3.555-2.483 2.301-1.954 4.359-4.302 5.422-5.72l-.32-.24c-1.048 1.398-3.086 3.722-5.361 5.656-1.138.966-2.329 1.83-3.481 2.432-1.156.603-2.252.932-3.206.857zm12.393-9.095a5.2 5.2 0 0 0 .665-1.063l-.358-.178c-.127.255-.31.62-.614.985zm.526-.956.32-.064-.079-.392-.32.064zm.206-.074.32.128.149-.372-.32-.128zm.202-.003.128.448.385-.11-.128-.448zm.12.393c0 .152-.052.363-.167.623a5 5 0 0 1-.501.862l.328.23a5.5 5.5 0 0 0 .539-.93c.126-.284.201-.553.201-.785zm-.669 1.487c-1.237 1.808-3.304 4.146-5.617 6.03-2.322 1.89-4.851 3.291-7.018 3.291v.4c2.314 0 4.936-1.48 7.271-3.38 2.343-1.91 4.436-4.275 5.694-6.115zm-27.589 5.414c.094-.044.193-.12.291-.209q.152-.136.328-.339c.234-.266.505-.617.797-1.022a44 44 0 0 0 1.894-2.924 45 45 0 0 0 1.689-3.069c.223-.454.407-.864.537-1.204.126-.33.21-.621.21-.822h-.4c0 .12-.057.347-.184.68a14 14 0 0 1-.522 1.17 44 44 0 0 1-1.673 3.04 43 43 0 0 1-1.876 2.895c-.288.4-.55.74-.772.992a4 4 0 0 1-.296.307 1 1 0 0 1-.194.143zm5.563-9.788c-.856-.07-1.64.299-2.324.9-.683.602-1.282 1.448-1.781 2.372-.995 1.845-1.614 4.05-1.679 5.365l.399.02c.062-1.244.659-3.392 1.632-5.195.486-.9 1.059-1.702 1.693-2.26.635-.559 1.315-.862 2.027-.804zm-5.785 8.647c0 .323 0 .623-.06.92l.392.08c.069-.343.068-.683.068-1zm8.2-9.09.192-.064-.127-.38-.192.064zm.328-.254v-.384h-.4v.384zm-.2-.584h-.128v.4h.128zm-.294.09-.128.191.333.222.128-.192zm-.156.35.064.257.388-.098-.064-.255zm5.699-17.21c.254-.889.665-1.963 1.037-3.045.367-1.07.696-2.149.762-3.01l-.399-.03c-.062.803-.373 1.836-.742 2.91-.364 1.062-.785 2.164-1.043 3.066zm1.43-6.176c-.051.08-.118.23-.193.412-.077.188-.169.427-.27.7-.202.545-.441 1.23-.669 1.915a56 56 0 0 0-.61 1.928c-.081.277-.148.522-.195.717-.045.187-.078.35-.078.45h.4q-.002-.064.067-.356c.045-.186.11-.425.19-.699a66 66 0 0 1 1.27-3.817c.1-.27.19-.504.265-.686q.116-.281.162-.352zm-2.015 6.122v.256h.4v-.256zm.36.376.192-.256-.32-.24-.192.256z" fill="#4B6CFF" mask="url(#a)"/></svg>